<svg xmlns="http://www.w3.org/2000/svg" xmlns:xlink="http://www.w3.org/1999/xlink" width="98" height="98" viewBox="0 0 98 98">
  <defs>
    <filter id="Trazado_982547" x="0" y="0" width="98" height="98" filterUnits="userSpaceOnUse">
      <feOffset dy="3" input="SourceAlpha"/>
      <feGaussianBlur stdDeviation="3" result="blur"/>
      <feFlood flood-opacity="0.161"/>
      <feComposite operator="in" in2="blur"/>
      <feComposite in="SourceGraphic"/>
    </filter>
  </defs>
  <g id="Grupo_1219683" data-name="Grupo 1219683" transform="translate(-196 -1632)">
    <g id="Grupo_1203203" data-name="Grupo 1203203" transform="translate(-82 -1790.045)">
      <g id="Grupo_1178491" data-name="Grupo 1178491" transform="translate(287 3428.045)">
        <g id="Grupo_1172010" data-name="Grupo 1172010" transform="translate(0)">
          <g id="Grupo_1171046" data-name="Grupo 1171046">
            <g id="Grupo_1148525" data-name="Grupo 1148525">
              <g transform="matrix(1, 0, 0, 1, -9, -6)" filter="url(#Trazado_982547)">
                <g id="Trazado_982547-2" data-name="Trazado 982547" transform="translate(9 6)" fill="#fdeffe">
                  <path d="M 40 78.5 C 34.80187606811523 78.5 29.76003265380859 77.48227691650391 25.01452255249023 75.47509765625 C 20.43014526367188 73.53606414794922 16.31264495849609 70.75986480712891 12.77638912200928 67.22360992431641 C 9.240133285522461 63.68735504150391 6.46393346786499 59.56985473632812 4.524899959564209 54.98547744750977 C 2.517722129821777 50.23996734619141 1.5 45.19812393188477 1.5 40 C 1.5 34.80187606811523 2.517722129821777 29.76003265380859 4.524899959564209 25.01452255249023 C 6.46393346786499 20.43014526367188 9.240133285522461 16.31264495849609 12.77638912200928 12.77638912200928 C 16.31264495849609 9.240133285522461 20.43014526367188 6.46393346786499 25.01452255249023 4.524899959564209 C 29.76003265380859 2.517722129821777 34.80187606811523 1.5 40 1.5 C 45.19812393188477 1.5 50.23996734619141 2.517722129821777 54.98547744750977 4.524899959564209 C 59.56985473632812 6.46393346786499 63.68735504150391 9.240133285522461 67.22360992431641 12.77638912200928 C 70.75986480712891 16.31264495849609 73.53606414794922 20.43014526367188 75.47509765625 25.01452255249023 C 77.48227691650391 29.76003265380859 78.5 34.80187606811523 78.5 40 C 78.5 45.19812393188477 77.48227691650391 50.23996734619141 75.47509765625 54.98547744750977 C 73.53606414794922 59.56985473632812 70.75986480712891 63.68735504150391 67.22360992431641 67.22360992431641 C 63.68735504150391 70.75986480712891 59.56985473632812 73.53606414794922 54.98547744750977 75.47509765625 C 50.23996734619141 77.48227691650391 45.19812393188477 78.5 40 78.5 Z" stroke="none"/>
                  <path d="M 40 3 C 35.00370788574219 3 30.15846633911133 3.977851867675781 25.59885406494141 5.906410217285156 C 21.19327926635742 7.769813537597656 17.23603820800781 10.43806457519531 13.83705139160156 13.83705139160156 C 10.43806457519531 17.23603820800781 7.769813537597656 21.19327926635742 5.906410217285156 25.59885406494141 C 3.977851867675781 30.15846633911133 3 35.00370788574219 3 40 C 3 44.99629211425781 3.977851867675781 49.84153366088867 5.906410217285156 54.40114593505859 C 7.769813537597656 58.80672073364258 10.43806457519531 62.76396179199219 13.83705139160156 66.16294860839844 C 17.23603820800781 69.56193542480469 21.19327926635742 72.23018646240234 25.59885406494141 74.09358978271484 C 30.15846633911133 76.02214813232422 35.00370788574219 77 40 77 C 44.99629211425781 77 49.84153366088867 76.02214813232422 54.40114593505859 74.09358978271484 C 58.80672073364258 72.23018646240234 62.76396179199219 69.56193542480469 66.16294860839844 66.16294860839844 C 69.56193542480469 62.76396179199219 72.23018646240234 58.80672073364258 74.09358978271484 54.40114593505859 C 76.02214813232422 49.84153366088867 77 44.99629211425781 77 40 C 77 35.00370788574219 76.02214813232422 30.15846633911133 74.09358978271484 25.59885406494141 C 72.23018646240234 21.19327926635742 69.56193542480469 17.23603820800781 66.16294860839844 13.83705139160156 C 62.76396179199219 10.43806457519531 58.80672073364258 7.769813537597656 54.40114593505859 5.906410217285156 C 49.84153366088867 3.977851867675781 44.99629211425781 3 40 3 M 40 0 C 62.09138488769531 0 80 17.90861511230469 80 40 C 80 62.09138488769531 62.09138488769531 80 40 80 C 17.90861511230469 80 0 62.09138488769531 0 40 C 0 17.90861511230469 17.90861511230469 0 40 0 Z" stroke="none" fill="#ee70f7"/>
                </g>
              </g>
            </g>
          </g>
        </g>
      </g>
    </g>
    <g id="demografico" transform="translate(215.942 1648.959)">
      <g id="Grupo_1219681" data-name="Grupo 1219681" transform="translate(0.864 0.85)">
        <g id="Grupo_1219678" data-name="Grupo 1219678">
          <path id="Trazado_1043274" data-name="Trazado 1043274" d="M100.185,7.489a28.1,28.1,0,0,0-19.934,8.257l5.311,5.311A20.68,20.68,0,0,1,120.875,35.68h7.5A28.191,28.191,0,0,0,100.185,7.489Z" transform="translate(-71.994 -7.489)" fill="#99e6fc"/>
          <g id="Grupo_1219677" data-name="Grupo 1219677" transform="translate(26.489)">
            <path id="Trazado_1043275" data-name="Trazado 1043275" d="M242.669,7.489q-.857,0-1.7.05A28.192,28.192,0,0,1,267.456,35.68h3.4A28.191,28.191,0,0,0,242.669,7.489Z" transform="translate(-240.967 -7.489)" fill="#62dbfb"/>
          </g>
          <path id="Trazado_1043276" data-name="Trazado 1043276" d="M14.968,100.206a20.626,20.626,0,0,1,6.067-14.623l-5.311-5.311A28.191,28.191,0,0,0,35.658,128.4v-7.5a20.713,20.713,0,0,1-20.69-20.69Z" transform="translate(-7.467 -72.015)" fill="#fee45a"/>
          <path id="Trazado_1043277" data-name="Trazado 1043277" d="M255.967,276.679v7.5a28.191,28.191,0,0,0,28.191-28.191h-7.5A20.713,20.713,0,0,1,255.967,276.679Z" transform="translate(-227.776 -227.798)" fill="#feaee1"/>
          <path id="Trazado_1043278" data-name="Trazado 1043278" d="M280.755,255.989a28.2,28.2,0,0,1-24.788,27.988v.2a28.191,28.191,0,0,0,28.191-28.191Z" transform="translate(-227.776 -227.798)" fill="#fe93d3"/>
        </g>
        <g id="Grupo_1219680" data-name="Grupo 1219680" transform="translate(13.85 17.966)">
          <g id="Grupo_1219679" data-name="Grupo 1219679">
            <path id="Trazado_1043279" data-name="Trazado 1043279" d="M254.779,173.878a4.5,4.5,0,1,0-5.623,0,8.152,8.152,0,0,0-4.942,5.179,1.889,1.889,0,0,0,1.807,2.451h11.895a1.889,1.889,0,0,0,1.807-2.451A8.151,8.151,0,0,0,254.779,173.878Z" transform="translate(-231.128 -165.86)" fill="#fee45a"/>
            <path id="Trazado_1043280" data-name="Trazado 1043280" d="M140.205,173.878a4.5,4.5,0,1,0-5.623,0,8.152,8.152,0,0,0-4.942,5.179,1.889,1.889,0,0,0,1.807,2.451h11.895a1.889,1.889,0,0,0,1.807-2.451A8.152,8.152,0,0,0,140.205,173.878Z" transform="translate(-129.551 -165.86)" fill="#feaee1"/>
          </g>
          <path id="Trazado_1043281" data-name="Trazado 1043281" d="M197.492,216.2a4.5,4.5,0,1,0-5.623,0,8.152,8.152,0,0,0-4.942,5.179,1.889,1.889,0,0,0,1.807,2.451h11.895a1.889,1.889,0,0,0,1.807-2.451A8.152,8.152,0,0,0,197.492,216.2Z" transform="translate(-180.34 -203.383)" fill="#99e6fc"/>
          <path id="Trazado_1043282" data-name="Trazado 1043282" d="M250.372,221.381a8.152,8.152,0,0,0-4.942-5.179,4.5,4.5,0,0,0-4.52-7.682,4.5,4.5,0,0,1,1.117,7.682,8.152,8.152,0,0,1,4.942,5.179,1.889,1.889,0,0,1-1.807,2.451h3.4A1.889,1.889,0,0,0,250.372,221.381Z" transform="translate(-228.277 -203.382)" fill="#62dbfb"/>
        </g>
      </g>
      <g id="Grupo_1219682" data-name="Grupo 1219682" transform="translate(0.019 0)">
        <path id="Trazado_1043283" data-name="Trazado 1043283" d="M49.59,8.5A29.114,29.114,0,0,0,18.27,2.069a.851.851,0,1,0,.632,1.58C36.279-3.466,55.98,9.417,56.382,28.19h-5.8C50.026,10.07,27.67.738,14.443,13.226l-4.11-4.11A27.479,27.479,0,0,1,15,5.584a.851.851,0,1,0-.876-1.459A29.169,29.169,0,0,0,8.522,8.5l0,0C-9.7,26.668,3.331,58.127,29.055,58.082,54.833,58.058,67.8,26.748,49.59,8.5Zm-.7,20.536c-1,26.283-38.684,26.277-39.678,0a19.7,19.7,0,0,1,5.818-14.021C27.291,2.545,49.007,11.557,48.894,29.041Zm-47.179,0A27.148,27.148,0,0,1,9.13,10.319l4.11,4.11C.748,27.66,10.092,50.015,28.2,50.565v5.8C13.844,56.217,1.419,43.417,1.714,29.041ZM48.387,48.373a27.149,27.149,0,0,1-18.482,7.995v-5.8A21.57,21.57,0,0,0,50.579,29.892h5.8A27.148,27.148,0,0,1,48.387,48.373Z" transform="translate(-0.019 0)"/>
        <path id="Trazado_1043284" data-name="Trazado 1043284" d="M122.228,172.15a2.777,2.777,0,0,0,2.618,3.558h4.381a8.831,8.831,0,0,0-.5,1.243,2.777,2.777,0,0,0,2.618,3.558h5.72a.851.851,0,1,0,0-1.7h-5.72a1.038,1.038,0,0,1-1-1.344,7.329,7.329,0,0,1,4.425-4.637.851.851,0,0,0,.238-1.462,3.651,3.651,0,1,1,5.928-3.01,3.623,3.623,0,0,1-1.368,3.01.851.851,0,0,0,.238,1.462,7.329,7.329,0,0,1,4.425,4.637,1.038,1.038,0,0,1-1,1.344H141.7a.851.851,0,0,0,0,1.7h1.536a2.777,2.777,0,0,0,2.618-3.558,8.833,8.833,0,0,0-.5-1.243h4.381a2.777,2.777,0,0,0,2.618-3.558,9.049,9.049,0,0,0-4.306-5.2,5.381,5.381,0,0,0,1.089-3.47,5.467,5.467,0,0,0-5.348-5.122,5.4,5.4,0,0,0-5.337,4.93,5.382,5.382,0,0,0-2.325,0,5.354,5.354,0,1,0-9.6,3.666A9.05,9.05,0,0,0,122.228,172.15Zm17.912-8.438a3.652,3.652,0,0,1,7.3-.159,3.624,3.624,0,0,1-1.368,3.01.851.851,0,0,0,.238,1.462,7.329,7.329,0,0,1,4.425,4.637,1.038,1.038,0,0,1-1,1.344h-5.473a9.075,9.075,0,0,0-2.715-2.254,5.381,5.381,0,0,0,1.089-3.47,5.452,5.452,0,0,0-2.49-4.288Q140.139,163.853,140.139,163.712Zm-11.864,4.314a.851.851,0,0,0,.238-1.462,3.664,3.664,0,0,1,2.28-6.5,3.709,3.709,0,0,1,3.641,3.924,5.4,5.4,0,0,0-1.4,7.769,9.072,9.072,0,0,0-2.712,2.253h-5.473a1.038,1.038,0,0,1-1-1.344A7.328,7.328,0,0,1,128.276,168.025Z" transform="translate(-108.256 -140.394)"/>
      </g>
    </g>
  </g>
</svg>
