<svg xmlns="http://www.w3.org/2000/svg" xmlns:xlink="http://www.w3.org/1999/xlink" width="108" height="108" viewBox="0 0 108 108">
  <defs>
    <filter id="Trazado_904820" x="0" y="0" width="108" height="108" filterUnits="userSpaceOnUse">
      <feOffset dy="3" input="SourceAlpha"/>
      <feGaussianBlur stdDeviation="3" result="blur"/>
      <feFlood flood-opacity="0.161"/>
      <feComposite operator="in" in2="blur"/>
      <feComposite in="SourceGraphic"/>
    </filter>
  </defs>
  <g id="Grupo_1219659" data-name="Grupo 1219659" transform="translate(-169.5 -1969)">
    <g id="Grupo_1203185" data-name="Grupo 1203185" transform="translate(-26.977 1647.248)">
      <g id="Grupo_1177315" data-name="Grupo 1177315" transform="translate(205.477 327.752)">
        <g id="Grupo_1173585" data-name="Grupo 1173585" transform="translate(0 0)">
          <g id="Grupo_1173428" data-name="Grupo 1173428">
            <g id="Grupo_1171958" data-name="Grupo 1171958">
              <g id="Grupo_1167341" data-name="Grupo 1167341">
                <g id="Grupo_1166792" data-name="Grupo 1166792">
                  <g transform="matrix(1, 0, 0, 1, -9, -6)" filter="url(#Trazado_904820)">
                    <g id="Trazado_904820-2" data-name="Trazado 904820" transform="translate(9 6)" fill="#f4f4f4">
                      <path d="M 44.99999618530273 88.49999237060547 C 39.12687301635742 88.49999237060547 33.43022155761719 87.35006713867188 28.06829643249512 85.08216857910156 C 22.88852119445801 82.89130401611328 18.23629570007324 79.75457763671875 14.24084663391113 75.75914001464844 C 10.24540901184082 71.76369476318359 7.108683586120605 67.11146545410156 4.917821407318115 61.93169403076172 C 2.649921178817749 56.56976699829102 1.499996185302734 50.87311553955078 1.499996185302734 44.99999237060547 C 1.499996185302734 39.12686920166016 2.649921178817749 33.43021774291992 4.917821407318115 28.06829261779785 C 7.108683586120605 22.88851737976074 10.24540901184082 18.23630523681641 14.24084663391113 14.24085521697998 C 18.23629570007324 10.24540519714355 22.88852119445801 7.108692169189453 28.06829643249512 4.917829990386963 C 33.43022155761719 2.649929761886597 39.12687301635742 1.500004887580872 44.99999618530273 1.500004887580872 C 50.87311935424805 1.500004887580872 56.56977081298828 2.649929761886597 61.93169784545898 4.917829990386963 C 67.11147308349609 7.108692169189453 71.76369476318359 10.24540519714355 75.75914764404297 14.24085521697998 C 79.75458526611328 18.23630523681641 82.89131164550781 22.88851737976074 85.08216857910156 28.06829261779785 C 87.35007476806641 33.43021774291992 88.5 39.12686920166016 88.5 44.99999237060547 C 88.5 50.87311553955078 87.35007476806641 56.56976699829102 85.08216857910156 61.93169403076172 C 82.89131164550781 67.11146545410156 79.75458526611328 71.76369476318359 75.75914764404297 75.75914001464844 C 71.76369476318359 79.75457763671875 67.11147308349609 82.89130401611328 61.93169784545898 85.08216857910156 C 56.56977081298828 87.35006713867188 50.87311935424805 88.49999237060547 44.99999618530273 88.49999237060547 Z" stroke="none"/>
                      <path d="M 44.99999618530273 2.999992370605469 C 39.32870864868164 2.999992370605469 33.82865142822266 4.11004638671875 28.65262603759766 6.299331665039062 C 23.65165710449219 8.414566040039062 19.15968322753906 11.44333648681641 15.301513671875 15.30150604248047 C 11.44333648681641 19.15967559814453 8.414566040039062 23.65164947509766 6.299339294433594 28.65262222290039 C 4.110054016113281 33.82864761352539 2.999992370605469 39.32870483398438 2.999992370605469 44.99999237060547 C 2.999992370605469 50.67127990722656 4.110054016113281 56.17132186889648 6.299339294433594 61.34736633300781 C 8.414566040039062 66.34833526611328 11.44333648681641 70.84029388427734 15.301513671875 74.69846343994141 C 19.15968322753906 78.55663299560547 23.65165710449219 81.58540344238281 28.65262603759766 83.70063781738281 C 33.82865142822266 85.88992309570312 39.32870864868164 86.99997711181641 44.99999618530273 86.99997711181641 C 50.67128372192383 86.99997711181641 56.17134094238281 85.88992309570312 61.34736633300781 83.70063781738281 C 66.34834289550781 81.58540344238281 70.84030914306641 78.55663299560547 74.69847869873047 74.69846343994141 C 78.55665588378906 70.84029388427734 81.58542633056641 66.34833526611328 83.70065307617188 61.34736633300781 C 85.88993835449219 56.17132186889648 87 50.67127990722656 87 44.99999237060547 C 87 39.32870483398438 85.88993835449219 33.82864761352539 83.70065307617188 28.65262222290039 C 81.58542633056641 23.65164947509766 78.55665588378906 19.15967559814453 74.69847869873047 15.30150604248047 C 70.84030914306641 11.44333648681641 66.34834289550781 8.414566040039062 61.34736633300781 6.299331665039062 C 56.17134094238281 4.11004638671875 50.67128372192383 2.999992370605469 44.99999618530273 2.999992370605469 M 44.99999618530273 -7.62939453125e-06 C 69.85281372070312 -7.62939453125e-06 90 20.14717864990234 90 44.99999237060547 C 90 69.85279083251953 69.85281372070312 89.99997711181641 44.99999618530273 89.99997711181641 C 20.14717864990234 89.99997711181641 -7.62939453125e-06 69.85279083251953 -7.62939453125e-06 44.99999237060547 C -7.62939453125e-06 20.14717864990234 20.14717864990234 -7.62939453125e-06 44.99999618530273 -7.62939453125e-06 Z" stroke="none" fill="#797979"/>
                    </g>
                  </g>
                </g>
              </g>
            </g>
          </g>
        </g>
      </g>
    </g>
    <g id="proceso-de-trabajo_2_" data-name="proceso-de-trabajo (2)" transform="translate(191.834 1987.834)">
      <g id="Grupo_1219657" data-name="Grupo 1219657" transform="translate(0.989 0.99)">
        <path id="Trazado_1043231" data-name="Trazado 1043231" d="M58.147,10.536h0a28.144,28.144,0,0,0-28,25.3l7.429-.348a20.853,20.853,0,0,1,20.57-17.625l-.033.012v2.845l7.183-5.8L58.114,8v2.548" transform="translate(-27.408 -8)" fill="#ffe27a"/>
        <path id="Trazado_1043232" data-name="Trazado 1043232" d="M108.951,74.831l5.41-4.371a20.824,20.824,0,0,0-26.2,19.152l.253-.012a20.852,20.852,0,0,1,20.57-17.625l-.033.012Z" transform="translate(-78.245 -62.11)" fill="#f9cf58"/>
        <path id="Trazado_1043233" data-name="Trazado 1043233" d="M170.817,155.683l-2.353-.354a10.981,10.981,0,0,0-1.731-4.176l1.414-1.915a.842.842,0,0,0-.082-1.1l-1.218-1.218a.842.842,0,0,0-1.1-.082l-1.915,1.414a10.98,10.98,0,0,0-4.176-1.731l-.354-2.353a.842.842,0,0,0-.833-.717h-1.723a.842.842,0,0,0-.833.717l-.354,2.353a10.98,10.98,0,0,0-4.176,1.731l-1.915-1.414a.842.842,0,0,0-1.1.082l-1.218,1.218a.842.842,0,0,0-.082,1.1l1.414,1.915a10.98,10.98,0,0,0-1.731,4.176l-2.353.354a.842.842,0,0,0-.717.833v1.723a.842.842,0,0,0,.717.833l2.353.354a10.98,10.98,0,0,0,1.731,4.176l-1.414,1.915a.842.842,0,0,0,.082,1.1l1.218,1.218a.842.842,0,0,0,1.1.082l1.915-1.414a10.98,10.98,0,0,0,4.176,1.731l.354,2.353a.842.842,0,0,0,.833.717h1.723a.842.842,0,0,0,.833-.717l.354-2.353a10.979,10.979,0,0,0,4.176-1.731l1.915,1.414a.842.842,0,0,0,1.1-.082l1.218-1.218a.842.842,0,0,0,.082-1.1l-1.414-1.915a10.981,10.981,0,0,0,1.731-4.176l2.353-.354a.842.842,0,0,0,.717-.833v-1.723a.842.842,0,0,0-.717-.833Zm-13.2,7.266a5.572,5.572,0,1,1,5.572-5.572A5.572,5.572,0,0,1,157.613,162.949Z" transform="translate(-126.907 -126.701)" fill="#ff4755"/>
        <path id="Trazado_1043234" data-name="Trazado 1043234" d="M10.565,204.883c0,.01,0,.019,0,.029a28.144,28.144,0,0,0,25.3,28l-.436-7.444a20.817,20.817,0,0,1-17.538-20.555c0-.01,0-.019,0-.029h2.827l-5.8-7.183L8,204.883h2.548" transform="translate(-8 -174.235)" fill="#8bcaff"/>
        <path id="Trazado_1043235" data-name="Trazado 1043235" d="M204.883,296.459h.057a20.817,20.817,0,0,0,20.554-17.533l7.451-.506a28.144,28.144,0,0,1-28,25.367h-.057v2.537l-7.183-6.917,7.183-5.8v2.845Z" transform="translate(-174.235 -244.971)" fill="#98db7c"/>
        <path id="Trazado_1043236" data-name="Trazado 1043236" d="M222.329,266.113a5.6,5.6,0,0,0-.111-1.113,5.573,5.573,0,0,1-10.921,0,5.573,5.573,0,1,0,11.033,1.113Z" transform="translate(-186.052 -233.21)" fill="#fc2b3a"/>
        <path id="Trazado_1043237" data-name="Trazado 1043237" d="M216.718,301.563a28.27,28.27,0,0,1-5.578-.554l5.52,5.316v-2.537h.057a28.144,28.144,0,0,0,28-25.367l-.383.4a28.149,28.149,0,0,1-27.622,22.743Z" transform="translate(-186.012 -244.972)" fill="#82d361"/>
        <path id="Trazado_1043238" data-name="Trazado 1043238" d="M51.3,281.157a28.155,28.155,0,0,1-22.477-25.389h-.086c0,.01,0,.019,0,.029a28.144,28.144,0,0,0,25.3,28Z" transform="translate(-26.168 -225.12)" fill="#6cc4ff"/>
        <path id="Trazado_1043239" data-name="Trazado 1043239" d="M304.03,57.635c0-.01,0-.019,0-.029a28.144,28.144,0,0,0-25.366-28l4.408,4.245-3.956,3.2A20.817,20.817,0,0,1,296.7,57.607c0,.01,0,.019,0,.029h-2.884l5.8,7.183,6.917-7.183Z" transform="translate(-245.184 -26.93)" fill="#ffba57"/>
        <g id="Grupo_1219656" data-name="Grupo 1219656" transform="translate(33.932 8.35)">
          <path id="Trazado_1043240" data-name="Trazado 1043240" d="M284.5,75.5l-2.183,1.764A20.818,20.818,0,0,1,299.872,96.72q.03-.556.03-1.119a20.82,20.82,0,0,0-15.4-20.1Z" transform="translate(-282.316 -75.501)" fill="#ffac3e"/>
        </g>
      </g>
      <g id="Grupo_1219658" data-name="Grupo 1219658" transform="translate(0 0)">
        <path id="Trazado_1043241" data-name="Trazado 1043241" d="M210.084,203.347a6.517,6.517,0,0,0-6.118,8.75.93.93,0,1,0,1.746-.639,4.654,4.654,0,1,1,1.974,2.391.93.93,0,0,0-.96,1.592,6.513,6.513,0,1,0,3.357-12.095Z" transform="translate(-178.39 -178.194)"/>
        <path id="Trazado_1043242" data-name="Trazado 1043242" d="M164.19,147.975l-1.724-.259a11.841,11.841,0,0,0-1.378-3.325l1.036-1.4a1.763,1.763,0,0,0-.172-2.308l-1.221-1.221a1.763,1.763,0,0,0-2.307-.172l-1.4,1.036a11.836,11.836,0,0,0-3.325-1.378l-.259-1.724a1.763,1.763,0,0,0-1.754-1.51h-1.726a1.763,1.763,0,0,0-1.754,1.51l-.259,1.724a11.837,11.837,0,0,0-3.325,1.378l-1.4-1.036a1.763,1.763,0,0,0-2.307.173l-1.22,1.221a1.762,1.762,0,0,0-.173,2.308l1.036,1.4a11.829,11.829,0,0,0-1.378,3.325l-1.723.259a1.762,1.762,0,0,0-1.51,1.754v1.726a1.762,1.762,0,0,0,1.51,1.754l1.724.259a11.838,11.838,0,0,0,1.378,3.325l-1.036,1.4a1.763,1.763,0,0,0,.172,2.308l1.221,1.221a1.763,1.763,0,0,0,2.307.172l1.4-1.036a11.836,11.836,0,0,0,3.325,1.378l.259,1.724a1.763,1.763,0,0,0,1.754,1.51h1.726a1.763,1.763,0,0,0,1.754-1.51l.259-1.724a11.836,11.836,0,0,0,3.325-1.378l1.4,1.036a1.763,1.763,0,0,0,2.307-.172l1.221-1.221a1.763,1.763,0,0,0,.172-2.308l-1.036-1.4a11.833,11.833,0,0,0,1.378-3.325l1.723-.259a1.762,1.762,0,0,0,1.51-1.754v-1.726A1.762,1.762,0,0,0,164.19,147.975Zm-.35,3.406-2.285.343a.929.929,0,0,0-.775.748,10.022,10.022,0,0,1-1.588,3.832.929.929,0,0,0,.02,1.077l1.373,1.859-1.116,1.116-1.859-1.373a.93.93,0,0,0-1.077-.02,10.022,10.022,0,0,1-3.831,1.588.93.93,0,0,0-.748.776l-.343,2.285h-1.578l-.344-2.285a.929.929,0,0,0-.748-.775,10.023,10.023,0,0,1-3.832-1.588.929.929,0,0,0-1.077.02l-1.859,1.373-1.116-1.116,1.373-1.859a.929.929,0,0,0,.02-1.077,10.02,10.02,0,0,1-1.588-3.831.929.929,0,0,0-.775-.748l-2.285-.343V149.8l2.285-.344a.929.929,0,0,0,.775-.748,10.021,10.021,0,0,1,1.588-3.831.929.929,0,0,0-.02-1.077l-1.373-1.859,1.116-1.116,1.859,1.373a.93.93,0,0,0,1.077.02,10.025,10.025,0,0,1,3.832-1.588.929.929,0,0,0,.748-.775l.344-2.285h1.578l.343,2.285a.93.93,0,0,0,.748.776,10.02,10.02,0,0,1,3.831,1.588.929.929,0,0,0,1.077-.02l1.859-1.373,1.116,1.116-1.373,1.859a.93.93,0,0,0-.02,1.077,10.022,10.022,0,0,1,1.588,3.832.929.929,0,0,0,.775.748l2.285.344Z" transform="translate(-119.127 -118.926)"/>
        <path id="Trazado_1043243" data-name="Trazado 1043243" d="M63.258,31.331a.929.929,0,0,0-.855-.566h-1.6A29.127,29.127,0,0,0,34.89,2.715L32.338.258a.936.936,0,0,0-1.574.67V2.553A28.92,28.92,0,0,0,14.929,7.845.93.93,0,0,0,16,9.365,27.09,27.09,0,0,1,31.694,4.4a.929.929,0,0,0,.93-.93V3.113L37.487,7.8l-4.864,3.93v-.916a.929.929,0,0,0-.93-.93,21.79,21.79,0,0,0-21.12,16.439L8.581,23.856a.936.936,0,0,0-1.393-.06L5.005,26.062a27.233,27.233,0,0,1,8.2-14.437.93.93,0,0,0-1.261-1.366A29.068,29.068,0,0,0,2.75,28.4L.258,30.993a.936.936,0,0,0,.67,1.574H2.581A29.128,29.128,0,0,0,28.433,60.611l2.559,2.464a.935.935,0,0,0,1.574-.67V60.781a28.9,28.9,0,0,0,16.091-5.434.93.93,0,0,0-1.084-1.511,27.079,27.079,0,0,1-15.89,5.1h-.046a.929.929,0,0,0-.93.93v.356l-4.864-4.684,4.864-3.93v.915a.93.93,0,0,0,.924.93h.063A21.79,21.79,0,0,0,52.8,37.064l1.949,2.412a.935.935,0,0,0,1.393.06L58.4,37.195a27.249,27.249,0,0,1-8.043,14.354A.93.93,0,0,0,51.626,52.9a29.086,29.086,0,0,0,9.018-18.043l2.429-2.522a.929.929,0,0,0,.186-1.008Zm-39.4,23.42a.935.935,0,0,0-.06,1.393l2.3,2.213A27.276,27.276,0,0,1,4.426,31.669v-.032a.929.929,0,0,0-.93-.93H3.113L7.8,25.844l3.93,4.864H10.84a.927.927,0,0,0-.93.926v.032A21.79,21.79,0,0,0,26.3,52.775Zm20.838-7.985a19.914,19.914,0,0,1-12.127,4.806V49.659a.936.936,0,0,0-1.514-.723l-2.9,2.341A19.93,19.93,0,0,1,11.79,32.567h1.883a.936.936,0,0,0,.723-1.514l-2.322-2.874a19.93,19.93,0,0,1,18.69-16.416v1.911a.936.936,0,0,0,1.514.723l2.908-2.349A19.93,19.93,0,0,1,51.6,30.765H49.657a.936.936,0,0,0-.723,1.514L51.3,35.211a19.935,19.935,0,0,1-6.609,11.555Zm10.84-9.277L51.6,32.625h.944a.927.927,0,0,0,.93-.926v-.032a21.791,21.791,0,0,0-16.434-21.12l2.432-1.965a.935.935,0,0,0,.06-1.393L37.223,4.962a27.275,27.275,0,0,1,21.738,26.7v.032a.929.929,0,0,0,.93.93h.327Z" transform="translate(0 0)"/>
      </g>
    </g>
  </g>
</svg>
