<svg xmlns="http://www.w3.org/2000/svg" xmlns:xlink="http://www.w3.org/1999/xlink" width="97.533" height="97.533" viewBox="0 0 97.533 97.533">
  <defs>
    <filter id="Trazado_982547" x="0" y="0" width="97.533" height="97.533" filterUnits="userSpaceOnUse">
      <feOffset dy="3" input="SourceAlpha"/>
      <feGaussianBlur stdDeviation="3" result="blur"/>
      <feFlood flood-opacity="0.161"/>
      <feComposite operator="in" in2="blur"/>
      <feComposite in="SourceGraphic"/>
    </filter>
  </defs>
  <g id="Grupo_1219797" data-name="Grupo 1219797" transform="translate(-190.5 -3791.327)">
    <g id="Grupo_1219608" data-name="Grupo 1219608" transform="translate(-0.5 -5694.673)">
      <g id="Grupo_1203357" data-name="Grupo 1203357" transform="translate(-0.467 2583.318)">
        <g id="Grupo_1202156" data-name="Grupo 1202156" transform="translate(-80.533 5497.679)">
          <g id="Grupo_1177900" data-name="Grupo 1177900" transform="translate(281 1411.003)">
            <g id="Grupo_1172010" data-name="Grupo 1172010" transform="translate(0)">
              <g id="Grupo_1171046" data-name="Grupo 1171046">
                <g id="Grupo_1148525" data-name="Grupo 1148525">
                  <g transform="matrix(1, 0, 0, 1, -9, -6)" filter="url(#Trazado_982547)">
                    <g id="Trazado_982547-2" data-name="Trazado 982547" transform="translate(9 6)" fill="#fdeffe">
                      <path d="M 39.7666015625 78.033203125 C 34.59997940063477 78.033203125 29.58870124816895 77.02164459228516 24.87196731567383 75.02663421630859 C 20.31538963317871 73.099365234375 16.22284507751465 70.34000396728516 12.70802402496338 66.82518005371094 C 9.193202018737793 63.31035614013672 6.433835029602051 59.21781158447266 4.506568431854248 54.66123580932617 C 2.511557102203369 49.94449996948242 1.500001549720764 44.93322372436523 1.500001549720764 39.7666015625 C 1.500001549720764 34.59997940063477 2.511557102203369 29.58870124816895 4.506568431854248 24.87196731567383 C 6.433835029602051 20.31538963317871 9.193202018737793 16.22284507751465 12.70802402496338 12.70802402496338 C 16.22284507751465 9.193202018737793 20.31538963317871 6.433835029602051 24.87196731567383 4.506568431854248 C 29.58870124816895 2.511557102203369 34.59997940063477 1.500001549720764 39.7666015625 1.500001549720764 C 44.93322372436523 1.500001549720764 49.94449996948242 2.511557102203369 54.66123580932617 4.506568431854248 C 59.21781158447266 6.433835029602051 63.31035614013672 9.193202018737793 66.82518005371094 12.70802402496338 C 70.34000396728516 16.22284507751465 73.099365234375 20.31538963317871 75.02663421630859 24.87196731567383 C 77.02164459228516 29.58870124816895 78.033203125 34.59997940063477 78.033203125 39.7666015625 C 78.033203125 44.93322372436523 77.02164459228516 49.94449996948242 75.02663421630859 54.66123580932617 C 73.099365234375 59.21781158447266 70.34000396728516 63.31035614013672 66.82518005371094 66.82518005371094 C 63.31035614013672 70.34000396728516 59.21781158447266 73.099365234375 54.66123580932617 75.02663421630859 C 49.94449996948242 77.02164459228516 44.93322372436523 78.033203125 39.7666015625 78.033203125 Z" stroke="none"/>
                      <path d="M 39.7666015625 3 C 34.80181503295898 3 29.98714065551758 3.971687316894531 25.45630264282227 5.888076782226562 C 21.07851409912109 7.739715576171875 17.146240234375 10.39113616943359 13.76869201660156 13.76869201660156 C 10.39113616943359 17.146240234375 7.739715576171875 21.07851409912109 5.888076782226562 25.45630264282227 C 3.971687316894531 29.98714065551758 3 34.80181503295898 3 39.7666015625 C 3 44.73138809204102 3.971687316894531 49.54606628417969 5.888076782226562 54.076904296875 C 7.739715576171875 58.45468902587891 10.39113616943359 62.386962890625 13.76869201660156 65.76451110839844 C 17.146240234375 69.14206695556641 21.07851409912109 71.79348754882812 25.45630264282227 73.64512634277344 C 29.98714065551758 75.56151580810547 34.80181503295898 76.533203125 39.7666015625 76.533203125 C 44.73138809204102 76.533203125 49.54606628417969 75.56151580810547 54.076904296875 73.64512634277344 C 58.45468902587891 71.79348754882812 62.386962890625 69.14206695556641 65.76451110839844 65.76451110839844 C 69.14206695556641 62.386962890625 71.79348754882812 58.45468902587891 73.64512634277344 54.076904296875 C 75.56151580810547 49.54606628417969 76.533203125 44.73138809204102 76.533203125 39.7666015625 C 76.533203125 34.80181503295898 75.56151580810547 29.98714065551758 73.64512634277344 25.45630264282227 C 71.79348754882812 21.07851409912109 69.14206695556641 17.146240234375 65.76451110839844 13.76869201660156 C 62.386962890625 10.39113616943359 58.45468902587891 7.739715576171875 54.076904296875 5.888076782226562 C 49.54606628417969 3.971687316894531 44.73138809204102 3 39.7666015625 3 M 39.7666015625 0 C 61.72908782958984 0 79.533203125 17.80411529541016 79.533203125 39.7666015625 C 79.533203125 61.72908782958984 61.72908782958984 79.533203125 39.7666015625 79.533203125 C 17.80411529541016 79.533203125 0 61.72908782958984 0 39.7666015625 C 0 17.80411529541016 17.80411529541016 0 39.7666015625 0 Z" stroke="none" fill="#ee70f7"/>
                    </g>
                  </g>
                </g>
              </g>
            </g>
          </g>
        </g>
      </g>
    </g>
    <g id="recopilacion-de-datos" transform="translate(197.149 3797.398)">
      <path id="Trazado_1043478" data-name="Trazado 1043478" d="M42.521,34.162v4.521h13.79a1.24,1.24,0,0,0,1.237-1.237V34.162h-5.11a1.555,1.555,0,0,1-1.553-1.553V20.137h0c0-.009,0-.018,0-.027h0V20.1h0v-.013h0l0-.012h0l0-.011h0v0l0-.011h0v0l0-.01h0v0l0-.007h0v0l0-.01h0v0l0-.01h0v0l0-.006v-.005h0l0-.006h0l0-.006h0l0-.006,0-.006h0l0-.006h0l0-.005h0l0-.006v0l0,0,0-.006,0-.006h0l0-.006h0l0,0v0l0-.006h0l0-.006,0-.006.01-.017,0-.006.011-.016v0l.006-.009h0L51,19.823l0,0L51,19.813h0l0-.005,0,0h0l0-.005,0,0,0,0,.017-.018,0,0h0l0,0,3.592-3.592a.542.542,0,0,1,.046-.042l.005,0,.005,0,.022-.016.006,0,.005,0h0l.034-.021h0a.54.54,0,0,1,.264-.068h8.718A1.555,1.555,0,0,1,65.3,17.56V32.609a1.555,1.555,0,0,1-1.553,1.553H58.634v3.283a2.326,2.326,0,0,1-2.322,2.322H42.521v3.439h1.6a7.567,7.567,0,0,1,.531-.592,7.508,7.508,0,0,1,11.6,9.409l1.2,1.191a.542.542,0,0,1,.448.14L64.835,59.6c.018.016.043.04.073.071a2.072,2.072,0,0,1,.6,1.489,2.249,2.249,0,0,1-.573,1.49c-.018.02-.043.046-.076.08s-.059.058-.08.077a2.251,2.251,0,0,1-1.487.58,2.07,2.07,0,0,1-1.491-.595c-.03-.03-.053-.054-.071-.074L55.452,55.8a.54.54,0,0,1-.136-.44l-1.2-1.191a7.466,7.466,0,0,1-1.214.653l-2.591,6.2a2.754,2.754,0,0,1-.952,1.151,2.475,2.475,0,0,1-1.386.48H29.414a1.569,1.569,0,0,1-.608-.117,1.269,1.269,0,0,1-.591-.492,1.352,1.352,0,0,1-.206-.733c0-.029,0-.058,0-.087l.008-18.55A2.29,2.29,0,0,1,30.3,40.383h4.71a.54.54,0,0,1,.342.122l3.715,2.7h2.364V39.768H27.646a2.326,2.326,0,0,1-2.322-2.322V34.162H20.21a1.555,1.555,0,0,1-1.553-1.553V20.137h0c0-.009,0-.018,0-.027h0V20.1h0v-.013h0l0-.012h0l0-.011h0v0l0-.011h0v0l0-.01h0v0l0-.007h0v0l0-.01h0v0l0-.01h0v0l0-.006v-.005h0l0-.006h0l0-.006h0l0-.006,0-.006h0l0-.006h0l0-.005h0l0-.006v0l0,0,0-.006,0,0h0l0-.006h0l0,0v0l0-.006h0l0-.006,0-.006.01-.017h0l0-.006.01-.016v0l.006-.009h0l0-.005,0,0h0l0-.005,0,0h0l0-.005,0,0h0l0-.005,0,0h0l0,0,0,0h0l.009-.009,0,0h0l0,0,3.591-3.592a.541.541,0,0,1,.046-.042l.005,0,.005,0,.022-.016.006,0,.005,0h0l.034-.021h0a.54.54,0,0,1,.264-.068h8.718a1.555,1.555,0,0,1,1.553,1.553V32.609a1.555,1.555,0,0,1-1.553,1.553h-5.11v3.283a1.24,1.24,0,0,0,1.237,1.237h13.79V34.162H36.324a1.555,1.555,0,0,1-1.553-1.553V20.137h0c0-.009,0-.018,0-.027h0V20.1h0v-.013h0l0-.012h0l0-.011h0v0l0-.011h0v0l0-.01h0v0l0-.007h0v0l0-.01h0v0l0-.01h0v0l0-.006v-.005h0l0-.006h0l0-.006h0l0-.006,0-.006h0l0-.006h0l0-.005h0l0-.006v0l0,0,0-.006,0-.006h0l0-.006h0l0,0v0l0-.006h0l0-.006,0-.006.01-.017,0-.006.011-.016v0l.006-.009h0l.007-.009,0,0,.006-.008h0l0-.005,0,0h0l0-.005,0,0,0,0,.017-.018,0,0h0l0,0,3.592-3.592a.542.542,0,0,1,.046-.042l.005,0,.005,0,.022-.016.006,0,.005,0h0l.034-.021h0a.54.54,0,0,1,.264-.068h8.718a1.555,1.555,0,0,1,1.553,1.553V32.609a1.555,1.555,0,0,1-1.553,1.553H42.521Z" transform="translate(0)" fill-rule="evenodd"/>
      <path id="Trazado_1043479" data-name="Trazado 1043479" d="M270.975,279.029a6.427,6.427,0,0,0,9.823,6.787,1.054,1.054,0,0,1,1.334.129l.927.922a2.743,2.743,0,0,1,.612-.612l-.928-.923a1.054,1.054,0,0,1-.137-1.334,6.426,6.426,0,1,0-11.631-4.97Zm2.585-2.225a5.19,5.19,0,1,1,.017,7.34,5.195,5.195,0,0,1-.017-7.34Z" transform="translate(-227.267 -232.559)" fill="#258b9b" fill-rule="evenodd"/>
      <path id="Trazado_1043480" data-name="Trazado 1043480" d="M137.771,329.364h-6.547a1.671,1.671,0,0,0-1.338.961L124.4,343.444c-.124.3-.107.546.254.546h18.561a1.671,1.671,0,0,0,1.338-.961l2.239-5.355A7.512,7.512,0,0,1,137.771,329.364Z" transform="translate(-95.243 -282.427)" fill="#fabc57" fill-rule="evenodd"/>
      <path id="Trazado_1043481" data-name="Trazado 1043481" d="M363.91,36.493h1.281a.47.47,0,0,0,.468-.468V34.744l-1.749,1.749Z" transform="translate(-311.175 -16.888)" fill="#e5bfbd" fill-rule="evenodd"/>
      <path id="Trazado_1043482" data-name="Trazado 1043482" d="M359.74,26.972V29.02a1.555,1.555,0,0,1-1.553,1.553h-2.048V42.489a.47.47,0,0,0,.468.468h11.309a.47.47,0,0,0,.468-.468V27.44a.47.47,0,0,0-.468-.468H359.74Zm4.647,9.9L367.3,39.2a1.818,1.818,0,0,1-1.266,3.147,1.585,1.585,0,0,1-1.288-.593l-2.331-2.915a4.072,4.072,0,1,1,1.97-1.97Z" transform="translate(-304.171 -9.883)" fill="#f1f1f3" fill-rule="evenodd"/>
      <path id="Trazado_1043483" data-name="Trazado 1043483" d="M37.4,36.493H38.68a.47.47,0,0,0,.468-.468V34.744L37.4,36.493Z" transform="translate(-16.892 -16.888)" fill="#e5bfbd" fill-rule="evenodd"/>
      <path id="Trazado_1043484" data-name="Trazado 1043484" d="M33.228,26.972V29.02a1.555,1.555,0,0,1-1.553,1.553H29.627V42.489a.47.47,0,0,0,.468.468H41.4a.47.47,0,0,0,.468-.468V27.44a.47.47,0,0,0-.468-.468H33.228Zm3.559,4.969a.542.542,0,0,1,.28-1.047l1.821.488a.542.542,0,0,1,.384.663l-.488,1.821a.542.542,0,0,1-1.047-.28l.15-.559-5.864,3.386a.541.541,0,0,1-.542-.937l5.866-3.387Zm2.419,2.37a.542.542,0,1,1,1.085,0V42.14a.542.542,0,1,1-1.085,0ZM36.54,35.853a.542.542,0,1,1,1.085,0V42.14a.542.542,0,0,1-1.085,0Zm-2.666,1.539a.542.542,0,0,1,1.085,0V42.14a.542.542,0,0,1-1.085,0Zm-2.666,1.539a.542.542,0,1,1,1.085,0V42.14a.542.542,0,1,1-1.085,0Z" transform="translate(-9.887 -9.883)" fill="#f1f1f3" fill-rule="evenodd"/>
      <path id="Trazado_1043485" data-name="Trazado 1043485" d="M200.655,36.493h1.281a.47.47,0,0,0,.468-.468V34.744l-1.749,1.749Z" transform="translate(-164.034 -16.888)" fill="#e5bfbd" fill-rule="evenodd"/>
      <path id="Trazado_1043486" data-name="Trazado 1043486" d="M196.484,26.972V29.02a1.555,1.555,0,0,1-1.553,1.553h-2.048V42.489a.47.47,0,0,0,.468.468H204.66a.47.47,0,0,0,.468-.468V27.44a.47.47,0,0,0-.468-.468h-8.176Zm1.357,2.845a.542.542,0,1,1,0-1.085h5.132a.542.542,0,1,1,0,1.085Zm1.975,2.845a.542.542,0,0,1,0-1.085h3.157a.542.542,0,0,1,0,1.085Zm-4.779,0a.542.542,0,0,1,0-1.085h2.516a.542.542,0,0,1,0,1.085Zm0,2.845a.542.542,0,0,1,0-1.085h7.936a.542.542,0,0,1,0,1.085Zm6.359,2.845a.542.542,0,1,1,0-1.085h1.577a.542.542,0,0,1,0,1.085Zm-6.359,0a.542.542,0,0,1,0-1.085h4.1a.542.542,0,1,1,0,1.085Zm0,2.845a.542.542,0,0,1,0-1.085h6.107a.542.542,0,0,1,0,1.085Z" transform="translate(-157.029 -9.883)" fill="#f1f1f3" fill-rule="evenodd"/>
      <path id="Trazado_1043487" data-name="Trazado 1043487" d="M298.376,297.562a4.109,4.109,0,1,0,2.909,1.2A4.082,4.082,0,0,0,298.376,297.562Z" transform="translate(-248.416 -253.764)" fill="#a5eeff" fill-rule="evenodd"/>
      <path id="Trazado_1043488" data-name="Trazado 1043488" d="M403.132,405.065l-.48-.432a1.709,1.709,0,0,0-.94.941l.438.483a2.087,2.087,0,0,0,.982-.991Z" transform="translate(-345.245 -350.267)" fill="#afb6bb" fill-rule="evenodd"/>
      <path id="Trazado_1043489" data-name="Trazado 1043489" d="M420.179,421.406l-5.394-4.856a3.14,3.14,0,0,1-1.061,1.07l4.879,5.37a1.126,1.126,0,0,0,1.9-.834.985.985,0,0,0-.32-.75Z" transform="translate(-356.071 -361.008)" fill="#5c5b61" fill-rule="evenodd"/>
      <path id="Trazado_1043490" data-name="Trazado 1043490" d="M138.668,276.751h-4.5a.54.54,0,0,1-.318-.1l-3.739-2.72h-4.535a1.212,1.212,0,0,0-1.2,1.2l-.007,15.7,4.551-10.884a2.748,2.748,0,0,1,2.338-1.631h6.77a7.456,7.456,0,0,1,.642-1.563Z" transform="translate(-95.276 -232.462)" fill="#e79a4c" fill-rule="evenodd"/>
      <path id="Trazado_1043491" data-name="Trazado 1043491" d="M372.932,80.424a2.986,2.986,0,1,0,4.223,0,2.987,2.987,0,0,0-4.223,0Zm1.59,1.213a.541.541,0,0,1-.543-.937,2.125,2.125,0,0,1,3.157,1.492.541.541,0,0,1-1.068.174,1.042,1.042,0,0,0-1.546-.729Z" transform="translate(-318.518 -57.27)" fill="#258b9b" fill-rule="evenodd"/>
      <path id="Trazado_1043492" data-name="Trazado 1043492" d="M428.993,136.964l2.3,2.864a.756.756,0,0,0,1.186-.638.552.552,0,0,0-.148-.4l-2.866-2.3Z" transform="translate(-369.834 -108.594)" fill="#5c5b61" fill-rule="evenodd"/>
    </g>
  </g>
</svg>
