<svg xmlns="http://www.w3.org/2000/svg" xmlns:xlink="http://www.w3.org/1999/xlink" width="118" height="118" viewBox="0 0 118 118">
  <defs>
    <filter id="Trazado_982547" x="0" y="0" width="118" height="118" filterUnits="userSpaceOnUse">
      <feOffset dy="3" input="SourceAlpha"/>
      <feGaussianBlur stdDeviation="3" result="blur"/>
      <feFlood flood-opacity="0.161"/>
      <feComposite operator="in" in2="blur"/>
      <feComposite in="SourceGraphic"/>
    </filter>
  </defs>
  <g id="Grupo_1219743" data-name="Grupo 1219743" transform="translate(-321 -1457)">
    <g id="Grupo_1219559" data-name="Grupo 1219559" transform="translate(0 202)">
      <g id="Grupo_1202657" data-name="Grupo 1202657" transform="translate(332.5 1263.5)">
        <g id="Grupo_1174813" data-name="Grupo 1174813" transform="translate(-2.5 -2.5)">
          <g id="Grupo_1201680" data-name="Grupo 1201680">
            <g id="Grupo_1201330" data-name="Grupo 1201330">
              <g id="Grupo_1172010" data-name="Grupo 1172010">
                <g id="Grupo_1171046" data-name="Grupo 1171046">
                  <g id="Grupo_1148525" data-name="Grupo 1148525">
                    <g transform="matrix(1, 0, 0, 1, -9, -6)" filter="url(#Trazado_982547)">
                      <g id="Trazado_982547-2" data-name="Trazado 982547" transform="translate(9 6)" fill="#fef4ec">
                        <path d="M 50 98.5 C 43.45188522338867 98.5 37.10042953491211 97.21787261962891 31.12207221984863 94.68923950195312 C 25.34691429138184 92.24655914306641 20.15997123718262 88.74931335449219 15.70532894134521 84.29468536376953 C 11.2506856918335 79.84004211425781 7.753442764282227 74.65309906005859 5.310757160186768 68.8779296875 C 2.782128572463989 62.89957046508789 1.5 56.54811477661133 1.5 50 C 1.5 43.45188522338867 2.782128572463989 37.10042953491211 5.310757160186768 31.12207221984863 C 7.753442764282227 25.34691429138184 11.2506856918335 20.15997123718262 15.70532894134521 15.70532894134521 C 20.15997123718262 11.2506856918335 25.34691429138184 7.753442764282227 31.12207221984863 5.310757160186768 C 37.10042953491211 2.782128572463989 43.45188522338867 1.5 50 1.5 C 56.54811477661133 1.5 62.89957046508789 2.782128572463989 68.8779296875 5.310757160186768 C 74.65309906005859 7.753442764282227 79.84004211425781 11.2506856918335 84.29468536376953 15.70532894134521 C 88.74931335449219 20.15997123718262 92.24655914306641 25.34691429138184 94.68923950195312 31.12207221984863 C 97.21787261962891 37.10042953491211 98.5 43.45188522338867 98.5 50 C 98.5 56.54811477661133 97.21787261962891 62.89957046508789 94.68923950195312 68.8779296875 C 92.24655914306641 74.65309906005859 88.74931335449219 79.84004211425781 84.29468536376953 84.29468536376953 C 79.84004211425781 88.74931335449219 74.65309906005859 92.24655914306641 68.8779296875 94.68923950195312 C 62.89957046508789 97.21787261962891 56.54811477661133 98.5 50 98.5 Z" stroke="none"/>
                        <path d="M 50 3 C 43.65372467041016 3 37.49886322021484 4.242263793945312 31.70639801025391 6.6922607421875 C 26.11003112792969 9.059326171875 21.08335113525391 12.44861602783203 16.76598358154297 16.76598358154297 C 12.44861602783203 21.08335113525391 9.059326171875 26.11003112792969 6.6922607421875 31.70639801025391 C 4.242263793945312 37.49886322021484 3 43.65372467041016 3 50 C 3 56.34627532958984 4.242263793945312 62.50113677978516 6.6922607421875 68.29360198974609 C 9.059326171875 73.88996887207031 12.44861602783203 78.91666412353516 16.76598358154297 83.23401641845703 C 21.08335113525391 87.55138397216797 26.11003112792969 90.940673828125 31.70639801025391 93.3077392578125 C 37.49886322021484 95.75773620605469 43.65372467041016 97 50 97 C 56.34627532958984 97 62.50113677978516 95.75773620605469 68.29360198974609 93.3077392578125 C 73.88996887207031 90.940673828125 78.91666412353516 87.55138397216797 83.23401641845703 83.23401641845703 C 87.55138397216797 78.91666412353516 90.940673828125 73.88996887207031 93.3077392578125 68.29360198974609 C 95.75773620605469 62.50113677978516 97 56.34627532958984 97 50 C 97 43.65372467041016 95.75773620605469 37.49886322021484 93.3077392578125 31.70639801025391 C 90.940673828125 26.11003112792969 87.55138397216797 21.08335113525391 83.23401641845703 16.76598358154297 C 78.91666412353516 12.44861602783203 73.88996887207031 9.059326171875 68.29360198974609 6.6922607421875 C 62.50113677978516 4.242263793945312 56.34627532958984 3 50 3 M 50 0 C 77.61424255371094 0 100 22.38577270507812 100 50 C 100 77.61424255371094 77.61424255371094 100 50 100 C 22.38577270507812 100 0 77.61424255371094 0 50 C 0 22.38577270507812 22.38577270507812 0 50 0 Z" stroke="none" fill="#fe9d52"/>
                      </g>
                    </g>
                  </g>
                </g>
              </g>
            </g>
          </g>
        </g>
      </g>
    </g>
    <g id="investigacion_2_" data-name="investigacion (2)" transform="translate(351.176 1479.791)">
      <path id="Trazado_1043378" data-name="Trazado 1043378" d="M395.682,268.214a1.893,1.893,0,0,1-2.677,0l-12.4-12.4,2.677-2.677,12.4,12.4A1.893,1.893,0,0,1,395.682,268.214Zm0,0" transform="translate(-332.587 -221.199)" fill="#484b63"/>
      <path id="Trazado_1043379" data-name="Trazado 1043379" d="M7.5,62.5H47.242v55.765H7.5Zm0,0" transform="translate(-6.554 -54.614)" fill="#d8d5ed"/>
      <path id="Trazado_1043380" data-name="Trazado 1043380" d="M40,307.727h7.57v20.439H40Zm0,0" transform="translate(-34.954 -268.902)" fill="#ff2c5c"/>
      <path id="Trazado_1043381" data-name="Trazado 1043381" d="M134,247.727h7.57v28.009H134Zm0,0" transform="translate(-117.094 -216.472)" fill="#ffd659"/>
      <path id="Trazado_1043382" data-name="Trazado 1043382" d="M230,269.727h7.57V294.96H230Zm0,0" transform="translate(-200.983 -235.696)" fill="#4fc6f5"/>
      <path id="Trazado_1043383" data-name="Trazado 1043383" d="M70,307.727h3.785v20.439H70Zm0,0" transform="translate(-61.169 -268.902)" fill="#e62753"/>
      <path id="Trazado_1043384" data-name="Trazado 1043384" d="M164,247.727h3.785v28.009H164Zm0,0" transform="translate(-143.31 -216.472)" fill="#ffbd54"/>
      <path id="Trazado_1043385" data-name="Trazado 1043385" d="M260,269.727h3.785V294.96H260Zm0,0" transform="translate(-227.198 -235.696)" fill="#3bb3e3"/>
      <path id="Trazado_1043386" data-name="Trazado 1043386" d="M171.158,13.379a20.06,20.06,0,1,0,0,28.369,20.06,20.06,0,0,0,0-28.369Zm0,0" transform="translate(-119.641 -6.556)" fill="#50536e"/>
      <path id="Trazado_1043387" data-name="Trazado 1043387" d="M194.749,65.337a16.275,16.275,0,1,1,0-23.017A16.294,16.294,0,0,1,194.749,65.337Zm0,0" transform="translate(-145.907 -32.821)" fill="#b5fcff"/>
      <path id="Trazado_1043388" data-name="Trazado 1043388" d="M294.315,42.324a16.251,16.251,0,0,0-13.4-4.649,16.267,16.267,0,0,1,0,32.316,16.269,16.269,0,0,0,13.4-27.666Zm0,0" transform="translate(-245.473 -32.825)" fill="#71f6fc"/>
      <path id="Trazado_1043389" data-name="Trazado 1043389" d="M63.767,43.421l-9.708-9.709A21.013,21.013,0,0,0,54.9,9.471a.946.946,0,1,0-1.581,1.04A19.132,19.132,0,1,1,50.848,7.48l.052.052A.946.946,0,0,0,52.243,6.2l-.054-.055a21.03,21.03,0,0,0-29.709,0q-.386.386-.747.787H.945A.946.946,0,0,0,0,7.877v4.185a.946.946,0,1,0,1.892,0V8.824H20.215a20.844,20.844,0,0,0-1.866,3.184H6.56a.946.946,0,1,0,0,1.892H17.566a20.962,20.962,0,0,0-.679,2.313H6.56a.946.946,0,0,0,0,1.892h9.977a21.144,21.144,0,0,0-.191,2.313H6.56a.946.946,0,0,0,0,1.893h9.819A21.028,21.028,0,0,0,18.5,30.3H16.906a.946.946,0,0,0-.946.947V59.263a.946.946,0,0,0,.946.947h7.57a.946.946,0,0,0,.946-.947V38.308a20.848,20.848,0,0,0,2.649,1.551v19.4a.947.947,0,0,0,.946.947h7.57a.946.946,0,0,0,.946-.947V42a21.35,21.35,0,0,0,2.208-.136V56.479a.946.946,0,1,0,1.892,0V41.558a20.865,20.865,0,0,0,8.41-3.83l9.706,9.707a2.839,2.839,0,0,0,4.016-4.015ZM23.53,58.317H17.852V32.2h1.7a21.019,21.019,0,0,0,2.923,3.66q.512.512,1.05.979Zm6.435,0V40.673a21.064,21.064,0,0,0,5.677,1.258V58.317ZM62.429,46.1a.946.946,0,0,1-1.339,0L51.5,36.51c.232-.212.461-.429.685-.653s.442-.452.654-.685l9.585,9.587a.947.947,0,0,1,0,1.338Zm0,0" transform="translate(0 0)"/>
      <path id="Trazado_1043390" data-name="Trazado 1043390" d="M40.689,165a.946.946,0,0,0-.946.946V168.1H1.892V121.555a.946.946,0,1,0-1.892,0v47.488a.946.946,0,0,0,.946.946H40.689a.946.946,0,0,0,.946-.946v-3.092A.946.946,0,0,0,40.689,165Zm0,0" transform="translate(-0.001 -105.392)"/>
      <path id="Trazado_1043391" data-name="Trazado 1043391" d="M32.5,301.141v20.442a.946.946,0,0,0,.946.946h7.57a.946.946,0,0,0,.946-.946V301.141a.946.946,0,0,0-.946-.946h-7.57A.946.946,0,0,0,32.5,301.141Zm1.892.947H40.07v18.549H34.392Zm0,0" transform="translate(-28.4 -262.32)"/>
      <path id="Trazado_1043392" data-name="Trazado 1043392" d="M52.522,197.073a.946.946,0,0,0,0-1.893H45.446a.946.946,0,0,0,0,1.893Zm0,0" transform="translate(-38.886 -170.554)"/>
      <path id="Trazado_1043393" data-name="Trazado 1043393" d="M176.691,29.988a17.2,17.2,0,1,0,12.178,5.037A17.1,17.1,0,0,0,176.691,29.988Zm10.839,28.058A15.352,15.352,0,1,1,192.013,47.2,15.224,15.224,0,0,1,187.531,58.046Zm0,0" transform="translate(-139.357 -26.204)"/>
    </g>
  </g>
</svg>
