<svg xmlns="http://www.w3.org/2000/svg" xmlns:xlink="http://www.w3.org/1999/xlink" width="118" height="118" viewBox="0 0 118 118">
  <defs>
    <filter id="Trazado_982547" x="0" y="0" width="118" height="118" filterUnits="userSpaceOnUse">
      <feOffset dy="3" input="SourceAlpha"/>
      <feGaussianBlur stdDeviation="3" result="blur"/>
      <feFlood flood-opacity="0.161"/>
      <feComposite operator="in" in2="blur"/>
      <feComposite in="SourceGraphic"/>
    </filter>
  </defs>
  <g id="Grupo_1219759" data-name="Grupo 1219759" transform="translate(-741 -1456.743)">
    <g id="Grupo_1219560" data-name="Grupo 1219560" transform="translate(0 202)">
      <g id="Grupo_1202658" data-name="Grupo 1202658" transform="translate(752.5 1263.243)">
        <g id="Grupo_1174813" data-name="Grupo 1174813" transform="translate(-2.5 -2.5)">
          <g id="Grupo_1201680" data-name="Grupo 1201680">
            <g id="Grupo_1201330" data-name="Grupo 1201330">
              <g id="Grupo_1172010" data-name="Grupo 1172010">
                <g id="Grupo_1171046" data-name="Grupo 1171046">
                  <g id="Grupo_1148525" data-name="Grupo 1148525">
                    <g transform="matrix(1, 0, 0, 1, -9, -6)" filter="url(#Trazado_982547)">
                      <g id="Trazado_982547-2" data-name="Trazado 982547" transform="translate(9 6)" fill="#fef4ec">
                        <path d="M 50 98.5 C 43.45188522338867 98.5 37.10042953491211 97.21787261962891 31.12207221984863 94.68923950195312 C 25.34691429138184 92.24655914306641 20.15997123718262 88.74931335449219 15.70532894134521 84.29468536376953 C 11.2506856918335 79.84004211425781 7.753442764282227 74.65309906005859 5.310757160186768 68.8779296875 C 2.782128572463989 62.89957046508789 1.5 56.54811477661133 1.5 50 C 1.5 43.45188522338867 2.782128572463989 37.10042953491211 5.310757160186768 31.12207221984863 C 7.753442764282227 25.34691429138184 11.2506856918335 20.15997123718262 15.70532894134521 15.70532894134521 C 20.15997123718262 11.2506856918335 25.34691429138184 7.753442764282227 31.12207221984863 5.310757160186768 C 37.10042953491211 2.782128572463989 43.45188522338867 1.5 50 1.5 C 56.54811477661133 1.5 62.89957046508789 2.782128572463989 68.8779296875 5.310757160186768 C 74.65309906005859 7.753442764282227 79.84004211425781 11.2506856918335 84.29468536376953 15.70532894134521 C 88.74931335449219 20.15997123718262 92.24655914306641 25.34691429138184 94.68923950195312 31.12207221984863 C 97.21787261962891 37.10042953491211 98.5 43.45188522338867 98.5 50 C 98.5 56.54811477661133 97.21787261962891 62.89957046508789 94.68923950195312 68.8779296875 C 92.24655914306641 74.65309906005859 88.74931335449219 79.84004211425781 84.29468536376953 84.29468536376953 C 79.84004211425781 88.74931335449219 74.65309906005859 92.24655914306641 68.8779296875 94.68923950195312 C 62.89957046508789 97.21787261962891 56.54811477661133 98.5 50 98.5 Z" stroke="none"/>
                        <path d="M 50 3 C 43.65372467041016 3 37.49886322021484 4.242263793945312 31.70639801025391 6.6922607421875 C 26.11003112792969 9.059326171875 21.08335113525391 12.44861602783203 16.76598358154297 16.76598358154297 C 12.44861602783203 21.08335113525391 9.059326171875 26.11003112792969 6.6922607421875 31.70639801025391 C 4.242263793945312 37.49886322021484 3 43.65372467041016 3 50 C 3 56.34627532958984 4.242263793945312 62.50113677978516 6.6922607421875 68.29360198974609 C 9.059326171875 73.88996887207031 12.44861602783203 78.91666412353516 16.76598358154297 83.23401641845703 C 21.08335113525391 87.55138397216797 26.11003112792969 90.940673828125 31.70639801025391 93.3077392578125 C 37.49886322021484 95.75773620605469 43.65372467041016 97 50 97 C 56.34627532958984 97 62.50113677978516 95.75773620605469 68.29360198974609 93.3077392578125 C 73.88996887207031 90.940673828125 78.91666412353516 87.55138397216797 83.23401641845703 83.23401641845703 C 87.55138397216797 78.91666412353516 90.940673828125 73.88996887207031 93.3077392578125 68.29360198974609 C 95.75773620605469 62.50113677978516 97 56.34627532958984 97 50 C 97 43.65372467041016 95.75773620605469 37.49886322021484 93.3077392578125 31.70639801025391 C 90.940673828125 26.11003112792969 87.55138397216797 21.08335113525391 83.23401641845703 16.76598358154297 C 78.91666412353516 12.44861602783203 73.88996887207031 9.059326171875 68.29360198974609 6.6922607421875 C 62.50113677978516 4.242263793945312 56.34627532958984 3 50 3 M 50 0 C 77.61424255371094 0 100 22.38577270507812 100 50 C 100 77.61424255371094 77.61424255371094 100 50 100 C 22.38577270507812 100 0 77.61424255371094 0 50 C 0 22.38577270507812 22.38577270507812 0 50 0 Z" stroke="none" fill="#fe9d52"/>
                      </g>
                    </g>
                  </g>
                </g>
              </g>
            </g>
          </g>
        </g>
      </g>
    </g>
    <g id="modelado-3d" transform="translate(766.027 1478.77)">
      <g id="Grupo_1219744" data-name="Grupo 1219744" transform="translate(20.881 1.327)">
        <path id="Trazado_1043394" data-name="Trazado 1043394" d="M159.674,27.136a12.312,12.312,0,0,0,1.615,3.886l-.843.843a1.141,1.141,0,0,0,0,1.606L162.7,35.72a1.141,1.141,0,0,0,1.611,0l.839-.839a12.277,12.277,0,0,0,3.889,1.61V37.68a1.141,1.141,0,0,0,1.141,1.136h3.181A1.141,1.141,0,0,0,174.5,37.68V36.492a12.277,12.277,0,0,0,3.889-1.61l.843.839a1.137,1.137,0,0,0,1.608,0l2.251-2.249a1.141,1.141,0,0,0,0-1.606l-.843-.843a12.313,12.313,0,0,0,1.615-3.886h1.19A1.14,1.14,0,0,0,186.189,26V22.818a1.14,1.14,0,0,0-1.137-1.136h-1.19a12.311,12.311,0,0,0-1.615-3.886l.843-.843a1.141,1.141,0,0,0,0-1.606L180.84,13.1a1.137,1.137,0,0,0-1.608,0l-.843.839a12.277,12.277,0,0,0-3.889-1.61V11.138A1.141,1.141,0,0,0,173.359,10h-3.181a1.141,1.141,0,0,0-1.141,1.136v1.189a12.277,12.277,0,0,0-3.889,1.61l-.84-.839a1.141,1.141,0,0,0-1.611,0l-2.251,2.249a1.141,1.141,0,0,0,0,1.606l.843.843a12.313,12.313,0,0,0-1.615,3.886h-1.19a1.14,1.14,0,0,0-1.137,1.136V26a1.14,1.14,0,0,0,1.137,1.136h1.19Zm12.1,4.145a7.057,7.057,0,1,1,7.059-7.057A7.058,7.058,0,0,1,171.77,31.281Z" transform="translate(-157.348 -10.002)" fill="#9ea6bf" fill-rule="evenodd"/>
      </g>
      <g id="Grupo_1219745" data-name="Grupo 1219745" transform="translate(6.628 36.254)">
        <path id="Trazado_1043395" data-name="Trazado 1043395" d="M57.228,273.192l-7.285,4.386a2.841,2.841,0,0,1,0,2.942l7.285,4.386a2.856,2.856,0,0,1,4.89,0L69.4,280.52a2.841,2.841,0,0,1,0-2.942l-7.285-4.386a2.856,2.856,0,0,1-4.89,0Z" transform="translate(-49.943 -273.192)" fill="#beece1" fill-rule="evenodd"/>
      </g>
      <g id="Grupo_1219746" data-name="Grupo 1219746" transform="translate(13.502 46.587)">
        <path id="Trazado_1043396" data-name="Trazado 1043396" d="M104.6,351.058a2.855,2.855,0,1,0,2.447,1.38A2.848,2.848,0,0,0,104.6,351.058Z" transform="translate(-101.745 -351.058)" fill="#bfdbff" fill-rule="evenodd"/>
      </g>
      <g id="Grupo_1219747" data-name="Grupo 1219747" transform="translate(1.327 39.26)">
        <path id="Trazado_1043397" data-name="Trazado 1043397" d="M12.854,295.84A2.852,2.852,0,0,0,10,298.676v.03a2.856,2.856,0,1,0,2.854-2.866Z" transform="translate(-10 -295.84)" fill="#bfdbff" fill-rule="evenodd"/>
      </g>
      <g id="Grupo_1219748" data-name="Grupo 1219748" transform="translate(13.502 31.932)">
        <path id="Trazado_1043398" data-name="Trazado 1043398" d="M104.6,240.622a2.849,2.849,0,1,0,2.857,2.851A2.853,2.853,0,0,0,104.6,240.622Z" transform="translate(-101.744 -240.622)" fill="#bfdbff" fill-rule="evenodd"/>
      </g>
      <g id="Grupo_1219749" data-name="Grupo 1219749" transform="translate(25.677 39.26)">
        <path id="Trazado_1043399" data-name="Trazado 1043399" d="M196.346,295.84a2.851,2.851,0,1,0,2.854,2.851A2.855,2.855,0,0,0,196.346,295.84Z" transform="translate(-193.489 -295.84)" fill="#bfdbff" fill-rule="evenodd"/>
      </g>
      <g id="Grupo_1219750" data-name="Grupo 1219750" transform="translate(16.356 43.582)">
        <path id="Trazado_1043400" data-name="Trazado 1043400" d="M132.98,328.41,125.7,332.8a2.849,2.849,0,0,1-2.447,4.322v8.622a2.855,2.855,0,0,1,2.447,1.381l7.285-4.382a2.852,2.852,0,0,1,2.447-4.326V329.79A2.854,2.854,0,0,1,132.98,328.41Z" transform="translate(-123.248 -328.41)" fill="#7dd9c2" fill-rule="evenodd"/>
      </g>
      <g id="Grupo_1219751" data-name="Grupo 1219751" transform="translate(25.677 53.584)">
        <path id="Trazado_1043401" data-name="Trazado 1043401" d="M196.346,403.782a2.853,2.853,0,1,0,2.854,2.851A2.854,2.854,0,0,0,196.346,403.782Z" transform="translate(-193.489 -403.782)" fill="#bfdbff" fill-rule="evenodd"/>
      </g>
      <g id="Grupo_1219752" data-name="Grupo 1219752" transform="translate(4.181 43.582)">
        <path id="Trazado_1043402" data-name="Trazado 1043402" d="M31.5,329.791v8.622a2.852,2.852,0,0,1,2.447,4.326l7.285,4.382a2.849,2.849,0,0,1,2.443-1.381v-8.622a2.849,2.849,0,0,1-2.443-4.322l-7.285-4.386A2.855,2.855,0,0,1,31.5,329.791Z" transform="translate(-31.504 -328.41)" fill="#7dd9c2" fill-rule="evenodd"/>
      </g>
      <g id="Grupo_1219753" data-name="Grupo 1219753" transform="translate(1.327 53.584)">
        <path id="Trazado_1043403" data-name="Trazado 1043403" d="M12.854,403.782A2.852,2.852,0,0,0,10,406.618v.03a2.856,2.856,0,1,0,2.854-2.866Z" transform="translate(-10 -403.782)" fill="#bfdbff" fill-rule="evenodd"/>
      </g>
      <g id="Grupo_1219754" data-name="Grupo 1219754" transform="translate(13.502 60.912)">
        <path id="Trazado_1043404" data-name="Trazado 1043404" d="M104.6,459a2.855,2.855,0,1,0,2.447,1.381A2.848,2.848,0,0,0,104.6,459Z" transform="translate(-101.745 -458.999)" fill="#bfdbff" fill-rule="evenodd"/>
      </g>
      <g id="Grupo_1219755" data-name="Grupo 1219755" transform="translate(42.069 34.87)">
        <path id="Trazado_1043405" data-name="Trazado 1043405" d="M329.186,262.761l-12.179,7.328,12.179,7.328,12.175-7.328Z" transform="translate(-317.007 -262.761)" fill="#beece1" fill-rule="evenodd"/>
      </g>
      <g id="Grupo_1219756" data-name="Grupo 1219756" transform="translate(42.069 42.197)">
        <path id="Trazado_1043406" data-name="Trazado 1043406" d="M317.007,317.978v14.328l12.179,7.328V325.306Z" transform="translate(-317.007 -317.978)" fill="#7dd9c2" fill-rule="evenodd"/>
      </g>
      <g id="Grupo_1219757" data-name="Grupo 1219757" transform="translate(54.247 42.197)">
        <path id="Trazado_1043407" data-name="Trazado 1043407" d="M420.955,317.978l-12.175,7.328v14.328l12.175-7.328Z" transform="translate(-408.78 -317.978)" fill="#7dd9c2" fill-rule="evenodd"/>
      </g>
      <g id="Grupo_1219758" data-name="Grupo 1219758" transform="translate(0 0)">
        <path id="Trazado_1043408" data-name="Trazado 1043408" d="M32.715,242.128a4.18,4.18,0,0,0-6.892-3.179l-5.384-3.241a4.182,4.182,0,1,0-8.164,0l-5.384,3.241a4.178,4.178,0,1,0-4.039,7.14v6.4a4.18,4.18,0,1,0,4.038,7.143l5.384,3.239a4.183,4.183,0,1,0,8.164,0l5.384-3.239a4.179,4.179,0,1,0,4.038-7.143v-6.4A4.185,4.185,0,0,0,32.715,242.128ZM28.534,240.6A1.524,1.524,0,1,1,27,242.128,1.527,1.527,0,0,1,28.534,240.6Zm-12.179-7.328a1.524,1.524,0,1,1-1.527,1.524,1.529,1.529,0,0,1,1.527-1.524Zm-8.091,7.945,5.383-3.241a4.174,4.174,0,0,0,5.419,0l5.384,3.241a4.143,4.143,0,0,0,0,1.815l-5.384,3.241a4.174,4.174,0,0,0-5.419,0l-5.383-3.241a4.143,4.143,0,0,0,0-1.815Zm9.621,8.235a1.528,1.528,0,1,1-1.53-1.524A1.529,1.529,0,0,1,17.886,249.456ZM2.654,242.128a1.528,1.528,0,1,1,1.527,1.524A1.527,1.527,0,0,1,2.654,242.128Zm1.527,15.852a1.526,1.526,0,1,1,1.53-1.528A1.529,1.529,0,0,1,4.181,257.981Zm4.083-.618a4.172,4.172,0,0,0-2.756-4.872v-6.4a4.183,4.183,0,0,0,1.384-.783l5.384,3.241a4.173,4.173,0,0,0,2.753,4.869v6.4a4.181,4.181,0,0,0-1.382.782Zm8.092,7.945a1.526,1.526,0,1,1,1.53-1.528A1.529,1.529,0,0,1,16.356,265.308Zm2.712-4.707a4.185,4.185,0,0,0-1.385-.783v-6.4a4.171,4.171,0,0,0,2.757-4.869l5.384-3.241a4.185,4.185,0,0,0,1.384.783v6.4a4.172,4.172,0,0,0-2.756,4.872Zm9.467-2.621a1.526,1.526,0,1,1,1.527-1.528A1.531,1.531,0,0,1,28.534,257.981Z" transform="translate(0 -200.017)"/>
        <path id="Trazado_1043409" data-name="Trazado 1043409" d="M169.616,27.98a2.44,2.44,0,0,0,1.739.725h.005a2.449,2.449,0,0,0,1.743-.721l2.251-2.249a2.47,2.47,0,0,0,0-3.484l-.121-.121a13.593,13.593,0,0,0,.973-2.342h.172a2.466,2.466,0,0,0,2.464-2.463V14.143a2.466,2.466,0,0,0-2.464-2.463h-.172a13.572,13.572,0,0,0-.973-2.342l.121-.121a2.469,2.469,0,0,0,0-3.484L173.1,3.484a2.45,2.45,0,0,0-1.743-.721h-.005a2.435,2.435,0,0,0-1.733.719L169.5,3.6a13.548,13.548,0,0,0-2.346-.973V2.463A2.468,2.468,0,0,0,164.685,0H161.5a2.468,2.468,0,0,0-2.468,2.463v.169a13.549,13.549,0,0,0-2.344.971l-.119-.119a2.47,2.47,0,0,0-3.487,0l-2.251,2.25a2.469,2.469,0,0,0,0,3.484l.121.121a13.586,13.586,0,0,0-.973,2.342h-.172a2.466,2.466,0,0,0-2.464,2.463v3.182a2.466,2.466,0,0,0,2.464,2.463h.172a13.576,13.576,0,0,0,.973,2.342l-.125.125a2.469,2.469,0,0,0,0,3.48l2.251,2.249a2.47,2.47,0,0,0,3.487,0l.119-.119a13.548,13.548,0,0,0,2.344.972v.169a2.468,2.468,0,0,0,2.468,2.463h3.181a2.468,2.468,0,0,0,2.468-2.463v-.169a13.554,13.554,0,0,0,2.347-.973Zm-4.079-1.459a1.327,1.327,0,0,0-1.038,1.3v1h-2.808v-1a1.327,1.327,0,0,0-1.038-1.3,10.929,10.929,0,0,1-3.469-1.437,1.327,1.327,0,0,0-1.647.183l-.707.707-1.983-1.982.708-.707a1.327,1.327,0,0,0,.182-1.65,10.95,10.95,0,0,1-1.441-3.467A1.327,1.327,0,0,0,151,17.134h-1v-2.8h1A1.327,1.327,0,0,0,152.3,13.3a10.951,10.951,0,0,1,1.441-3.467,1.327,1.327,0,0,0-.182-1.65l-.708-.707,1.983-1.982.707.707a1.327,1.327,0,0,0,1.647.183,10.929,10.929,0,0,1,3.469-1.437,1.327,1.327,0,0,0,1.038-1.3v-1H164.5v1a1.327,1.327,0,0,0,1.038,1.3,10.925,10.925,0,0,1,3.469,1.437,1.327,1.327,0,0,0,1.645-.181l.711-.707,1.982,1.98-.708.707a1.327,1.327,0,0,0-.182,1.65,10.948,10.948,0,0,1,1.441,3.467,1.327,1.327,0,0,0,1.294,1.034h1v2.8h-1a1.327,1.327,0,0,0-1.294,1.034,10.952,10.952,0,0,1-1.441,3.467,1.327,1.327,0,0,0,.182,1.65l.708.707-1.982,1.98-.711-.707a1.327,1.327,0,0,0-1.645-.181A10.93,10.93,0,0,1,165.537,26.521Z" transform="translate(-127.793 0)"/>
        <path id="Trazado_1043410" data-name="Trazado 1043410" d="M333.372,260.278,321.2,252.951a1.327,1.327,0,0,0-1.368,0l-12.179,7.328a1.342,1.342,0,0,0-.643,1.137v14.328a1.327,1.327,0,0,0,.643,1.137l12.179,7.328a1.342,1.342,0,0,0,1.368,0l12.175-7.328a1.327,1.327,0,0,0,.643-1.137V261.415a1.347,1.347,0,0,0-.643-1.137Zm-14.186,20.446-9.525-5.731V263.762l9.525,5.731Zm1.327-13.53-9.6-5.779,9.6-5.779,9.6,5.779Zm10.848,7.8-9.521,5.73v-11.23l9.521-5.73Z" transform="translate(-266.265 -219.218)"/>
        <path id="Trazado_1043411" data-name="Trazado 1043411" d="M211.2,54a8.384,8.384,0,1,0,8.386,8.384A8.4,8.4,0,0,0,211.2,54Zm0,14.114a5.73,5.73,0,1,1,5.732-5.73A5.739,5.739,0,0,1,211.2,68.113Z" transform="translate(-175.894 -46.833)"/>
        <path id="Trazado_1043412" data-name="Trazado 1043412" d="M412.12,100.424l-4.567-4.563a1.327,1.327,0,1,1,1.876-1.877l2.3,2.3V81.229h-5.694a1.327,1.327,0,1,1,0-2.654h7.021a1.327,1.327,0,0,1,1.327,1.327V96.282l2.3-2.3a1.327,1.327,0,1,1,1.877,1.877L414,100.424a1.234,1.234,0,0,1-1.877,0Z" transform="translate(-351.003 -68.148)"/>
        <path id="Trazado_1043413" data-name="Trazado 1043413" d="M34.518,55.238a1.327,1.327,0,0,0,1.327-1.327v-2.5h5.3l-2.3,2.293a1.327,1.327,0,0,0,1.876,1.878l4.563-4.559a1.341,1.341,0,0,0,0-1.877L40.731,44.58a1.327,1.327,0,0,0-1.877,1.877l2.3,2.3H34.518a1.327,1.327,0,0,0-1.327,1.327v3.829a1.327,1.327,0,0,0,1.327,1.327Z" transform="translate(-28.786 -38.327)"/>
        <path id="Trazado_1043414" data-name="Trazado 1043414" d="M34.518,203.764a1.327,1.327,0,0,0,1.327-1.327v-3.822a1.327,1.327,0,1,0-2.654,0v3.822A1.327,1.327,0,0,0,34.518,203.764Z" transform="translate(-28.786 -171.107)"/>
        <path id="Trazado_1043415" data-name="Trazado 1043415" d="M34.518,154.989a1.329,1.329,0,1,0-1.327-1.331v.008A1.324,1.324,0,0,0,34.518,154.989Z" transform="translate(-28.786 -132.116)"/>
      </g>
    </g>
  </g>
</svg>
