<svg xmlns="http://www.w3.org/2000/svg" xmlns:xlink="http://www.w3.org/1999/xlink" width="97.533" height="97.533" viewBox="0 0 97.533 97.533">
  <defs>
    <filter id="Trazado_982547" x="0" y="0" width="97.533" height="97.533" filterUnits="userSpaceOnUse">
      <feOffset dy="3" input="SourceAlpha"/>
      <feGaussianBlur stdDeviation="3" result="blur"/>
      <feFlood flood-opacity="0.161"/>
      <feComposite operator="in" in2="blur"/>
      <feComposite in="SourceGraphic"/>
    </filter>
  </defs>
  <g id="Grupo_1219796" data-name="Grupo 1219796" transform="translate(-190.467 -3655.594)">
    <g id="Grupo_1219607" data-name="Grupo 1219607" transform="translate(-0.5 -5684.406)">
      <g id="Grupo_1203356" data-name="Grupo 1203356" transform="translate(-0.5 2437.319)">
        <g id="Grupo_1202156" data-name="Grupo 1202156" transform="translate(-80.533 5497.679)">
          <g id="Grupo_1177900" data-name="Grupo 1177900" transform="translate(281 1411.003)">
            <g id="Grupo_1172010" data-name="Grupo 1172010" transform="translate(0)">
              <g id="Grupo_1171046" data-name="Grupo 1171046">
                <g id="Grupo_1148525" data-name="Grupo 1148525">
                  <g transform="matrix(1, 0, 0, 1, -9, -6)" filter="url(#Trazado_982547)">
                    <g id="Trazado_982547-2" data-name="Trazado 982547" transform="translate(9 6)" fill="#fdeffe">
                      <path d="M 39.7666015625 78.033203125 C 34.59997940063477 78.033203125 29.58870124816895 77.02164459228516 24.87196731567383 75.02663421630859 C 20.31538963317871 73.099365234375 16.22284507751465 70.34000396728516 12.70802402496338 66.82518005371094 C 9.193202018737793 63.31035614013672 6.433835029602051 59.21781158447266 4.506568431854248 54.66123580932617 C 2.511557102203369 49.94449996948242 1.500001549720764 44.93322372436523 1.500001549720764 39.7666015625 C 1.500001549720764 34.59997940063477 2.511557102203369 29.58870124816895 4.506568431854248 24.87196731567383 C 6.433835029602051 20.31538963317871 9.193202018737793 16.22284507751465 12.70802402496338 12.70802402496338 C 16.22284507751465 9.193202018737793 20.31538963317871 6.433835029602051 24.87196731567383 4.506568431854248 C 29.58870124816895 2.511557102203369 34.59997940063477 1.500001549720764 39.7666015625 1.500001549720764 C 44.93322372436523 1.500001549720764 49.94449996948242 2.511557102203369 54.66123580932617 4.506568431854248 C 59.21781158447266 6.433835029602051 63.31035614013672 9.193202018737793 66.82518005371094 12.70802402496338 C 70.34000396728516 16.22284507751465 73.099365234375 20.31538963317871 75.02663421630859 24.87196731567383 C 77.02164459228516 29.58870124816895 78.033203125 34.59997940063477 78.033203125 39.7666015625 C 78.033203125 44.93322372436523 77.02164459228516 49.94449996948242 75.02663421630859 54.66123580932617 C 73.099365234375 59.21781158447266 70.34000396728516 63.31035614013672 66.82518005371094 66.82518005371094 C 63.31035614013672 70.34000396728516 59.21781158447266 73.099365234375 54.66123580932617 75.02663421630859 C 49.94449996948242 77.02164459228516 44.93322372436523 78.033203125 39.7666015625 78.033203125 Z" stroke="none"/>
                      <path d="M 39.7666015625 3 C 34.80181503295898 3 29.98714065551758 3.971687316894531 25.45630264282227 5.888076782226562 C 21.07851409912109 7.739715576171875 17.146240234375 10.39113616943359 13.76869201660156 13.76869201660156 C 10.39113616943359 17.146240234375 7.739715576171875 21.07851409912109 5.888076782226562 25.45630264282227 C 3.971687316894531 29.98714065551758 3 34.80181503295898 3 39.7666015625 C 3 44.73138809204102 3.971687316894531 49.54606628417969 5.888076782226562 54.076904296875 C 7.739715576171875 58.45468902587891 10.39113616943359 62.386962890625 13.76869201660156 65.76451110839844 C 17.146240234375 69.14206695556641 21.07851409912109 71.79348754882812 25.45630264282227 73.64512634277344 C 29.98714065551758 75.56151580810547 34.80181503295898 76.533203125 39.7666015625 76.533203125 C 44.73138809204102 76.533203125 49.54606628417969 75.56151580810547 54.076904296875 73.64512634277344 C 58.45468902587891 71.79348754882812 62.386962890625 69.14206695556641 65.76451110839844 65.76451110839844 C 69.14206695556641 62.386962890625 71.79348754882812 58.45468902587891 73.64512634277344 54.076904296875 C 75.56151580810547 49.54606628417969 76.533203125 44.73138809204102 76.533203125 39.7666015625 C 76.533203125 34.80181503295898 75.56151580810547 29.98714065551758 73.64512634277344 25.45630264282227 C 71.79348754882812 21.07851409912109 69.14206695556641 17.146240234375 65.76451110839844 13.76869201660156 C 62.386962890625 10.39113616943359 58.45468902587891 7.739715576171875 54.076904296875 5.888076782226562 C 49.54606628417969 3.971687316894531 44.73138809204102 3 39.7666015625 3 M 39.7666015625 0 C 61.72908782958984 0 79.533203125 17.80411529541016 79.533203125 39.7666015625 C 79.533203125 61.72908782958984 61.72908782958984 79.533203125 39.7666015625 79.533203125 C 17.80411529541016 79.533203125 0 61.72908782958984 0 39.7666015625 C 0 17.80411529541016 17.80411529541016 0 39.7666015625 0 Z" stroke="none" fill="#ee70f7"/>
                    </g>
                  </g>
                </g>
              </g>
            </g>
          </g>
        </g>
      </g>
    </g>
    <g id="investigacion-de-mercado" transform="translate(212.352 3676.735)">
      <g id="Grupo_1219794" data-name="Grupo 1219794" transform="translate(0.786 0.786)">
        <g id="Grupo_1219773" data-name="Grupo 1219773" transform="translate(40.859 9.429)">
          <path id="Trazado_1043445" data-name="Trazado 1043445" d="M58.885,15.326l.4,2.389H53l.4-2.389a2.781,2.781,0,0,1,4.542-1.666A2.741,2.741,0,0,1,58.885,15.326Z" transform="translate(-53 -13)" fill="#e6e9ed"/>
        </g>
        <g id="Grupo_1219774" data-name="Grupo 1219774" transform="translate(31.43 20.429)">
          <path id="Trazado_1043446" data-name="Trazado 1043446" d="M46.885,29.326l.4,2.389H41l.4-2.389a2.781,2.781,0,0,1,4.542-1.666A2.741,2.741,0,0,1,46.885,29.326Z" transform="translate(-41 -27)" fill="#b4dd7f"/>
        </g>
        <g id="Grupo_1219775" data-name="Grupo 1219775" transform="translate(22.001 34.573)">
          <path id="Trazado_1043447" data-name="Trazado 1043447" d="M34.885,47.326l.4,2.389H29l.4-2.389a2.781,2.781,0,0,1,4.542-1.666A2.741,2.741,0,0,1,34.885,47.326Z" transform="translate(-29 -45)" fill="#fcd770"/>
        </g>
        <g id="Grupo_1219776" data-name="Grupo 1219776" transform="translate(40.859 17.286)">
          <path id="Trazado_1043448" data-name="Trazado 1043448" d="M59.286,23.786V52.858H53V23.786A.788.788,0,0,1,53.786,23H58.5A.788.788,0,0,1,59.286,23.786Z" transform="translate(-53 -23)" fill="#ff826e"/>
        </g>
        <g id="Grupo_1219777" data-name="Grupo 1219777" transform="translate(31.43 28.287)">
          <path id="Trazado_1043449" data-name="Trazado 1043449" d="M47.286,37.786V55.858H41V37.786A.788.788,0,0,1,41.786,37H46.5A.788.788,0,0,1,47.286,37.786Z" transform="translate(-41 -37)" fill="#ff826e"/>
        </g>
        <g id="Grupo_1219778" data-name="Grupo 1219778" transform="translate(22.001 42.43)">
          <path id="Trazado_1043450" data-name="Trazado 1043450" d="M35.286,55.786v3.929H29V55.786A.788.788,0,0,1,29.786,55H34.5A.788.788,0,0,1,35.286,55.786Z" transform="translate(-29 -55)" fill="#ff826e"/>
        </g>
        <g id="Grupo_1219779" data-name="Grupo 1219779" transform="translate(40.859 6.286)">
          <path id="Trazado_1043451" data-name="Trazado 1043451" d="M59.286,9A3.143,3.143,0,1,1,53,9Z" transform="translate(-53 -9)" fill="#f0d0b4"/>
        </g>
        <g id="Grupo_1219780" data-name="Grupo 1219780" transform="translate(31.43 17.286)">
          <path id="Trazado_1043452" data-name="Trazado 1043452" d="M41,23h6.286A3.143,3.143,0,0,1,41,23Z" transform="translate(-41 -23)" fill="#f0d0b4"/>
        </g>
        <g id="Grupo_1219781" data-name="Grupo 1219781" transform="translate(22.001 31.43)">
          <path id="Trazado_1043453" data-name="Trazado 1043453" d="M29,41h6.286A3.143,3.143,0,0,1,29,41Z" transform="translate(-29 -41)" fill="#f0d0b4"/>
        </g>
        <g id="Grupo_1219782" data-name="Grupo 1219782" transform="translate(31.43 14.143)">
          <path id="Trazado_1043454" data-name="Trazado 1043454" d="M41,22.143a3.143,3.143,0,1,1,6.286,0Z" transform="translate(-41 -19)" fill="#656d78"/>
        </g>
        <g id="Grupo_1219783" data-name="Grupo 1219783" transform="translate(40.859 3.143)">
          <path id="Trazado_1043455" data-name="Trazado 1043455" d="M53,8.143a3.143,3.143,0,1,1,6.286,0Z" transform="translate(-53 -5)" fill="#b27946"/>
        </g>
        <g id="Grupo_1219784" data-name="Grupo 1219784" transform="translate(22.001 28.287)">
          <path id="Trazado_1043456" data-name="Trazado 1043456" d="M29,40.143a3.143,3.143,0,0,1,6.286,0Z" transform="translate(-29 -37)" fill="#b27946"/>
        </g>
        <g id="Grupo_1219785" data-name="Grupo 1219785" transform="translate(11)">
          <path id="Trazado_1043457" data-name="Trazado 1043457" d="M15,5.714V2.571A1.576,1.576,0,0,1,16.571,1H35.429A1.576,1.576,0,0,1,37,2.571V5.714a1.576,1.576,0,0,1-1.571,1.571H27.572l-.6,2.381a1,1,0,0,1-1.949,0l-.6-2.381H16.571A1.576,1.576,0,0,1,15,5.714Z" transform="translate(-15 -1)" fill="#ffeaa7"/>
        </g>
        <g id="Grupo_1219786" data-name="Grupo 1219786" transform="translate(0 34.573)">
          <path id="Trazado_1043458" data-name="Trazado 1043458" d="M4.143,53.643v.786H1V45H3.357a.788.788,0,0,1,.786.786Z" transform="translate(-1 -45)" fill="#fcd770"/>
        </g>
        <g id="Grupo_1219787" data-name="Grupo 1219787" transform="translate(14.143 40.859)">
          <path id="Trazado_1043459" data-name="Trazado 1043459" d="M20.572,53h1.571a1.576,1.576,0,0,1,1.571,1.572,1.583,1.583,0,0,1-1.571,1.571H20.572A1.576,1.576,0,0,1,19,54.572,1.583,1.583,0,0,1,20.572,53Z" transform="translate(-19 -53)" fill="#f0d0b4"/>
        </g>
        <g id="Grupo_1219788" data-name="Grupo 1219788" transform="translate(14.143 37.716)">
          <path id="Trazado_1043460" data-name="Trazado 1043460" d="M20.572,49h1.571a1.576,1.576,0,0,1,1.571,1.571,1.583,1.583,0,0,1-1.571,1.571H20.572A1.576,1.576,0,0,1,19,50.572,1.583,1.583,0,0,1,20.572,49Z" transform="translate(-19 -49)" fill="#f0d0b4"/>
        </g>
        <g id="Grupo_1219789" data-name="Grupo 1219789" transform="translate(14.143 34.573)">
          <path id="Trazado_1043461" data-name="Trazado 1043461" d="M22.143,45a1.576,1.576,0,0,1,1.571,1.571,1.583,1.583,0,0,1-1.571,1.571H20.572A1.576,1.576,0,0,1,19,46.571a1.536,1.536,0,0,1,.464-1.108,1.578,1.578,0,0,1,.794-.432A1.377,1.377,0,0,1,20.572,45Z" transform="translate(-19 -45)" fill="#f0d0b4"/>
        </g>
        <g id="Grupo_1219790" data-name="Grupo 1219790" transform="translate(3.143 31.43)">
          <path id="Trazado_1043462" data-name="Trazado 1043462" d="M12.857,52.786v2.357H10.689A8.054,8.054,0,0,1,5,52.786V44.929A8.091,8.091,0,0,1,11.938,41h6.42a.788.788,0,0,1,.786.786,2.352,2.352,0,0,1-.691,1.666,2.31,2.31,0,0,1-1.2.644,2.263,2.263,0,0,1-.464.047H14.429a5.448,5.448,0,0,1-1.571,1.713Z" transform="translate(-5 -41)" fill="#f0d0b4"/>
        </g>
        <g id="Grupo_1219791" data-name="Grupo 1219791" transform="translate(11 34.526)">
          <path id="Trazado_1043463" data-name="Trazado 1043463" d="M15,46.7a5.448,5.448,0,0,0,1.571-1.713h2.357a2.264,2.264,0,0,0,.464-.047l.008.079a1.578,1.578,0,0,0-.794.432,1.536,1.536,0,0,0-.464,1.108,1.576,1.576,0,0,0,1.571,1.572A1.583,1.583,0,0,0,18.143,49.7a1.576,1.576,0,0,0,1.571,1.572,1.583,1.583,0,0,0-1.571,1.571,1.576,1.576,0,0,0,1.571,1.572v1.572a1.576,1.576,0,0,1-1.571,1.571H16.571A1.576,1.576,0,0,1,15,55.988V46.7Z" transform="translate(-15 -44.94)" fill="#969faa"/>
        </g>
        <g id="Grupo_1219792" data-name="Grupo 1219792" transform="translate(1.571 9.429)">
          <path id="Trazado_1043464" data-name="Trazado 1043464" d="M14,35A11,11,0,1,1,25,24,11,11,0,0,1,14,35Z" transform="translate(-3 -13)" fill="#ccd1d9"/>
        </g>
        <g id="Grupo_1219793" data-name="Grupo 1219793" transform="translate(4.714 12.572)">
          <circle id="Elipse_12646" data-name="Elipse 12646" cx="7.857" cy="7.857" r="7.857" fill="#69d6f4"/>
        </g>
      </g>
      <g id="Grupo_1219795" data-name="Grupo 1219795">
        <path id="Trazado_1043465" data-name="Trazado 1043465" d="M25.144,23.786A11.786,11.786,0,1,0,8.28,34.406a8.944,8.944,0,0,0-4.362,2.95,1.548,1.548,0,0,0-.775-.213H0v11H4.6A8.768,8.768,0,0,0,9.62,49.716h1.526a2.354,2.354,0,0,0,2.213,1.571H14.93a2.36,2.36,0,0,0,2.357-2.357v-.786h.786a2.347,2.347,0,0,0,1.744-3.929,2.321,2.321,0,0,0,0-3.143A2.338,2.338,0,0,0,18.4,37.178a3.122,3.122,0,0,0,.454-1.605,1.565,1.565,0,0,0-.489-1.134,11.791,11.791,0,0,0,6.775-10.652Zm-22,22.787H1.571V38.715H3.143Zm11.786,3.143H13.358a.786.786,0,0,1-.786-.786V40.053a4.975,4.975,0,0,0,1.244-1.337h.472a2.285,2.285,0,0,0,.468,2.357,2.321,2.321,0,0,0,0,3.143A2.336,2.336,0,0,0,15.715,48v.93A.786.786,0,0,1,14.929,49.716Zm3.929-7.072a.786.786,0,0,1-.786.786H16.5a.786.786,0,1,1,0-1.571h1.571A.786.786,0,0,1,18.858,42.644Zm-.786,3.929H16.5A.786.786,0,1,1,16.5,45h1.571a.786.786,0,1,1,0,1.571Zm.786-7.072a.786.786,0,0,1-.786.786H16.5a.786.786,0,1,1,0-1.571h1.571A.786.786,0,0,1,18.858,39.5Zm-1.571-3.929a1.573,1.573,0,0,1-1.571,1.571H12.872l-.217.435a3.435,3.435,0,0,1-2,1.733l-.691.23.5,1.49L11,40.853V44.4a8.056,8.056,0,0,0-2.895-1.712l-.5,1.49a6.5,6.5,0,0,1,3.33,2.543l.062.094v1.333H9.619a7.205,7.205,0,0,1-4.9-1.918V38.958a7.339,7.339,0,0,1,6.153-3.386ZM13.358,34A10.215,10.215,0,1,1,23.572,23.786,10.227,10.227,0,0,1,13.358,34Z" transform="translate(0 -2.571)"/>
        <path id="Trazado_1043466" data-name="Trazado 1043466" d="M14.643,16a8.643,8.643,0,1,0,8.643,8.643A8.653,8.653,0,0,0,14.643,16Zm0,15.715a7.072,7.072,0,1,1,7.072-7.072A7.079,7.079,0,0,1,14.643,31.715Z" transform="translate(-1.286 -3.428)"/>
        <path id="Trazado_1043467" data-name="Trazado 1043467" d="M18,4h1.571V5.571H18Z" transform="translate(-3.857 -0.857)"/>
        <path id="Trazado_1043468" data-name="Trazado 1043468" d="M22,4h1.572V5.571H22Z" transform="translate(-4.714 -0.857)"/>
        <path id="Trazado_1043469" data-name="Trazado 1043469" d="M26,4h1.571V5.571H26Z" transform="translate(-5.571 -0.857)"/>
        <path id="Trazado_1043470" data-name="Trazado 1043470" d="M30,4h1.571V5.571H30Z" transform="translate(-6.428 -0.857)"/>
        <path id="Trazado_1043471" data-name="Trazado 1043471" d="M34,4h1.571V5.571H34Z" transform="translate(-7.285 -0.857)"/>
        <path id="Trazado_1043472" data-name="Trazado 1043472" d="M38,4h1.572V5.571H38Z" transform="translate(-8.142 -0.857)"/>
        <path id="Trazado_1043473" data-name="Trazado 1043473" d="M16.357,7.857H23.6l.446,1.786a1.791,1.791,0,0,0,3.476,0l.446-1.785h7.245A2.36,2.36,0,0,0,37.572,5.5V2.357A2.36,2.36,0,0,0,35.215,0H16.357A2.36,2.36,0,0,0,14,2.357V5.5a2.36,2.36,0,0,0,2.357,2.357Zm-.786-5.5a.786.786,0,0,1,.786-.786H35.215A.786.786,0,0,1,36,2.357V5.5a.786.786,0,0,1-.786.786h-8.47L26,9.262a.23.23,0,0,1-.428,0l-.745-2.976h-8.47a.786.786,0,0,1-.786-.786Z" transform="translate(-3)"/>
        <path id="Trazado_1043474" data-name="Trazado 1043474" d="M52.371,13.268l-.552,3.3H59.96l-.551-3.3a3.554,3.554,0,0,0-1.235-2.156,3.929,3.929,0,1,0-4.568,0A3.554,3.554,0,0,0,52.371,13.268Zm3.519-7.7A2.354,2.354,0,0,1,58.1,7.143H53.678A2.352,2.352,0,0,1,55.89,5.571ZM53.677,8.714H58.1a2.343,2.343,0,0,1-4.425,0Zm4.183,4.811L58.1,15H53.674l.246-1.475a2,2,0,0,1,3.94,0Z" transform="translate(-11.102 -0.857)"/>
        <path id="Trazado_1043475" data-name="Trazado 1043475" d="M39.961,21.929a3.919,3.919,0,0,0,1.645,3.183,3.554,3.554,0,0,0-1.235,2.156l-.552,3.3H47.96l-.551-3.3a3.554,3.554,0,0,0-1.235-2.156,3.924,3.924,0,1,0-6.213-3.183Zm5.9,5.6L46.1,29H41.674l.246-1.475a2,2,0,0,1,3.94,0Zm-4.183-4.811H46.1a2.343,2.343,0,0,1-4.425,0Zm2.213-3.143A2.354,2.354,0,0,1,46.1,21.143H41.678A2.352,2.352,0,0,1,43.89,19.571Z" transform="translate(-8.531 -3.857)"/>
        <path id="Trazado_1043476" data-name="Trazado 1043476" d="M53.144,22H48.429a1.573,1.573,0,0,0-1.571,1.572V51.858H45.286V34.572A1.573,1.573,0,0,0,43.715,33H39a1.573,1.573,0,0,0-1.571,1.572V51.858H35.857V48.715a1.573,1.573,0,0,0-1.571-1.571H29.571A1.573,1.573,0,0,0,28,48.715V53.43H54.715V23.572A1.573,1.573,0,0,0,53.144,22ZM34.286,51.858H29.571V48.715h4.714ZM39,34.572h4.714V51.858H39ZM53.144,51.858H48.429V23.572h4.714Z" transform="translate(-5.999 -4.714)"/>
        <path id="Trazado_1043477" data-name="Trazado 1043477" d="M28.371,45.268l-.552,3.3H35.96l-.551-3.3a3.554,3.554,0,0,0-1.235-2.156,3.929,3.929,0,1,0-4.568,0A3.554,3.554,0,0,0,28.371,45.268Zm3.519-7.7A2.354,2.354,0,0,1,34.1,39.143H29.678A2.352,2.352,0,0,1,31.89,37.571Zm-2.213,3.143H34.1a2.343,2.343,0,0,1-4.425,0Zm4.183,4.811L34.1,47H29.674l.246-1.475a2,2,0,0,1,3.94,0Z" transform="translate(-5.96 -7.713)"/>
      </g>
    </g>
  </g>
</svg>
