<svg xmlns="http://www.w3.org/2000/svg" width="440.309" height="298.092" viewBox="0 0 440.309 298.092">
  <g id="Grupo_1219739" data-name="Grupo 1219739" transform="translate(-919.072 -756.083)">
    <g id="Grupo_1203436" data-name="Grupo 1203436" transform="translate(919.072 758.083)">
      <path id="Trazado_978539" data-name="Trazado 978539" d="M53.825,170.644H176.5A122.679,122.679,0,0,0,53.825,47.965Z" transform="translate(-53.825 125.448)" fill="#b0d5f0"/>
      <path id="Trazado_978538" data-name="Trazado 978538" d="M0,69.245A69.244,69.244,0,1,0,69.245,0,69.245,69.245,0,0,0,0,69.245" transform="translate(301.822 -2)" fill="#fe9d52"/>
      <g id="Grupo_1144099" data-name="Grupo 1144099" transform="translate(420.222 64.79)">
        <path id="Trazado_978540" data-name="Trazado 978540" d="M0,0,6.284,3.867,11.843,0l6.043,3.625L23.445,0l6.767,3.625L36.013,0" transform="translate(0 36.013) rotate(-90)" fill="none" stroke="#205277" stroke-miterlimit="10" stroke-width="2.314"/>
        <path id="Trazado_978541" data-name="Trazado 978541" d="M0,0,6.284,3.867,11.843,0l6.043,3.625L23.445,0l6.767,3.625L36.013,0" transform="translate(0 70.417) rotate(-90)" fill="none" stroke="#205277" stroke-miterlimit="10" stroke-width="2.314"/>
        <path id="Trazado_978542" data-name="Trazado 978542" d="M0,0,6.284,3.867,11.843,0l6.043,3.625L23.445,0l6.767,3.625L36.013,0" transform="translate(0 105.821) rotate(-90)" fill="none" stroke="#205277" stroke-miterlimit="10" stroke-width="2.314"/>
      </g>
      <path id="Trazado_994298" data-name="Trazado 994298" d="M0,0H297.7V272.5H0Z" transform="translate(17.301 9.247)" fill="none" stroke="#205277" stroke-width="2.365"/>
      <g id="Grupo_1178330" data-name="Grupo 1178330">
        <line id="Línea_622" data-name="Línea 622" x1="22.509" y1="22.509" transform="translate(202.07 270.014)" fill="none" stroke="#205277" stroke-miterlimit="10" stroke-width="2.314"/>
        <line id="Línea_623" data-name="Línea 623" x1="22.509" y1="22.509" transform="translate(182.729 270.014)" fill="none" stroke="#205277" stroke-miterlimit="10" stroke-width="2.314"/>
        <line id="Línea_624" data-name="Línea 624" x1="22.509" y1="22.509" transform="translate(163.572 270.014)" fill="none" stroke="#205277" stroke-miterlimit="10" stroke-width="2.314"/>
      </g>
      <path id="Trazado_978543" data-name="Trazado 978543" d="M176.945,0H0V171.037H176.945Z" transform="translate(0 125.056)" fill="none"/>
      <rect id="group-smart-businesspeople-presented-business-strategy-investor-tracery" width="379.473" height="234.798" transform="translate(31.928 27.917)" fill="#7399c6"/>
    </g>
    <path id="Trazado_1043710" data-name="Trazado 1043710" d="M240.453,68.407h-9.2V32.153h8.658v4.058a8.7,8.7,0,0,1,7.3-4.87c5.953-.27,10.011,3.248,10.011,10.822V68.406H247.76V41.082c0-3.248,0-5.952-2.167-6.494a3.939,3.939,0,0,0-3.248.81c-1.354,1.354-1.894,2.976-1.894,5.683l0,27.325ZM84.074,34.588a12.188,12.188,0,0,0-8.116-3.248c-3.246,0-5.682,1.354-8.116,3.248-3.788,3.246-6.224,9.2-6.224,15.692,0,6.764,2.436,12.444,6.224,15.692,2.434,1.894,4.87,3.246,8.116,3.246a12.187,12.187,0,0,0,8.116-3.246c4.06-3.248,6.224-8.929,6.224-15.692,0-6.494-2.166-12.446-6.224-15.692ZM80.557,50.28c0,6.764,0,12.175-1.082,14.88a3.627,3.627,0,0,1-3.518,2.164,3.262,3.262,0,0,1-3.246-2.164c-1.354-2.706-1.354-8.118-1.354-14.88,0-6.494,0-12.175,1.354-14.881a3.262,3.262,0,0,1,3.246-2.164A3.624,3.624,0,0,1,79.474,35.4C80.828,38.1,80.557,43.786,80.557,50.28ZM178.5,82.2v9.74H176.6c-1.084-4.056-2.707-7.574-7.037-7.846-2.7-.268-5.14,1.354-5.41,3.788s.543,4.6,5.41,7.3c6.224,3.518,11.093,5.142,11.093,12.446,0,7.846-6.764,11.634-12.444,11.634H157.394V105.741h1.894c1.354,7.034,3.518,11.364,8.661,11.634,3.244,0,5.68-1.894,5.68-5.412s-2.167-5.682-7.307-8.658c-5.68-3.518-9.2-5.682-9.2-10.552,0-6.494,4.6-10.552,11.9-10.552,2.434,0,9.471,0,9.471,0Zm11.9-13.8V42.162c0-7.574-4.06-11.092-10.011-10.822a9.142,9.142,0,0,0-7.577,5.14c-1.354-3.786-4.326-5.41-8.658-5.14a8.709,8.709,0,0,0-7.3,4.87V32.153h-8.388V68.407h9.2V41.082c0-2.707.273-4.33,1.894-5.683a3.4,3.4,0,0,1,2.978-.81c2.167.54,2.167,3.246,2.167,6.494V68.407h9.2v-27.6c0-2.437.54-4.06,1.894-5.413a3.4,3.4,0,0,1,2.978-.81c2.164.54,2.434,3.246,2.434,6.494V68.407h9.2ZM96.52,24.579h9.47V68.407H96.52Zm43.018,43.829V24.579h-9.47v10.28a5.568,5.568,0,0,0-5.41-3.246c-6.764,0-12.175,7.034-12.446,17.856-.27,7.306,2.164,19.479,11.634,19.479a7.043,7.043,0,0,0,6.764-4.056v3.518h8.928v0ZM128.445,35.129c1.894,2.706,1.894,9.2,1.894,14.338,0,5.412.27,12.446-1.894,15.422a3.4,3.4,0,0,1-2.978,1.622c-1.892,0-2.976-2.164-3.518-5.682-.27-3.248-.27-7.306-.27-11.634,0-7.3.54-15.422,4.058-15.422A3.347,3.347,0,0,1,128.445,35.129Zm90.093-1.894c2.437,1.354,4.06,3.518,4.06,8.388V68.407h-8.931V64.349c-1.08,2.976-4.056,4.87-8.118,4.87-3.248,0-8.928-1.622-8.928-10.01,0-7.846,5.143-9.47,10.823-11.9,5.14-2.164,5.68-2.436,5.68-4.6V36.754c0-2.434-1.354-3.518-4.056-3.518-1.084.27-2.978.81-2.978,2.164-.27,1.624,1.624,1.624,1.894,4.06.27,3.788-2.707,5.14-5.41,4.87a4.163,4.163,0,0,1-4.33-4.058c-.27-4.871,5.14-8.929,12.717-8.929a14.123,14.123,0,0,1,7.576,1.892Zm-5.41,13.528-2.978,1.894c-2.974,1.894-3.518,4.328-3.786,7.034a32.617,32.617,0,0,0,0,7.3c.27,2.976,2.164,3.518,3.786,2.976,1.9-.812,2.978-4.328,2.978-8.118V46.762ZM84.616,83.829c2.436,1.622,3.788,3.516,3.788,8.386v27.057H79.746v-4.058c-1.084,2.706-4.058,4.6-8.118,4.6-3.518,0-8.928-1.352-8.928-9.74,0-7.846,5.142-9.47,10.552-11.9s5.952-2.706,5.952-4.6V87.617c0-2.706-1.352-3.786-4.058-3.518-1.084,0-2.976.542-2.976,1.894-.27,1.894,1.622,1.894,1.892,4.328.272,3.518-2.7,4.87-5.408,4.87a4.628,4.628,0,0,1-4.33-4.328c-.27-4.6,5.14-8.658,12.716-8.658,3.516,0,5.682.542,7.576,1.624ZM79.2,97.356,76.228,99.25c-2.976,1.894-3.518,4.328-3.788,7.034a32.794,32.794,0,0,0,0,7.3c0,3.248,1.894,3.788,3.518,2.976,2.164-.812,3.246-4.058,3.246-8.116Zm70.886-4.33c0-7.576-4.06-11.364-10.011-10.822a9.227,9.227,0,0,0-6.765,3.518V75.173h-9.2v24.891c0,9.2-6.494,17.856-12.986,17.586-4.6,0-5.682-3.518-6.224-7.306a82.181,82.181,0,0,1-.27-18.4c.542-4.328,1.624-7.846,4.871-7.846,2.434,0,2.706,1.624,1.622,2.706-1.084,1.354-2.706,2.706-1.894,5.682.81,3.248,5.952,3.788,8.386,1.354,1.894-2.164,1.624-5.682.27-7.846-1.624-2.706-4.328-3.788-8.386-3.788-5.142,0-14.881,4.6-14.881,19.209,0,15.692,10.01,18.4,15.692,18.4,6.494,0,12.175-5.68,13.8-10.282v9.741h9.2V91.943c0-2.7.542-4.328,1.894-5.682a3.931,3.931,0,0,1,3.248-.81c2.166.54,2.166,3.246,2.166,6.492V119.27h9.47V93.027h0ZM55.4,23.765V39.187H53.5c-1.624-7.576-5.14-13.257-10.011-13.528-3.246-.27-5.14,1.622-6.764,4.33C35.1,33.235,34.292,40,34.292,48.114c0,7.576.27,13.257,1.082,17.315.54,1.894,1.894,4.871,5.412,4.871a4.748,4.748,0,0,0,4.058-1.624c1.352-1.624,1.622-4.87,1.622-7.034v-7.3c0-2.706-.81-4.33-2.164-5.14-1.082-.542-2.706-.542-3.518-.812V46.494h15.15V85.183H54.04a31.208,31.208,0,0,0-2.706-7.576c-1.352-2.434-3.788-5.14-7.846-5.14-4.328-.27-7.576,2.436-7.576,6.492,0,5.412,3.248,6.764,9.2,10.011C50.794,92.216,58.1,94.922,58.1,104.392c0,9.2-7.846,14.881-16.774,14.881H26.986V100.6H28.88c2.436,14.068,8.388,16.5,12.447,16.5,5.138,0,7.574-3.248,7.574-7.846-.27-5.952-4.328-8.116-10.011-11.092-8.114-4.6-11.9-6.765-11.9-14.338.27-6.5,5.412-10.552,11.092-12.175-11.9-1.352-15.422-12.174-15.15-23.809,0-11.634,6.764-24.079,20.02-24.079l12.447,0Z" transform="translate(1000.086 835.316)" fill="#fff" fill-rule="evenodd"/>
  </g>
</svg>
