<svg xmlns="http://www.w3.org/2000/svg" xmlns:xlink="http://www.w3.org/1999/xlink" width="98" height="98" viewBox="0 0 98 98">
  <defs>
    <filter id="Trazado_982547" x="0" y="0" width="98" height="98" filterUnits="userSpaceOnUse">
      <feOffset dy="3" input="SourceAlpha"/>
      <feGaussianBlur stdDeviation="3" result="blur"/>
      <feFlood flood-opacity="0.161"/>
      <feComposite operator="in" in2="blur"/>
      <feComposite in="SourceGraphic"/>
    </filter>
  </defs>
  <g id="Grupo_1219726" data-name="Grupo 1219726" transform="translate(-203 -440)">
    <g id="Grupo_1203359" data-name="Grupo 1203359" transform="translate(-75 -2982.045)">
      <g id="Grupo_1178491" data-name="Grupo 1178491" transform="translate(287 3428.045)">
        <g id="Grupo_1172010" data-name="Grupo 1172010" transform="translate(0)">
          <g id="Grupo_1171046" data-name="Grupo 1171046">
            <g id="Grupo_1148525" data-name="Grupo 1148525">
              <g transform="matrix(1, 0, 0, 1, -9, -6)" filter="url(#Trazado_982547)">
                <g id="Trazado_982547-2" data-name="Trazado 982547" transform="translate(9 6)" fill="#fdeffe">
                  <path d="M 40 78.5 C 34.80187606811523 78.5 29.76003265380859 77.48227691650391 25.01452255249023 75.47509765625 C 20.43014526367188 73.53606414794922 16.31264495849609 70.75986480712891 12.77638912200928 67.22360992431641 C 9.240133285522461 63.68735504150391 6.46393346786499 59.56985473632812 4.524899959564209 54.98547744750977 C 2.517722129821777 50.23996734619141 1.5 45.19812393188477 1.5 40 C 1.5 34.80187606811523 2.517722129821777 29.76003265380859 4.524899959564209 25.01452255249023 C 6.46393346786499 20.43014526367188 9.240133285522461 16.31264495849609 12.77638912200928 12.77638912200928 C 16.31264495849609 9.240133285522461 20.43014526367188 6.46393346786499 25.01452255249023 4.524899959564209 C 29.76003265380859 2.517722129821777 34.80187606811523 1.5 40 1.5 C 45.19812393188477 1.5 50.23996734619141 2.517722129821777 54.98547744750977 4.524899959564209 C 59.56985473632812 6.46393346786499 63.68735504150391 9.240133285522461 67.22360992431641 12.77638912200928 C 70.75986480712891 16.31264495849609 73.53606414794922 20.43014526367188 75.47509765625 25.01452255249023 C 77.48227691650391 29.76003265380859 78.5 34.80187606811523 78.5 40 C 78.5 45.19812393188477 77.48227691650391 50.23996734619141 75.47509765625 54.98547744750977 C 73.53606414794922 59.56985473632812 70.75986480712891 63.68735504150391 67.22360992431641 67.22360992431641 C 63.68735504150391 70.75986480712891 59.56985473632812 73.53606414794922 54.98547744750977 75.47509765625 C 50.23996734619141 77.48227691650391 45.19812393188477 78.5 40 78.5 Z" stroke="none"/>
                  <path d="M 40 3 C 35.00370788574219 3 30.15846633911133 3.977851867675781 25.59885406494141 5.906410217285156 C 21.19327926635742 7.769813537597656 17.23603820800781 10.43806457519531 13.83705139160156 13.83705139160156 C 10.43806457519531 17.23603820800781 7.769813537597656 21.19327926635742 5.906410217285156 25.59885406494141 C 3.977851867675781 30.15846633911133 3 35.00370788574219 3 40 C 3 44.99629211425781 3.977851867675781 49.84153366088867 5.906410217285156 54.40114593505859 C 7.769813537597656 58.80672073364258 10.43806457519531 62.76396179199219 13.83705139160156 66.16294860839844 C 17.23603820800781 69.56193542480469 21.19327926635742 72.23018646240234 25.59885406494141 74.09358978271484 C 30.15846633911133 76.02214813232422 35.00370788574219 77 40 77 C 44.99629211425781 77 49.84153366088867 76.02214813232422 54.40114593505859 74.09358978271484 C 58.80672073364258 72.23018646240234 62.76396179199219 69.56193542480469 66.16294860839844 66.16294860839844 C 69.56193542480469 62.76396179199219 72.23018646240234 58.80672073364258 74.09358978271484 54.40114593505859 C 76.02214813232422 49.84153366088867 77 44.99629211425781 77 40 C 77 35.00370788574219 76.02214813232422 30.15846633911133 74.09358978271484 25.59885406494141 C 72.23018646240234 21.19327926635742 69.56193542480469 17.23603820800781 66.16294860839844 13.83705139160156 C 62.76396179199219 10.43806457519531 58.80672073364258 7.769813537597656 54.40114593505859 5.906410217285156 C 49.84153366088867 3.977851867675781 44.99629211425781 3 40 3 M 40 0 C 62.09138488769531 0 80 17.90861511230469 80 40 C 80 62.09138488769531 62.09138488769531 80 40 80 C 17.90861511230469 80 0 62.09138488769531 0 40 C 0 17.90861511230469 17.90861511230469 0 40 0 Z" stroke="none" fill="#ee70f7"/>
                </g>
              </g>
            </g>
          </g>
        </g>
      </g>
    </g>
    <g id="lista-de-verificacion_5_" data-name="lista-de-verificacion (5)" transform="translate(193.691 460.745)">
      <g id="Grupo_1219699" data-name="Grupo 1219699" transform="translate(39.63 0.74)">
        <path id="Trazado_1043334" data-name="Trazado 1043334" d="M81.47,56.531H47.986a1.6,1.6,0,0,1-1.595-1.595V9.095A1.6,1.6,0,0,1,47.986,7.5H81.47a1.6,1.6,0,0,1,1.595,1.595V54.937A1.6,1.6,0,0,1,81.47,56.531Z" transform="translate(-46.391 -7.5)" fill="#ecf4ff"/>
      </g>
      <g id="Grupo_1219700" data-name="Grupo 1219700" transform="translate(72.716 0.74)">
        <path id="Trazado_1043335" data-name="Trazado 1043335" d="M383.758,7.5h-1.993a1.6,1.6,0,0,1,1.595,1.595V54.937a1.6,1.6,0,0,1-1.595,1.595h1.993a1.6,1.6,0,0,0,1.595-1.595V9.095A1.594,1.594,0,0,0,383.758,7.5Z" transform="translate(-381.765 -7.5)" fill="#ddeafb"/>
      </g>
      <g id="Grupo_1219719" data-name="Grupo 1219719" transform="translate(43.517 7.118)">
        <g id="Grupo_1219706" data-name="Grupo 1219706" transform="translate(0)">
          <g id="Grupo_1219705" data-name="Grupo 1219705">
            <g id="Grupo_1219704" data-name="Grupo 1219704">
              <g id="Grupo_1219703" data-name="Grupo 1219703">
                <g id="Grupo_1219701" data-name="Grupo 1219701" transform="translate(0)">
                  <path id="Trazado_1043336" data-name="Trazado 1043336" d="M94.33,82.116H87.212a1.424,1.424,0,0,1-1.424-1.424V73.574a1.424,1.424,0,0,1,1.424-1.424H94.33a1.424,1.424,0,0,1,1.424,1.424v7.118A1.424,1.424,0,0,1,94.33,82.116Z" transform="translate(-85.788 -72.15)" fill="#b3e59f"/>
                </g>
                <g id="Grupo_1219702" data-name="Grupo 1219702" transform="translate(0 0.006)">
                  <path id="Trazado_1043337" data-name="Trazado 1043337" d="M94.45,72.212q.022.3.023.6a7.8,7.8,0,0,1-7.795,7.795,7.886,7.886,0,0,1-.89-.051v.193a1.424,1.424,0,0,0,1.424,1.424H94.33a1.424,1.424,0,0,0,1.424-1.424V73.63A1.423,1.423,0,0,0,94.45,72.212Z" transform="translate(-85.788 -72.212)" fill="#95d6a4"/>
                </g>
              </g>
            </g>
          </g>
        </g>
        <g id="Grupo_1219712" data-name="Grupo 1219712" transform="translate(0 13.155)">
          <g id="Grupo_1219711" data-name="Grupo 1219711">
            <g id="Grupo_1219710" data-name="Grupo 1219710">
              <g id="Grupo_1219709" data-name="Grupo 1219709">
                <g id="Grupo_1219707" data-name="Grupo 1219707" transform="translate(0)">
                  <path id="Trazado_1043338" data-name="Trazado 1043338" d="M94.33,215.458H87.212a1.424,1.424,0,0,1-1.424-1.424v-7.118a1.424,1.424,0,0,1,1.424-1.424H94.33a1.424,1.424,0,0,1,1.424,1.424v7.118A1.424,1.424,0,0,1,94.33,215.458Z" transform="translate(-85.788 -205.492)" fill="#b3e59f"/>
                </g>
                <g id="Grupo_1219708" data-name="Grupo 1219708" transform="translate(0 0.006)">
                  <path id="Trazado_1043339" data-name="Trazado 1043339" d="M94.45,205.553q.022.3.023.6a7.795,7.795,0,0,1-8.684,7.744v.193a1.424,1.424,0,0,0,1.424,1.424H94.33a1.424,1.424,0,0,0,1.424-1.424v-7.118A1.423,1.423,0,0,0,94.45,205.553Z" transform="translate(-85.788 -205.553)" fill="#95d6a4"/>
                </g>
              </g>
            </g>
          </g>
        </g>
        <g id="Grupo_1219718" data-name="Grupo 1219718" transform="translate(0 26.309)">
          <g id="Grupo_1219717" data-name="Grupo 1219717">
            <g id="Grupo_1219716" data-name="Grupo 1219716">
              <g id="Grupo_1219715" data-name="Grupo 1219715">
                <g id="Grupo_1219713" data-name="Grupo 1219713" transform="translate(0)">
                  <path id="Trazado_1043340" data-name="Trazado 1043340" d="M94.33,348.8H87.212a1.424,1.424,0,0,1-1.424-1.424v-7.118a1.424,1.424,0,0,1,1.424-1.424H94.33a1.424,1.424,0,0,1,1.424,1.424v7.118A1.424,1.424,0,0,1,94.33,348.8Z" transform="translate(-85.788 -338.834)" fill="#b3e59f"/>
                </g>
                <g id="Grupo_1219714" data-name="Grupo 1219714" transform="translate(0 0.006)">
                  <path id="Trazado_1043341" data-name="Trazado 1043341" d="M94.45,338.9q.022.3.023.6a7.8,7.8,0,0,1-8.684,7.744v.193a1.424,1.424,0,0,0,1.424,1.424H94.33a1.424,1.424,0,0,0,1.424-1.424v-7.118A1.423,1.423,0,0,0,94.45,338.9Z" transform="translate(-85.788 -338.895)" fill="#95d6a4"/>
                </g>
              </g>
            </g>
          </g>
        </g>
      </g>
      <g id="Grupo_1219724" data-name="Grupo 1219724" transform="translate(64.853 24.264)">
        <g id="Grupo_1219720" data-name="Grupo 1219720" transform="translate(0)">
          <path id="Trazado_1043342" data-name="Trazado 1043342" d="M304.186,270.645l-1.865.81-.231-2.02a3.986,3.986,0,0,1,.508-2.446l12.148-21.041,3.452,1.993L306.05,268.981A3.986,3.986,0,0,1,304.186,270.645Z" transform="translate(-302.064 -245.947)" fill="#4a80aa"/>
        </g>
        <g id="Grupo_1219721" data-name="Grupo 1219721" transform="translate(0.086 1.096)">
          <path id="Trazado_1043343" data-name="Trazado 1043343" d="M317.427,257.059,305.279,278.1a3.986,3.986,0,0,1-1.865,1.663l-.483.21.171,1.5,1.865-.81A3.987,3.987,0,0,0,306.833,279l12.148-21.041Z" transform="translate(-302.932 -257.059)" fill="#407093"/>
        </g>
        <g id="Grupo_1219722" data-name="Grupo 1219722" transform="translate(9.293 3.108)">
          <path id="Trazado_1043344" data-name="Trazado 1043344" d="M0,0H3.189V3.986H0Z" transform="matrix(0.5, -0.866, 0.866, 0.5, 0, 2.762)" fill="#ffe07d"/>
        </g>
        <g id="Grupo_1219723" data-name="Grupo 1219723" transform="translate(11.192 4.204)">
          <path id="Trazado_1043345" data-name="Trazado 1043345" d="M0,0H3.189V1.794H0Z" transform="matrix(0.5, -0.866, 0.866, 0.5, 0, 2.762)" fill="#ffd064"/>
        </g>
      </g>
      <g id="Grupo_1219725" data-name="Grupo 1219725" transform="translate(38.89 0)">
        <path id="Trazado_1043346" data-name="Trazado 1043346" d="M39.63,40.68a.74.74,0,0,0,.74-.74V2.334a.855.855,0,0,1,.854-.854H74.709a.855.855,0,0,1,.854.854v7.841a.74.74,0,1,0,1.48,0V2.334A2.337,2.337,0,0,0,74.709,0H41.224A2.337,2.337,0,0,0,38.89,2.334V39.94A.74.74,0,0,0,39.63,40.68Z" transform="translate(-38.89 0)"/>
        <path id="Trazado_1043347" data-name="Trazado 1043347" d="M89.733,66.814a2.166,2.166,0,0,0-2.164-2.164H80.451a2.166,2.166,0,0,0-2.164,2.164v7.118A2.166,2.166,0,0,0,80.451,76.1h7.118a2.166,2.166,0,0,0,2.164-2.164Zm-1.48,7.118a.685.685,0,0,1-.684.684H80.451a.685.685,0,0,1-.684-.684V66.814a.685.685,0,0,1,.684-.684h7.118a.685.685,0,0,1,.684.684Z" transform="translate(-74.4 -58.272)"/>
        <path id="Trazado_1043348" data-name="Trazado 1043348" d="M114.617,102.581l-2,2-.739-.739a.74.74,0,1,0-1.046,1.046l1.262,1.262a.74.74,0,0,0,1.046,0l2.525-2.525a.74.74,0,0,0-1.046-1.046Z" transform="translate(-103.537 -92.265)"/>
        <path id="Trazado_1043349" data-name="Trazado 1043349" d="M226.511,114.619h11.66a.74.74,0,1,0,0-1.48h-11.66a.74.74,0,0,0,0,1.48Z" transform="translate(-207.334 -101.977)"/>
        <path id="Trazado_1043350" data-name="Trazado 1043350" d="M307.329,80.813h-7.076a.74.74,0,0,0,0,1.48h7.076a.74.74,0,1,0,0-1.48Z" transform="translate(-273.801 -72.84)"/>
        <path id="Trazado_1043351" data-name="Trazado 1043351" d="M226.511,82.293H230.3a.74.74,0,0,0,0-1.48h-3.787a.74.74,0,1,0,0,1.48Z" transform="translate(-207.334 -72.84)"/>
        <path id="Trazado_1043352" data-name="Trazado 1043352" d="M271.968,145.464a.74.74,0,0,0,0,1.48h3.887a.74.74,0,1,0,0-1.48Z" transform="translate(-248.307 -131.113)"/>
        <path id="Trazado_1043353" data-name="Trazado 1043353" d="M226.511,146.944h1a.74.74,0,0,0,0-1.48h-1a.74.74,0,0,0,0,1.48Z" transform="translate(-207.334 -131.113)"/>
        <path id="Trazado_1043354" data-name="Trazado 1043354" d="M89.733,200.156a2.166,2.166,0,0,0-2.164-2.164H80.451a2.166,2.166,0,0,0-2.164,2.164v7.118a2.166,2.166,0,0,0,2.164,2.164h7.118a2.166,2.166,0,0,0,2.164-2.164Zm-1.48,7.118a.685.685,0,0,1-.684.684H80.451a.685.685,0,0,1-.684-.684v-7.118a.685.685,0,0,1,.684-.684h7.118a.685.685,0,0,1,.684.684Z" transform="translate(-74.4 -178.459)"/>
        <path id="Trazado_1043355" data-name="Trazado 1043355" d="M114.617,235.922l-2,2-.739-.739a.74.74,0,0,0-1.046,1.046l1.262,1.262a.74.74,0,0,0,1.046,0l2.525-2.525a.74.74,0,0,0-1.046-1.046Z" transform="translate(-103.537 -212.452)"/>
        <path id="Trazado_1043356" data-name="Trazado 1043356" d="M238.911,247.219a.74.74,0,0,0-.74-.74h-11.66a.74.74,0,0,0,0,1.48h11.66A.74.74,0,0,0,238.911,247.219Z" transform="translate(-207.334 -222.163)"/>
        <path id="Trazado_1043357" data-name="Trazado 1043357" d="M308.068,214.894a.74.74,0,0,0-.74-.74h-7.076a.74.74,0,0,0,0,1.48h7.076A.74.74,0,0,0,308.068,214.894Z" transform="translate(-273.801 -193.027)"/>
        <path id="Trazado_1043358" data-name="Trazado 1043358" d="M226.511,215.634H230.3a.74.74,0,0,0,0-1.48h-3.787a.74.74,0,1,0,0,1.48Z" transform="translate(-207.334 -193.027)"/>
        <path id="Trazado_1043359" data-name="Trazado 1043359" d="M276.6,279.545a.74.74,0,0,0-.74-.74h-3.887a.74.74,0,1,0,0,1.48h3.887A.74.74,0,0,0,276.6,279.545Z" transform="translate(-248.308 -251.3)"/>
        <path id="Trazado_1043360" data-name="Trazado 1043360" d="M226.511,280.285h1a.74.74,0,0,0,0-1.48h-1a.74.74,0,0,0,0,1.48Z" transform="translate(-207.334 -251.3)"/>
        <path id="Trazado_1043361" data-name="Trazado 1043361" d="M87.569,331.333H80.451a2.166,2.166,0,0,0-2.164,2.164v7.118a2.166,2.166,0,0,0,2.164,2.164h7.118a2.166,2.166,0,0,0,2.164-2.164V333.5A2.166,2.166,0,0,0,87.569,331.333Zm.684,9.282a.685.685,0,0,1-.684.684H80.451a.685.685,0,0,1-.684-.684V333.5a.685.685,0,0,1,.684-.684h7.118a.685.685,0,0,1,.684.684Z" transform="translate(-74.4 -298.646)"/>
        <path id="Trazado_1043362" data-name="Trazado 1043362" d="M114.617,369.263l-2,2-.739-.739a.74.74,0,0,0-1.046,1.046l1.262,1.262a.74.74,0,0,0,1.046,0l2.525-2.525a.74.74,0,1,0-1.046-1.046Z" transform="translate(-103.537 -332.638)"/>
        <path id="Trazado_1043363" data-name="Trazado 1043363" d="M226.511,348.976H230.3a.74.74,0,1,0,0-1.48h-3.787a.74.74,0,1,0,0,1.48Z" transform="translate(-207.334 -313.214)"/>
        <path id="Trazado_1043364" data-name="Trazado 1043364" d="M227.508,413.626a.74.74,0,1,0,0-1.48h-1a.74.74,0,1,0,0,1.48Z" transform="translate(-207.334 -371.486)"/>
        <path id="Trazado_1043365" data-name="Trazado 1043365" d="M81.7,143.817a.74.74,0,0,0-.345-.449l-3.452-1.993a.74.74,0,0,0-.862.089V131.38a.74.74,0,0,0-1.48,0v12.572L70.9,152.034H65.341a.74.74,0,1,0,0,1.48h4.7l-.987,1.709H58.066a.74.74,0,1,0,0,1.48H68.2l-.987,1.709H62.551a.74.74,0,1,0,0,1.48h3.81l-1.614,2.8a4.69,4.69,0,0,0-.6,2.9l.137,1.2H41.224a.855.855,0,0,1-.854-.854v-4.784a.74.74,0,0,0-1.48,0v4.784a2.337,2.337,0,0,0,2.334,2.334H74.709a2.337,2.337,0,0,0,2.334-2.334V152.32l4.585-7.942A.739.739,0,0,0,81.7,143.817Zm-4.374,5.05-2.17-1.253.855-1.48,2.17,1.253Zm-1.765,17.062a.855.855,0,0,1-.854.854H68.29a4.747,4.747,0,0,0,1.19-1.363l2.895-5.013a.74.74,0,1,0-1.282-.74L68.2,164.68a3.27,3.27,0,0,1-1.519,1.355l-.948.412-.117-1.027a3.221,3.221,0,0,1,.414-1.992l8.39-14.531,2.17,1.253-3.769,6.528a.74.74,0,0,0,1.282.74l1.463-2.533v11.045Zm3.359-19.824-2.17-1.253,1.054-1.825,2.17,1.253Z" transform="translate(-38.89 -117.752)"/>
      </g>
    </g>
  </g>
</svg>
