<svg xmlns="http://www.w3.org/2000/svg" xmlns:xlink="http://www.w3.org/1999/xlink" width="108" height="108" viewBox="0 0 108 108">
  <defs>
    <filter id="Trazado_904820" x="0" y="0" width="108" height="108" filterUnits="userSpaceOnUse">
      <feOffset dy="3" input="SourceAlpha"/>
      <feGaussianBlur stdDeviation="3" result="blur"/>
      <feFlood flood-opacity="0.161"/>
      <feComposite operator="in" in2="blur"/>
      <feComposite in="SourceGraphic"/>
    </filter>
  </defs>
  <g id="Grupo_1219698" data-name="Grupo 1219698" transform="translate(-170 -3784.595)">
    <g id="Grupo_1203358" data-name="Grupo 1203358" transform="translate(-26.477 3462.843)">
      <g id="Grupo_1177315" data-name="Grupo 1177315" transform="translate(205.477 327.752)">
        <g id="Grupo_1173585" data-name="Grupo 1173585" transform="translate(0 0)">
          <g id="Grupo_1173428" data-name="Grupo 1173428">
            <g id="Grupo_1171958" data-name="Grupo 1171958">
              <g id="Grupo_1167341" data-name="Grupo 1167341">
                <g id="Grupo_1166792" data-name="Grupo 1166792">
                  <g transform="matrix(1, 0, 0, 1, -9, -6)" filter="url(#Trazado_904820)">
                    <g id="Trazado_904820-2" data-name="Trazado 904820" transform="translate(9 6)" fill="#eaf4fb">
                      <path d="M 44.99999618530273 88.49999237060547 C 39.12687301635742 88.49999237060547 33.43022155761719 87.35006713867188 28.06829643249512 85.08216857910156 C 22.88852119445801 82.89130401611328 18.23629570007324 79.75457763671875 14.24084663391113 75.75914001464844 C 10.24540901184082 71.76369476318359 7.108683586120605 67.11146545410156 4.917821407318115 61.93169403076172 C 2.649921178817749 56.56976699829102 1.499996185302734 50.87311553955078 1.499996185302734 44.99999237060547 C 1.499996185302734 39.12686920166016 2.649921178817749 33.43021774291992 4.917821407318115 28.06829261779785 C 7.108683586120605 22.88851737976074 10.24540901184082 18.23630523681641 14.24084663391113 14.24085521697998 C 18.23629570007324 10.24540519714355 22.88852119445801 7.108692169189453 28.06829643249512 4.917829990386963 C 33.43022155761719 2.649929761886597 39.12687301635742 1.500004887580872 44.99999618530273 1.500004887580872 C 50.87311935424805 1.500004887580872 56.56977081298828 2.649929761886597 61.93169784545898 4.917829990386963 C 67.11147308349609 7.108692169189453 71.76369476318359 10.24540519714355 75.75914764404297 14.24085521697998 C 79.75458526611328 18.23630523681641 82.89131164550781 22.88851737976074 85.08216857910156 28.06829261779785 C 87.35007476806641 33.43021774291992 88.5 39.12686920166016 88.5 44.99999237060547 C 88.5 50.87311553955078 87.35007476806641 56.56976699829102 85.08216857910156 61.93169403076172 C 82.89131164550781 67.11146545410156 79.75458526611328 71.76369476318359 75.75914764404297 75.75914001464844 C 71.76369476318359 79.75457763671875 67.11147308349609 82.89130401611328 61.93169784545898 85.08216857910156 C 56.56977081298828 87.35006713867188 50.87311935424805 88.49999237060547 44.99999618530273 88.49999237060547 Z" stroke="none"/>
                      <path d="M 44.99999618530273 2.999992370605469 C 39.32870864868164 2.999992370605469 33.82865142822266 4.11004638671875 28.65262603759766 6.299331665039062 C 23.65165710449219 8.414566040039062 19.15968322753906 11.44333648681641 15.301513671875 15.30150604248047 C 11.44333648681641 19.15967559814453 8.414566040039062 23.65164947509766 6.299339294433594 28.65262222290039 C 4.110054016113281 33.82864761352539 2.999992370605469 39.32870483398438 2.999992370605469 44.99999237060547 C 2.999992370605469 50.67127990722656 4.110054016113281 56.17132186889648 6.299339294433594 61.34736633300781 C 8.414566040039062 66.34833526611328 11.44333648681641 70.84029388427734 15.301513671875 74.69846343994141 C 19.15968322753906 78.55663299560547 23.65165710449219 81.58540344238281 28.65262603759766 83.70063781738281 C 33.82865142822266 85.88992309570312 39.32870864868164 86.99997711181641 44.99999618530273 86.99997711181641 C 50.67128372192383 86.99997711181641 56.17134094238281 85.88992309570312 61.34736633300781 83.70063781738281 C 66.34834289550781 81.58540344238281 70.84030914306641 78.55663299560547 74.69847869873047 74.69846343994141 C 78.55665588378906 70.84029388427734 81.58542633056641 66.34833526611328 83.70065307617188 61.34736633300781 C 85.88993835449219 56.17132186889648 87 50.67127990722656 87 44.99999237060547 C 87 39.32870483398438 85.88993835449219 33.82864761352539 83.70065307617188 28.65262222290039 C 81.58542633056641 23.65164947509766 78.55665588378906 19.15967559814453 74.69847869873047 15.30150604248047 C 70.84030914306641 11.44333648681641 66.34834289550781 8.414566040039062 61.34736633300781 6.299331665039062 C 56.17134094238281 4.11004638671875 50.67128372192383 2.999992370605469 44.99999618530273 2.999992370605469 M 44.99999618530273 -7.62939453125e-06 C 69.85281372070312 -7.62939453125e-06 90 20.14717864990234 90 44.99999237060547 C 90 69.85279083251953 69.85281372070312 89.99997711181641 44.99999618530273 89.99997711181641 C 20.14717864990234 89.99997711181641 -7.62939453125e-06 69.85279083251953 -7.62939453125e-06 44.99999237060547 C -7.62939453125e-06 20.14717864990234 20.14717864990234 -7.62939453125e-06 44.99999618530273 -7.62939453125e-06 Z" stroke="none" fill="#205277"/>
                    </g>
                  </g>
                </g>
              </g>
            </g>
          </g>
        </g>
      </g>
    </g>
    <g id="competitivo" transform="translate(196.773 3803.885)">
      <path id="Trazado_1043319" data-name="Trazado 1043319" d="M205.86,18.125a16.482,16.482,0,0,1-4.18-1.941,1.347,1.347,0,0,1-.3-1.276,1.86,1.86,0,0,1,1.223-1.467,3.322,3.322,0,0,1,3.055.475,1.77,1.77,0,1,0,2.23-2.749,6.689,6.689,0,0,0-2.664-1.27V9.27a1.77,1.77,0,0,0-3.54,0v.751l-.1.03a5.362,5.362,0,0,0-3.68,4.2,4.79,4.79,0,0,0,1.593,4.717,18.044,18.044,0,0,0,5.184,2.493,2.131,2.131,0,0,1,1.545,2.5,2.8,2.8,0,0,1-2.781,2.364,4.712,4.712,0,0,1-3.385-.886,1.77,1.77,0,0,0-1.938,2.962,7.657,7.657,0,0,0,3.565,1.391v.716a1.77,1.77,0,1,0,3.54,0v-.89a6.169,6.169,0,0,0,2.5-1.4,6.456,6.456,0,0,0,1.988-3.667,5.676,5.676,0,0,0-3.856-6.423Z" transform="translate(-176.334 -6.702)" fill="#6cf5c2"/>
      <path id="Trazado_1043320" data-name="Trazado 1043320" d="M244.021,113.288a5.658,5.658,0,0,1,.963,4.308A6.456,6.456,0,0,1,243,121.262a6.177,6.177,0,0,1-2.14,1.289.535.535,0,0,0-.361.5v.457a1.77,1.77,0,0,1-1.923,1.807,1.77,1.77,0,0,0,1.822,1.494,1.8,1.8,0,0,0,1.7-1.816v-.842a6.169,6.169,0,0,0,2.5-1.4,6.456,6.456,0,0,0,1.988-3.667,5.611,5.611,0,0,0-2.559-5.8Z" transform="translate(-213.199 -101.239)" fill="#00f2a6"/>
      <path id="Trazado_1043321" data-name="Trazado 1043321" d="M336.883,351.826H320.327l-2.2-8.259,2.2-9.911h16.556a1.064,1.064,0,0,1,1.064,1.064v16.043A1.064,1.064,0,0,1,336.883,351.826Z" transform="translate(-284.291 -298.17)" fill="#fe646f"/>
      <path id="Trazado_1043322" data-name="Trazado 1043322" d="M25.119,324.068H8.564A1.064,1.064,0,0,1,7.5,323V303.658a1.064,1.064,0,0,1,1.064-1.064H25.119l2.2,13.214Z" transform="translate(-6.702 -270.412)" fill="#fee45a"/>
      <path id="Trazado_1043323" data-name="Trazado 1043323" d="M25.119,302.594H22.992v18.815a.532.532,0,0,1-.532.532H7.5V323a1.064,1.064,0,0,0,1.064,1.064H25.119l2.2-8.259Z" transform="translate(-6.702 -270.412)" fill="#fed402"/>
      <path id="Trazado_1043324" data-name="Trazado 1043324" d="M190.786,296.308H173.167V272.595a1.064,1.064,0,0,1,1.064-1.064h15.492a1.064,1.064,0,0,1,1.064,1.064v23.714Z" transform="translate(-154.75 -242.653)" fill="#01d0fb"/>
      <path id="Trazado_1043325" data-name="Trazado 1043325" d="M350.623,333.656H349.56v14.979A1.064,1.064,0,0,1,348.5,349.7h-15l.567,2.127h16.556a1.064,1.064,0,0,0,1.064-1.064V334.72A1.064,1.064,0,0,0,350.623,333.656Z" transform="translate(-298.031 -298.17)" fill="#fd4755"/>
      <path id="Trazado_1043326" data-name="Trazado 1043326" d="M189.723,271.531h-1.064v22.118a.532.532,0,0,1-.532.532h-14.96v2.127h17.619V272.595A1.064,1.064,0,0,0,189.723,271.531Z" transform="translate(-154.75 -242.653)" fill="#01c0fa"/>
      <path id="Trazado_1043327" data-name="Trazado 1043327" d="M52.592,270.638H42.529a.8.8,0,1,0,0,1.6H52.592a.266.266,0,0,1,.266.266v16.043a.266.266,0,0,1-.266.266H36.834V272.234h1.973a.8.8,0,1,0,0-1.6H36.834v-4.746a1.863,1.863,0,0,0-1.861-1.861H19.481a1.863,1.863,0,0,0-1.861,1.861v1.442H1.861A1.863,1.863,0,0,0,0,269.2v19.347A1.863,1.863,0,0,0,1.861,290.4H52.592a1.863,1.863,0,0,0,1.861-1.861V272.5A1.863,1.863,0,0,0,52.592,270.638Zm-34.175,11.51a.8.8,0,0,0-.8.8v5.863H1.861a.266.266,0,0,1-.266-.266V269.2a.266.266,0,0,1,.266-.266H17.619v10.187a.8.8,0,1,0,1.6,0V265.892a.266.266,0,0,1,.266-.266H34.973a.266.266,0,0,1,.266.266v22.916H19.215v-5.863a.8.8,0,0,0-.8-.8Z" transform="translate(0 -235.95)"/>
      <path id="Trazado_1043328" data-name="Trazado 1043328" d="M399.631,384.56a1.03,1.03,0,0,1-1.017-.882,1.066,1.066,0,0,1-.01-.145.8.8,0,1,0-1.6,0,2.62,2.62,0,0,0,2.623,2.623,4.694,4.694,0,1,0-2.573-6.78.8.8,0,0,0,1.565.307,1.027,1.027,0,1,1,1.008,1.227.8.8,0,1,0,0,1.6,1.027,1.027,0,1,1,0,2.055Z" transform="translate(-354.785 -337.137)"/>
      <path id="Trazado_1043329" data-name="Trazado 1043329" d="M190.977,22.365a8.892,8.892,0,0,0,3.2,1.406v.034a2.568,2.568,0,0,0,5.135,0v-.314A6.956,6.956,0,0,0,201.56,22.1a7.258,7.258,0,0,0,2.235-4.122,6.452,6.452,0,0,0-4.376-7.307,16.47,16.47,0,0,1-3.933-1.8.9.9,0,0,1-.028-.517,1.075,1.075,0,0,1,.669-.851,2.514,2.514,0,0,1,2.323.331,2.567,2.567,0,0,0,3.235-3.988,7.351,7.351,0,0,0-2.369-1.259V2.567a2.568,2.568,0,0,0-5.135,0v.179a5.931,5.931,0,0,0-1.137.6.8.8,0,1,0,.891,1.324,4.335,4.335,0,0,1,1.171-.555l.093-.027a.8.8,0,0,0,.578-.767V2.567a.972.972,0,1,1,1.944,0v.627a.8.8,0,0,0,.62.778,5.89,5.89,0,0,1,2.339,1.112.972.972,0,1,1-1.225,1.51,4.135,4.135,0,0,0-3.788-.619,2.649,2.649,0,0,0-1.776,2.083,2.079,2.079,0,0,0,.59,2.051,17.062,17.062,0,0,0,4.406,2.065,4.9,4.9,0,0,1,3.335,5.538,5.653,5.653,0,0,1-1.741,3.211,5.36,5.36,0,0,1-2.18,1.224.8.8,0,0,0-.58.767v.89a.972.972,0,1,1-1.944,0v-.716a.8.8,0,0,0-.707-.793,6.936,6.936,0,0,1-3.219-1.266.972.972,0,0,1,1.064-1.627,5.5,5.5,0,0,0,3.827,1.017,3.59,3.59,0,0,0,3.562-3.029,2.936,2.936,0,0,0-2.066-3.383,17.387,17.387,0,0,1-4.958-2.368,4,4,0,0,1-1.3-3.941q.02-.1.044-.207a.8.8,0,0,0-1.554-.363q-.032.136-.058.275a5.583,5.583,0,0,0,1.884,5.492,18.712,18.712,0,0,0,5.411,2.617,1.344,1.344,0,0,1,1.024,1.614,2.014,2.014,0,0,1-2,1.7,3.979,3.979,0,0,1-2.943-.756,2.567,2.567,0,0,0-2.811,4.3Z" transform="translate(-169.627 0)"/>
      <path id="Trazado_1043330" data-name="Trazado 1043330" d="M53.667,137.637a4.918,4.918,0,0,0,2.705.942v.911a.8.8,0,1,0,1.6,0v-.974a4,4,0,0,0,3.159-3.286,3.511,3.511,0,0,0-2.417-4.017,11.894,11.894,0,0,1-3.062-1.433,1.348,1.348,0,0,1-.373-1.329,1.745,1.745,0,0,1,1.168-1.375,2.765,2.765,0,0,1,2.573.429.8.8,0,0,0,1.076-1.178,4.217,4.217,0,0,0-2.125-.941v-.814a.8.8,0,1,0-1.6,0v.875q-.191.041-.389.1a3.322,3.322,0,0,0-2.276,2.607,2.923,2.923,0,0,0,.956,2.88,12.308,12.308,0,0,0,3.515,1.681,1.94,1.94,0,0,1,1.376,2.249A2.408,2.408,0,0,1,57.165,137a3.738,3.738,0,0,1-2.625-.7.8.8,0,1,0-.873,1.335Z" transform="translate(-47.637 -110.612)"/>
      <path id="Trazado_1043331" data-name="Trazado 1043331" d="M68.991,368.857h-.01c-.742.009-1.53.015-2.176.016.4-.536.965-1.3,1.733-2.4a5.453,5.453,0,0,0,.889-1.84.771.771,0,0,0,.014-.079l.036-.279a.8.8,0,0,0,.006-.1,2.64,2.64,0,0,0-5.231-.511.8.8,0,1,0,1.565.307,1.045,1.045,0,0,1,2.069.16l-.023.178a4.007,4.007,0,0,1-.633,1.25c-1.141,1.63-1.822,2.521-2.187,3-.447.585-.651.852-.515,1.3a.831.831,0,0,0,.54.547,5.954,5.954,0,0,0,1.6.071c.55,0,1.3-.005,2.335-.018a.8.8,0,0,0-.01-1.6Z" transform="translate(-57.405 -323.082)"/>
      <path id="Trazado_1043332" data-name="Trazado 1043332" d="M242,347.988h.754v6.461a.8.8,0,0,0,1.6,0v-7.258a.8.8,0,0,0-.8-.8H242a.8.8,0,1,0,0,1.6Z" transform="translate(-215.554 -309.553)"/>
      <path id="Trazado_1043333" data-name="Trazado 1043333" d="M395.708,192.15a9.089,9.089,0,0,1-2.323-1.082.883.883,0,0,1-.223-.856,1.174,1.174,0,0,1,.781-.927,1.976,1.976,0,0,1,1.823.294l.012.011a.8.8,0,1,0,1.082-1.172l-.018-.017a3.447,3.447,0,0,0-1.589-.748v-.48a.8.8,0,1,0-1.6,0v.536q-.086.022-.174.048a2.754,2.754,0,0,0-1.888,2.159,2.444,2.444,0,0,0,.806,2.407,9.687,9.687,0,0,0,2.776,1.331,1.316,1.316,0,0,1,.949,1.544,1.69,1.69,0,0,1-1.676,1.425,2.721,2.721,0,0,1-1.935-.51.8.8,0,1,0-.873,1.335,3.972,3.972,0,0,0,2.016.748v.538a.8.8,0,1,0,1.6,0v-.613a3.329,3.329,0,0,0,2.447-2.659A2.9,2.9,0,0,0,395.708,192.15Z" transform="translate(-349.665 -166.553)"/>
    </g>
  </g>
</svg>
