<svg xmlns="http://www.w3.org/2000/svg" xmlns:xlink="http://www.w3.org/1999/xlink" width="108" height="108" viewBox="0 0 108 108">
  <defs>
    <filter id="Trazado_904820" x="0" y="0" width="108" height="108" filterUnits="userSpaceOnUse">
      <feOffset dy="3" input="SourceAlpha"/>
      <feGaussianBlur stdDeviation="3" result="blur"/>
      <feFlood flood-opacity="0.161"/>
      <feComposite operator="in" in2="blur"/>
      <feComposite in="SourceGraphic"/>
    </filter>
  </defs>
  <g id="Grupo_1219672" data-name="Grupo 1219672" transform="translate(-169.5 -3101)">
    <g id="Grupo_1203188" data-name="Grupo 1203188" transform="translate(-26.977 2779.248)">
      <g id="Grupo_1177315" data-name="Grupo 1177315" transform="translate(205.477 327.752)">
        <g id="Grupo_1173585" data-name="Grupo 1173585" transform="translate(0 0)">
          <g id="Grupo_1173428" data-name="Grupo 1173428">
            <g id="Grupo_1171958" data-name="Grupo 1171958">
              <g id="Grupo_1167341" data-name="Grupo 1167341">
                <g id="Grupo_1166792" data-name="Grupo 1166792">
                  <g transform="matrix(1, 0, 0, 1, -9, -6)" filter="url(#Trazado_904820)">
                    <g id="Trazado_904820-2" data-name="Trazado 904820" transform="translate(9 6)" fill="#eaf4fb">
                      <path d="M 44.99999618530273 88.49999237060547 C 39.12687301635742 88.49999237060547 33.43022155761719 87.35006713867188 28.06829643249512 85.08216857910156 C 22.88852119445801 82.89130401611328 18.23629570007324 79.75457763671875 14.24084663391113 75.75914001464844 C 10.24540901184082 71.76369476318359 7.108683586120605 67.11146545410156 4.917821407318115 61.93169403076172 C 2.649921178817749 56.56976699829102 1.499996185302734 50.87311553955078 1.499996185302734 44.99999237060547 C 1.499996185302734 39.12686920166016 2.649921178817749 33.43021774291992 4.917821407318115 28.06829261779785 C 7.108683586120605 22.88851737976074 10.24540901184082 18.23630523681641 14.24084663391113 14.24085521697998 C 18.23629570007324 10.24540519714355 22.88852119445801 7.108692169189453 28.06829643249512 4.917829990386963 C 33.43022155761719 2.649929761886597 39.12687301635742 1.500004887580872 44.99999618530273 1.500004887580872 C 50.87311935424805 1.500004887580872 56.56977081298828 2.649929761886597 61.93169784545898 4.917829990386963 C 67.11147308349609 7.108692169189453 71.76369476318359 10.24540519714355 75.75914764404297 14.24085521697998 C 79.75458526611328 18.23630523681641 82.89131164550781 22.88851737976074 85.08216857910156 28.06829261779785 C 87.35007476806641 33.43021774291992 88.5 39.12686920166016 88.5 44.99999237060547 C 88.5 50.87311553955078 87.35007476806641 56.56976699829102 85.08216857910156 61.93169403076172 C 82.89131164550781 67.11146545410156 79.75458526611328 71.76369476318359 75.75914764404297 75.75914001464844 C 71.76369476318359 79.75457763671875 67.11147308349609 82.89130401611328 61.93169784545898 85.08216857910156 C 56.56977081298828 87.35006713867188 50.87311935424805 88.49999237060547 44.99999618530273 88.49999237060547 Z" stroke="none"/>
                      <path d="M 44.99999618530273 2.999992370605469 C 39.32870864868164 2.999992370605469 33.82865142822266 4.11004638671875 28.65262603759766 6.299331665039062 C 23.65165710449219 8.414566040039062 19.15968322753906 11.44333648681641 15.301513671875 15.30150604248047 C 11.44333648681641 19.15967559814453 8.414566040039062 23.65164947509766 6.299339294433594 28.65262222290039 C 4.110054016113281 33.82864761352539 2.999992370605469 39.32870483398438 2.999992370605469 44.99999237060547 C 2.999992370605469 50.67127990722656 4.110054016113281 56.17132186889648 6.299339294433594 61.34736633300781 C 8.414566040039062 66.34833526611328 11.44333648681641 70.84029388427734 15.301513671875 74.69846343994141 C 19.15968322753906 78.55663299560547 23.65165710449219 81.58540344238281 28.65262603759766 83.70063781738281 C 33.82865142822266 85.88992309570312 39.32870864868164 86.99997711181641 44.99999618530273 86.99997711181641 C 50.67128372192383 86.99997711181641 56.17134094238281 85.88992309570312 61.34736633300781 83.70063781738281 C 66.34834289550781 81.58540344238281 70.84030914306641 78.55663299560547 74.69847869873047 74.69846343994141 C 78.55665588378906 70.84029388427734 81.58542633056641 66.34833526611328 83.70065307617188 61.34736633300781 C 85.88993835449219 56.17132186889648 87 50.67127990722656 87 44.99999237060547 C 87 39.32870483398438 85.88993835449219 33.82864761352539 83.70065307617188 28.65262222290039 C 81.58542633056641 23.65164947509766 78.55665588378906 19.15967559814453 74.69847869873047 15.30150604248047 C 70.84030914306641 11.44333648681641 66.34834289550781 8.414566040039062 61.34736633300781 6.299331665039062 C 56.17134094238281 4.11004638671875 50.67128372192383 2.999992370605469 44.99999618530273 2.999992370605469 M 44.99999618530273 -7.62939453125e-06 C 69.85281372070312 -7.62939453125e-06 90 20.14717864990234 90 44.99999237060547 C 90 69.85279083251953 69.85281372070312 89.99997711181641 44.99999618530273 89.99997711181641 C 20.14717864990234 89.99997711181641 -7.62939453125e-06 69.85279083251953 -7.62939453125e-06 44.99999237060547 C -7.62939453125e-06 20.14717864990234 20.14717864990234 -7.62939453125e-06 44.99999618530273 -7.62939453125e-06 Z" stroke="none" fill="#205277"/>
                    </g>
                  </g>
                </g>
              </g>
            </g>
          </g>
        </g>
      </g>
    </g>
    <g id="clasificacion" transform="translate(183.783 3121.477)">
      <path id="Trazado_1043244" data-name="Trazado 1043244" d="M133.551,286.593v10.318H95.209V286.593a4.918,4.918,0,0,1,3.325-4.654l8.439-2.885,2.176-.744h10.459l.008,0,2.17.743,8.439,2.885A4.918,4.918,0,0,1,133.551,286.593Z" transform="translate(-74.663 -245.126)" fill="#eaf6ff"/>
      <path id="Trazado_1043245" data-name="Trazado 1043245" d="M98.786,287.786a4.918,4.918,0,0,1,3.325-4.654l8.439-2.885,2.176-.744h10.368l-1.308-.447-2.17-.743-.008,0H109.15l-2.176.744-8.439,2.885a4.918,4.918,0,0,0-3.325,4.654v10.318h3.577Z" transform="translate(-74.663 -245.126)" fill="#d8ecfe"/>
      <path id="Trazado_1043246" data-name="Trazado 1043246" d="M222.583,240.159v4.555l-5.232,3.939-5.232-3.944v-4.55Z" transform="translate(-177.634 -211.524)" fill="#ffcebf"/>
      <path id="Trazado_1043247" data-name="Trazado 1043247" d="M215.7,244.709V240.16h-3.577v4.549l5.231,3.945,1.79-1.348Z" transform="translate(-177.634 -211.525)" fill="#ffb09e"/>
      <path id="Trazado_1043248" data-name="Trazado 1043248" d="M263.406,279.072V286.8L256,282.272l5.237-3.943Z" transform="translate(-216.282 -245.143)" fill="#9bd8f9"/>
      <path id="Trazado_1043249" data-name="Trazado 1043249" d="M201.286,282.263l-7.407,4.526v-7.726l2.176-.744Z" transform="translate(-161.569 -245.135)" fill="#9bd8f9"/>
      <path id="Trazado_1043250" data-name="Trazado 1043250" d="M222.583,240.159v2.332a8.239,8.239,0,0,1-4.548,1.359h-1.369a8.239,8.239,0,0,1-4.548-1.359v-2.332Z" transform="translate(-177.634 -211.524)" fill="#ffb09e"/>
      <path id="Trazado_1043251" data-name="Trazado 1043251" d="M180.751,71.553V82.44a8.287,8.287,0,0,0,8.287,8.287h1.37a8.287,8.287,0,0,0,8.287-8.287V71.553a2.538,2.538,0,0,0-2.538-2.538H183.289A2.538,2.538,0,0,0,180.751,71.553Z" transform="translate(-150.006 -60.786)" fill="#ffeee6"/>
      <path id="Trazado_1043252" data-name="Trazado 1043252" d="M190.913,89.783c-.168.011-.337.015-.508.015h-1.369a8.287,8.287,0,0,1-8.288-8.287V70.625c0-2.488,3.083-2.929,4.923-2.538a2.538,2.538,0,0,0-2.538,2.538V81.512A8.286,8.286,0,0,0,190.913,89.783Z" transform="translate(-150.004 -59.858)" fill="#ffdfcf"/>
      <path id="Trazado_1043253" data-name="Trazado 1043253" d="M331.247,108.927h1.8a2.492,2.492,0,0,1,2.492,2.492v1.867a2.492,2.492,0,0,1-2.492,2.492h-1.8Z" transform="translate(-282.558 -95.939)" fill="#ffcebf"/>
      <path id="Trazado_1043254" data-name="Trazado 1043254" d="M228.641,311.4l-3.7,2.262,1.852,3.293h3.7l1.852-3.293Z" transform="translate(-188.924 -274.276)" fill="#f25a74"/>
      <path id="Trazado_1043255" data-name="Trazado 1043255" d="M226.789,358l-1.852,13.764h7.407L230.492,358Z" transform="translate(-188.924 -315.313)" fill="#f25a74"/>
      <path id="Trazado_1043256" data-name="Trazado 1043256" d="M149.08,108.927h-1.8a2.492,2.492,0,0,0-2.492,2.492v1.867a2.492,2.492,0,0,0,2.492,2.492h1.8Z" transform="translate(-118.335 -95.939)" fill="#ffcebf"/>
      <g id="Grupo_1219660" data-name="Grupo 1219660" transform="translate(32.31 45.975)">
        <path id="Trazado_1043257" data-name="Trazado 1043257" d="M202.1,386.1l1.59,3.221a.9.9,0,0,0,.68.494l3.555.517a.9.9,0,0,1,.5,1.539l-2.572,2.507a.9.9,0,0,0-.26.8l.607,3.541a.9.9,0,0,1-1.309.951l-3.18-1.672a.9.9,0,0,0-.84,0l-3.18,1.672a.9.9,0,0,1-1.309-.951l.607-3.541a.9.9,0,0,0-.26-.8l-2.572-2.507a.9.9,0,0,1,.5-1.539l3.555-.517a.9.9,0,0,0,.68-.494l1.59-3.221A.9.9,0,0,1,202.1,386.1Z" transform="translate(-193.879 -385.592)" fill="#f9d264"/>
      </g>
      <g id="Grupo_1219661" data-name="Grupo 1219661" transform="translate(32.31 45.975)">
        <path id="Trazado_1043258" data-name="Trazado 1043258" d="M203.072,388.082l-.61,1.238a.9.9,0,0,1-.68.494l-3.554.516a.9.9,0,0,0-.5,1.539l2.573,2.507a.9.9,0,0,1,.259.8L200,398.45l-2.313,1.216a.9.9,0,0,1-1.309-.951l.607-3.54a.9.9,0,0,0-.259-.8l-2.573-2.507a.9.9,0,0,1,.5-1.539l3.554-.516a.9.9,0,0,0,.68-.494l1.589-3.222a.9.9,0,0,1,1.619,0Z" transform="translate(-193.877 -385.595)" fill="#efc356"/>
      </g>
      <g id="Grupo_1219662" data-name="Grupo 1219662" transform="translate(21.822 47.659)">
        <path id="Trazado_1043259" data-name="Trazado 1043259" d="M111.727,400.072l1.126,2.281a.639.639,0,0,0,.481.349l2.517.366a.639.639,0,0,1,.354,1.09l-1.821,1.775a.639.639,0,0,0-.184.566l.43,2.507a.639.639,0,0,1-.927.674l-2.251-1.184a.639.639,0,0,0-.595,0l-2.251,1.184a.639.639,0,0,1-.927-.674l.43-2.507a.639.639,0,0,0-.184-.566l-1.821-1.775a.639.639,0,0,1,.354-1.09l2.517-.366a.639.639,0,0,0,.481-.349l1.126-2.281A.639.639,0,0,1,111.727,400.072Z" transform="translate(-105.91 -399.716)" fill="#f9d264"/>
      </g>
      <g id="Grupo_1219663" data-name="Grupo 1219663" transform="translate(21.821 47.659)">
        <path id="Trazado_1043260" data-name="Trazado 1043260" d="M112.344,401.326l-.507,1.025a.638.638,0,0,1-.482.349l-2.517.366a.639.639,0,0,0-.354,1.09l1.822,1.775a.639.639,0,0,1,.184.565l-.413,2.406-1.475.775a.64.64,0,0,1-.928-.674l.43-2.507a.639.639,0,0,0-.184-.565l-1.822-1.775a.639.639,0,0,1,.354-1.09l2.517-.366a.638.638,0,0,0,.482-.349l1.126-2.281a.639.639,0,0,1,1.146,0Z" transform="translate(-105.906 -399.715)" fill="#efc356"/>
      </g>
      <g id="Grupo_1219664" data-name="Grupo 1219664" transform="translate(11.333 47.659)">
        <path id="Trazado_1043261" data-name="Trazado 1043261" d="M23.759,400.072l1.126,2.281a.639.639,0,0,0,.481.349l2.517.366a.639.639,0,0,1,.354,1.09l-1.821,1.775a.639.639,0,0,0-.184.566l.43,2.507a.639.639,0,0,1-.927.674L23.484,408.5a.639.639,0,0,0-.595,0l-2.251,1.184a.639.639,0,0,1-.927-.674l.43-2.507a.639.639,0,0,0-.184-.566l-1.821-1.775a.639.639,0,0,1,.354-1.09l2.517-.366a.639.639,0,0,0,.481-.349l1.126-2.281A.639.639,0,0,1,23.759,400.072Z" transform="translate(-17.942 -399.716)" fill="#f9d264"/>
      </g>
      <g id="Grupo_1219665" data-name="Grupo 1219665" transform="translate(11.332 47.659)">
        <path id="Trazado_1043262" data-name="Trazado 1043262" d="M24.374,401.326l-.507,1.025a.638.638,0,0,1-.482.349l-2.517.366a.639.639,0,0,0-.354,1.09l1.822,1.775a.639.639,0,0,1,.184.565l-.413,2.406-1.475.775A.64.64,0,0,1,19.7,409l.43-2.507a.639.639,0,0,0-.184-.565l-1.822-1.775a.639.639,0,0,1,.354-1.09L21,402.7a.638.638,0,0,0,.482-.349l1.126-2.281a.639.639,0,0,1,1.146,0Z" transform="translate(-17.936 -399.715)" fill="#efc356"/>
      </g>
      <g id="Grupo_1219666" data-name="Grupo 1219666" transform="translate(57.613 47.659)">
        <path id="Trazado_1043263" data-name="Trazado 1043263" d="M411.91,400.072l1.126,2.281a.639.639,0,0,0,.481.349l2.517.366a.639.639,0,0,1,.354,1.09l-1.821,1.775a.639.639,0,0,0-.184.566l.43,2.507a.639.639,0,0,1-.927.674l-2.251-1.184a.639.639,0,0,0-.595,0l-2.251,1.184a.639.639,0,0,1-.927-.674l.43-2.507a.639.639,0,0,0-.184-.566l-1.821-1.775a.639.639,0,0,1,.354-1.09l2.517-.366a.639.639,0,0,0,.481-.349l1.126-2.281A.639.639,0,0,1,411.91,400.072Z" transform="translate(-406.093 -399.716)" fill="#f9d264"/>
      </g>
      <g id="Grupo_1219667" data-name="Grupo 1219667" transform="translate(57.613 47.659)">
        <path id="Trazado_1043264" data-name="Trazado 1043264" d="M411.91,400.072l1.126,2.281a.639.639,0,0,0,.481.349l2.517.366a.639.639,0,0,1,.354,1.09l-1.821,1.775a.639.639,0,0,0-.184.566l.43,2.507a.639.639,0,0,1-.927.674l-2.251-1.184a.639.639,0,0,0-.595,0l-2.251,1.184a.639.639,0,0,1-.927-.674l.43-2.507a.639.639,0,0,0-.184-.566l-1.821-1.775a.639.639,0,0,1,.354-1.09l2.517-.366a.639.639,0,0,0,.481-.349l1.126-2.281A.639.639,0,0,1,411.91,400.072Z" transform="translate(-406.093 -399.716)" fill="#f9d264"/>
      </g>
      <g id="Grupo_1219668" data-name="Grupo 1219668" transform="translate(57.612 47.659)">
        <path id="Trazado_1043265" data-name="Trazado 1043265" d="M412.527,401.325h0l-.507,1.025a.638.638,0,0,1-.48.349l-2.517.366a.638.638,0,0,0-.354,1.09l1.821,1.775a.639.639,0,0,1,.184.565l-.411,2.4-1.476.776a.639.639,0,0,1-.926-.674l.429-2.507a.639.639,0,0,0-.184-.565l-1.821-1.775a.638.638,0,0,1,.354-1.09l2.517-.366a.638.638,0,0,0,.48-.349l1.126-2.281a.639.639,0,0,1,1.146,0Z" transform="translate(-406.09 -399.715)" fill="#efc356"/>
      </g>
      <g id="Grupo_1219669" data-name="Grupo 1219669" transform="translate(47.124 47.659)">
        <path id="Trazado_1043266" data-name="Trazado 1043266" d="M323.941,400.072l1.126,2.281a.639.639,0,0,0,.481.349l2.517.366a.639.639,0,0,1,.354,1.09l-1.821,1.775a.639.639,0,0,0-.184.566l.43,2.507a.639.639,0,0,1-.927.674l-2.251-1.184a.639.639,0,0,0-.595,0l-2.251,1.184a.639.639,0,0,1-.927-.674l.43-2.507a.639.639,0,0,0-.184-.566l-1.821-1.775a.639.639,0,0,1,.354-1.09l2.517-.366a.639.639,0,0,0,.481-.349l1.126-2.281A.639.639,0,0,1,323.941,400.072Z" transform="translate(-318.124 -399.716)" fill="#f9d264"/>
      </g>
      <g id="Grupo_1219670" data-name="Grupo 1219670" transform="translate(47.124 47.659)">
        <path id="Trazado_1043267" data-name="Trazado 1043267" d="M324.561,401.326l-.507,1.025a.638.638,0,0,1-.48.349l-2.517.366a.639.639,0,0,0-.354,1.09l1.821,1.775a.639.639,0,0,1,.184.565l-.411,2.4-1.476.776a.639.639,0,0,1-.926-.674l.429-2.507a.639.639,0,0,0-.184-.565l-1.821-1.775a.639.639,0,0,1,.354-1.09l2.517-.366a.638.638,0,0,0,.48-.349l1.126-2.281a.639.639,0,0,1,1.146,0Z" transform="translate(-318.124 -399.715)" fill="#efc356"/>
      </g>
      <path id="Trazado_1043268" data-name="Trazado 1043268" d="M186.229,19.6l-2.794-2.356a4.257,4.257,0,0,0-5.509.017,4.256,4.256,0,0,1-5.5.025,4.3,4.3,0,0,0-5.564-.08L164.007,19.6v-4.7A7.392,7.392,0,0,1,171.4,7.5h7.437a7.392,7.392,0,0,1,7.392,7.392Z" transform="translate(-135.258 -6.608)" fill="#365e7d"/>
      <path id="Trazado_1043269" data-name="Trazado 1043269" d="M174.978,7.5a7.393,7.393,0,0,0-7.392,7.392v1.819a4.1,4.1,0,0,0-.721.488l-2.856,2.394v-4.7A7.393,7.393,0,0,1,171.4,7.5Z" transform="translate(-135.26 -6.606)" fill="#2b4d66"/>
      <g id="Grupo_1219671" data-name="Grupo 1219671" transform="translate(10.438)">
        <path id="Trazado_1043270" data-name="Trazado 1043270" d="M217.01,132.866a.894.894,0,0,0,.894-.894V130.8a.894.894,0,0,0-1.788,0v1.174A.894.894,0,0,0,217.01,132.866Z" transform="translate(-191.593 -114.415)"/>
        <path id="Trazado_1043271" data-name="Trazado 1043271" d="M281.628,132.866a.894.894,0,0,0,.894-.894V130.8a.894.894,0,0,0-1.788,0v1.174A.894.894,0,0,0,281.628,132.866Z" transform="translate(-248.506 -114.415)"/>
        <path id="Trazado_1043272" data-name="Trazado 1043272" d="M232.827,184.562a3.14,3.14,0,0,0,3.137-3.137.894.894,0,1,0-1.788,0,1.348,1.348,0,0,1-2.7,0,.894.894,0,1,0-1.788,0A3.14,3.14,0,0,0,232.827,184.562Z" transform="translate(-203.548 -159.006)"/>
        <path id="Trazado_1043273" data-name="Trazado 1043273" d="M68.92,51.169a1.524,1.524,0,0,0-1.238-1.043L65.3,49.78l-1.066-2.16a1.533,1.533,0,0,0-2.75,0l-1.066,2.16-.633.092v-8.4a5.827,5.827,0,0,0-3.937-5.5c-1.254-.434-2.089,1.159-.572,1.695a4.047,4.047,0,0,1,2.721,3.808v8.665a1.547,1.547,0,0,0-.381.116,10.442,10.442,0,0,0-2.8-.469l-1.066-2.16a1.534,1.534,0,0,0-.481-.569V43.486a.894.894,0,1,0-1.788,0v3.565a1.534,1.534,0,0,0-.481.569l-1.066,2.16a17.385,17.385,0,0,0-2.611.4c-.819-.628-3.022-.752-3.946-.807l-.876-6.507,1.251-2.224,2.912,1.779a.9.9,0,0,0,1.36-.763V35.179l3.5,1.2q.683.22,1.135-.557a.894.894,0,0,0-.557-1.135l-6.257-2.141v-3.5a10.163,10.163,0,0,0,3.74-8.311h.9a3.39,3.39,0,0,0,3.386-3.386V15.48a3.39,3.39,0,0,0-2.006-3.091v-4.1a8.3,8.3,0,0,0-6.122-8,.894.894,0,0,0-.466,1.727,6.507,6.507,0,0,1,4.8,6.274v2.777c-2.049-2.174-5.395-3.31-7.989-1.095a3.363,3.363,0,0,1-4.342.021c-2.563-2.159-6.008-.989-8.1,1.082V8.287a6.505,6.505,0,0,1,6.5-6.5h5.47a.894.894,0,0,0,0-1.788h-5.47a8.3,8.3,0,0,0-8.287,8.287v3.989a3.391,3.391,0,0,0-2.291,3.2v1.867a3.39,3.39,0,0,0,3.386,3.386h.9a10.163,10.163,0,0,0,3.74,8.311v3.5L23.582,35.968a5.813,5.813,0,0,0-3.93,5.5v1.922a.894.894,0,1,0,1.788,0V41.467A4.024,4.024,0,0,1,24.16,37.66l7.255-2.482v6.476a.9.9,0,0,0,1.36.763l2.912-1.779,1.251,2.224-.876,6.511c-.923.055-3.127.176-3.945.8a17.4,17.4,0,0,0-2.611-.4l-1.066-2.16a1.536,1.536,0,0,0-.481-.569V43.486a.894.894,0,1,0-1.788,0V47.05a1.534,1.534,0,0,0-.481.569l-1.066,2.16a10.432,10.432,0,0,0-2.8.469,1.545,1.545,0,0,0-.381-.116V47.286a.894.894,0,1,0-1.788,0v2.586l-.633-.092-1.066-2.16a1.533,1.533,0,0,0-2.75,0l-1.066,2.16-2.384.346a1.533,1.533,0,0,0-.85,2.615l1.725,1.682L12.22,56.8a1.533,1.533,0,0,0,2.225,1.616l2.132-1.121,2.133,1.121A1.533,1.533,0,0,0,20.934,56.8l-.407-2.374,1.295-1.262,1.295,1.262L22.709,56.8a1.533,1.533,0,0,0,2.225,1.616l2.132-1.121L29.2,58.413A1.533,1.533,0,0,0,31.423,56.8l-.407-2.374L32.274,53.2l2.26,2.207-.607,3.541a1.8,1.8,0,0,0,2.607,1.894l3.187-1.672,3.18,1.672a1.8,1.8,0,0,0,2.607-1.894L44.9,55.4l2.257-2.2,1.259,1.227L48.012,56.8a1.533,1.533,0,0,0,2.225,1.616l2.132-1.121L54.5,58.413A1.533,1.533,0,0,0,56.725,56.8l-.407-2.374,1.295-1.262,1.295,1.262L58.5,56.8a1.533,1.533,0,0,0,2.224,1.616l2.132-1.121,2.132,1.121A1.533,1.533,0,0,0,67.214,56.8l-.407-2.375,1.725-1.682a1.524,1.524,0,0,0,.387-1.572ZM41.046,41.79H38.388l-1.173-2.085,2.5-1.528,2.5,1.528Zm-2.4,1.789h2.139l.285,2.118a1.8,1.8,0,0,0-2.709,0Zm5.4-10.833-4.334,3.263-4.334-3.263v-2.67a12.413,12.413,0,0,0,8.668,0v2.67ZM46.23,40.06l-4.924-3.008,3.8-2.864,1.121.38V40.06Zm5.852-22.714a1.6,1.6,0,0,1-1.6,1.6h-.9V13.882h.9a1.6,1.6,0,0,1,1.6,1.6Zm-23.133,1.6a1.6,1.6,0,0,1-1.6-1.6V15.479a1.6,1.6,0,0,1,1.6-1.6h.9v5.062h-.9Zm2.69,2.71V11.732a3.772,3.772,0,0,1,4.956-.372,5.151,5.151,0,0,0,6.654-.031,3.6,3.6,0,0,1,4.546.15V21.654c0,9.816-16.156,9.816-16.156,0ZM33.2,34.569l1.121-.38,3.8,2.864L33.2,40.06V34.569ZM19.182,53.236a1.533,1.533,0,0,0-.441,1.357l.342,2-1.793-.943a1.534,1.534,0,0,0-1.427,0l-1.793.943.342-2a1.532,1.532,0,0,0-.441-1.357l-1.451-1.414,2.005-.291a1.533,1.533,0,0,0,1.154-.839l.9-1.817.9,1.817a1.533,1.533,0,0,0,1.155.839l2,.291Zm10.489,0a1.532,1.532,0,0,0-.441,1.357l.343,2-1.794-.943a1.534,1.534,0,0,0-1.427,0l-1.793.943.343-2a1.533,1.533,0,0,0-.441-1.357L23.01,51.821l2-.291a1.533,1.533,0,0,0,1.154-.839l.9-1.817.9,1.817a1.533,1.533,0,0,0,1.154.838l2,.291Zm16.555-1.627-2.572,2.507a1.8,1.8,0,0,0-.517,1.59l.61,3.543a.015.015,0,0,1-.014.006l-3.18-1.672a1.8,1.8,0,0,0-1.672,0L35.7,59.258s-.011-.006-.01-.012l.607-3.541a1.8,1.8,0,0,0-.517-1.59L33.2,51.608s0-.012.008-.013l3.555-.517a1.826,1.826,0,0,0,1.353-.983l1.589-3.225s.012,0,.011,0l0,.007,1.59,3.221a1.825,1.825,0,0,0,1.353.983l3.558.515a.014.014,0,0,1,0,.015Zm8.747,1.627a1.533,1.533,0,0,0-.441,1.357l.342,2-1.793-.943a1.534,1.534,0,0,0-1.427,0l-1.793.943.342-2a1.532,1.532,0,0,0-.441-1.357l-1.451-1.414,2.005-.291a1.533,1.533,0,0,0,1.154-.839l.9-1.817.9,1.817a1.533,1.533,0,0,0,1.154.838l2,.291Zm10.489,0a1.532,1.532,0,0,0-.441,1.357l.343,2-1.794-.943a1.534,1.534,0,0,0-1.427,0l-1.793.943.343-2a1.533,1.533,0,0,0-.441-1.357L58.8,51.821l2-.291a1.533,1.533,0,0,0,1.154-.839l.9-1.817.9,1.817a1.533,1.533,0,0,0,1.154.838l2,.291Z" transform="translate(-10.438)"/>
      </g>
    </g>
  </g>
</svg>
