<svg xmlns="http://www.w3.org/2000/svg" xmlns:xlink="http://www.w3.org/1999/xlink" width="98" height="98" viewBox="0 0 98 98">
  <defs>
    <filter id="Trazado_982547" x="0" y="0" width="98" height="98" filterUnits="userSpaceOnUse">
      <feOffset dy="3" input="SourceAlpha"/>
      <feGaussianBlur stdDeviation="3" result="blur"/>
      <feFlood flood-opacity="0.161"/>
      <feComposite operator="in" in2="blur"/>
      <feComposite in="SourceGraphic"/>
    </filter>
  </defs>
  <g id="Grupo_1219651" data-name="Grupo 1219651" transform="translate(-201 -808)">
    <g id="Grupo_1203186" data-name="Grupo 1203186" transform="translate(-77 -2614.045)">
      <g id="Grupo_1178491" data-name="Grupo 1178491" transform="translate(287 3428.045)">
        <g id="Grupo_1172010" data-name="Grupo 1172010" transform="translate(0)">
          <g id="Grupo_1171046" data-name="Grupo 1171046">
            <g id="Grupo_1148525" data-name="Grupo 1148525">
              <g transform="matrix(1, 0, 0, 1, -9, -6)" filter="url(#Trazado_982547)">
                <g id="Trazado_982547-2" data-name="Trazado 982547" transform="translate(9 6)" fill="#fdeffe">
                  <path d="M 40 78.5 C 34.80187606811523 78.5 29.76003265380859 77.48227691650391 25.01452255249023 75.47509765625 C 20.43014526367188 73.53606414794922 16.31264495849609 70.75986480712891 12.77638912200928 67.22360992431641 C 9.240133285522461 63.68735504150391 6.46393346786499 59.56985473632812 4.524899959564209 54.98547744750977 C 2.517722129821777 50.23996734619141 1.5 45.19812393188477 1.5 40 C 1.5 34.80187606811523 2.517722129821777 29.76003265380859 4.524899959564209 25.01452255249023 C 6.46393346786499 20.43014526367188 9.240133285522461 16.31264495849609 12.77638912200928 12.77638912200928 C 16.31264495849609 9.240133285522461 20.43014526367188 6.46393346786499 25.01452255249023 4.524899959564209 C 29.76003265380859 2.517722129821777 34.80187606811523 1.5 40 1.5 C 45.19812393188477 1.5 50.23996734619141 2.517722129821777 54.98547744750977 4.524899959564209 C 59.56985473632812 6.46393346786499 63.68735504150391 9.240133285522461 67.22360992431641 12.77638912200928 C 70.75986480712891 16.31264495849609 73.53606414794922 20.43014526367188 75.47509765625 25.01452255249023 C 77.48227691650391 29.76003265380859 78.5 34.80187606811523 78.5 40 C 78.5 45.19812393188477 77.48227691650391 50.23996734619141 75.47509765625 54.98547744750977 C 73.53606414794922 59.56985473632812 70.75986480712891 63.68735504150391 67.22360992431641 67.22360992431641 C 63.68735504150391 70.75986480712891 59.56985473632812 73.53606414794922 54.98547744750977 75.47509765625 C 50.23996734619141 77.48227691650391 45.19812393188477 78.5 40 78.5 Z" stroke="none"/>
                  <path d="M 40 3 C 35.00370788574219 3 30.15846633911133 3.977851867675781 25.59885406494141 5.906410217285156 C 21.19327926635742 7.769813537597656 17.23603820800781 10.43806457519531 13.83705139160156 13.83705139160156 C 10.43806457519531 17.23603820800781 7.769813537597656 21.19327926635742 5.906410217285156 25.59885406494141 C 3.977851867675781 30.15846633911133 3 35.00370788574219 3 40 C 3 44.99629211425781 3.977851867675781 49.84153366088867 5.906410217285156 54.40114593505859 C 7.769813537597656 58.80672073364258 10.43806457519531 62.76396179199219 13.83705139160156 66.16294860839844 C 17.23603820800781 69.56193542480469 21.19327926635742 72.23018646240234 25.59885406494141 74.09358978271484 C 30.15846633911133 76.02214813232422 35.00370788574219 77 40 77 C 44.99629211425781 77 49.84153366088867 76.02214813232422 54.40114593505859 74.09358978271484 C 58.80672073364258 72.23018646240234 62.76396179199219 69.56193542480469 66.16294860839844 66.16294860839844 C 69.56193542480469 62.76396179199219 72.23018646240234 58.80672073364258 74.09358978271484 54.40114593505859 C 76.02214813232422 49.84153366088867 77 44.99629211425781 77 40 C 77 35.00370788574219 76.02214813232422 30.15846633911133 74.09358978271484 25.59885406494141 C 72.23018646240234 21.19327926635742 69.56193542480469 17.23603820800781 66.16294860839844 13.83705139160156 C 62.76396179199219 10.43806457519531 58.80672073364258 7.769813537597656 54.40114593505859 5.906410217285156 C 49.84153366088867 3.977851867675781 44.99629211425781 3 40 3 M 40 0 C 62.09138488769531 0 80 17.90861511230469 80 40 C 80 62.09138488769531 62.09138488769531 80 40 80 C 17.90861511230469 80 0 62.09138488769531 0 40 C 0 17.90861511230469 17.90861511230469 0 40 0 Z" stroke="none" fill="#ee70f7"/>
                </g>
              </g>
            </g>
          </g>
        </g>
      </g>
    </g>
    <g id="discusion_2_" data-name="discusion (2)" transform="translate(225.645 824.599)">
      <path id="SVGCleanerId_0" d="M355.325,448.925h-5.39A2.933,2.933,0,0,0,347,451.858v.971a.826.826,0,0,0,.826.826h9.6a.826.826,0,0,0,.826-.826v-.971A2.933,2.933,0,0,0,355.325,448.925Z" transform="translate(-313.991 -401.172)" fill="#ffcf59"/>
      <g id="Grupo_1219649" data-name="Grupo 1219649" transform="translate(33.011 47.753)">
        <path id="SVGCleanerId_0_1_" d="M355.325,448.925h-5.39A2.933,2.933,0,0,0,347,451.858v.971a.826.826,0,0,0,.826.826h9.6a.826.826,0,0,0,.826-.826v-.971A2.933,2.933,0,0,0,355.325,448.925Z" transform="translate(-347.002 -448.925)" fill="#ffcf59"/>
      </g>
      <path id="Trazado_1043181" data-name="Trazado 1043181" d="M354.1,448.925h-4.161A2.933,2.933,0,0,0,347,451.858v.971a.826.826,0,0,0,.826.826h3.751a.826.826,0,0,1-.826-.826v-.971c0-.014,0-.027,0-.041a.407.407,0,0,1,.61-.344,2.536,2.536,0,0,0,1.345.336,2.586,2.586,0,0,0,2.473-2.6v-.282Z" transform="translate(-313.992 -401.172)" fill="#ffb55c"/>
      <path id="Trazado_1043182" data-name="Trazado 1043182" d="M54.991,448.925H49.6a2.933,2.933,0,0,0-2.933,2.933v1.383a.414.414,0,0,0,.414.414H57.51a.414.414,0,0,0,.414-.414v-1.383A2.933,2.933,0,0,0,54.991,448.925Z" transform="translate(-42.226 -401.172)" fill="#c3da40"/>
      <path id="Trazado_1043183" data-name="Trazado 1043183" d="M53.762,448.924H49.6a2.933,2.933,0,0,0-2.933,2.933v1.383a.414.414,0,0,0,.414.414h3.763a.414.414,0,0,1-.414-.414v-1.393a.548.548,0,0,1,.793-.481,2.352,2.352,0,0,0,1.213.253,2.4,2.4,0,0,0,2.225-2.414v-.281h-.9Z" transform="translate(-42.226 -401.171)" fill="#adbc15"/>
      <path id="Trazado_1043184" data-name="Trazado 1043184" d="M361.33,225.7H354.9v9.8h12.972v-3.256A6.55,6.55,0,0,0,361.33,225.7Z" transform="translate(-321.138 -199.18)" fill="#3f2725"/>
      <path id="Trazado_1043185" data-name="Trazado 1043185" d="M468.147,331.5v-3.8h1.607a1.9,1.9,0,1,1,0,3.8Z" transform="translate(-423.612 -291.479)" fill="#dbae6e"/>
      <path id="Trazado_1043186" data-name="Trazado 1043186" d="M390.6,413.933a1.638,1.638,0,0,1-1.636-1.636V409.33l.861.114a5.724,5.724,0,0,0,1.551,0l.861-.114V412.3A1.638,1.638,0,0,1,390.6,413.933Z" transform="translate(-351.962 -365.344)" fill="#fad393"/>
      <path id="Trazado_1043187" data-name="Trazado 1043187" d="M390.573,412.3v-2.8a5.968,5.968,0,0,1-.748-.052l-.861-.114V412.3a1.634,1.634,0,0,0,2.441,1.423A1.637,1.637,0,0,1,390.573,412.3Z" transform="translate(-351.961 -365.344)" fill="#edb769"/>
      <path id="Trazado_1043188" data-name="Trazado 1043188" d="M354.466,276.192l-.454.193a5.656,5.656,0,0,1-2.19.439,5.092,5.092,0,0,1-4.027-1.808l-.3-.389-.479.119a1.679,1.679,0,0,1-.4.05H346.6l-1.1.037h-2.42v8.162l.01.058a5.991,5.991,0,1,0,11.982-.1v-6.36A.434.434,0,0,0,354.466,276.192Z" transform="translate(-310.44 -243.453)" fill="#fad393"/>
      <path id="Trazado_1043189" data-name="Trazado 1043189" d="M354.466,276.192l-.454.193a5.656,5.656,0,0,1-2.19.439,5.092,5.092,0,0,1-4.027-1.808l-.3-.389-.479.119a1.679,1.679,0,0,1-.4.05H346.6l-1.1.037h-2.42v8.162l.01.058a6,6,0,0,0,6.087,5.981,5.87,5.87,0,0,0,2.08-.415,6,6,0,0,1-3.8-5.566l-.009-.058v-5.343l.011-.157a.191.191,0,0,1,.34-.1h0a5.092,5.092,0,0,0,4.027,1.808,5.659,5.659,0,0,0,2.19-.438l.454-.193a.435.435,0,0,1,.6.4v-2.375A.435.435,0,0,0,354.466,276.192Z" transform="translate(-310.44 -243.453)" fill="#edb769"/>
      <path id="Trazado_1043190" data-name="Trazado 1043190" d="M54.74,26.989,53.255,20.1h-11.6l-1.313,2.09a.58.58,0,0,1-1.007-.043L38.282,20.1H27.691L25.8,26.368l-.217.647a.58.58,0,0,1-1.117-.062L22.989,20.1H20.839a3.805,3.805,0,0,1-3.829-3.669,3.764,3.764,0,0,1,3.758-3.85h38A3.805,3.805,0,0,1,62.6,16.252a3.764,3.764,0,0,1-3.758,3.85h-.882l-1.891,6.266-.2.668A.58.58,0,0,1,54.74,26.989Z" transform="translate(-15.388 -6.337)" fill="#ffcf59"/>
      <path id="Trazado_1043191" data-name="Trazado 1043191" d="M18.961,19.263a3.764,3.764,0,0,1,3.758-3.85h38a3.862,3.862,0,0,1,1.851.472,3.817,3.817,0,0,0-3.8-3.3h-38a3.744,3.744,0,0,0-1.78,7.047C18.973,19.51,18.964,19.387,18.961,19.263Z" transform="translate(-15.388 -6.338)" fill="#ffb55c"/>
      <path id="Trazado_1043192" data-name="Trazado 1043192" d="M198.289,428.1h-5.894a3.414,3.414,0,0,0-3.414,3.414v2.543a.826.826,0,0,0,.826.826h11.068a.826.826,0,0,0,.826-.825l0-2.545A3.417,3.417,0,0,0,198.289,428.1Z" transform="translate(-171.001 -382.326)" fill="#31d2f7"/>
      <path id="Trazado_1043193" data-name="Trazado 1043193" d="M193.907,434.881a.826.826,0,0,1-.826-.826V431.5a.686.686,0,0,1,1.019-.591,2.518,2.518,0,0,0,1.358.324,2.567,2.567,0,0,0,2.416-2.583V428.1H192.4a3.414,3.414,0,0,0-3.414,3.414v2.543a.826.826,0,0,0,.826.826l11.068,0h-6.969Z" transform="translate(-171.002 -382.327)" fill="#13ace8"/>
      <path id="SVGCleanerId_1" d="M27.094,218.45a5.475,5.475,0,0,0-1.959-.371,4.394,4.394,0,0,0-1.963.422,2.669,2.669,0,0,0-.454.262,1.448,1.448,0,0,1-.853.269,1.55,1.55,0,0,1-.854-.256,4.77,4.77,0,0,0-2.633-.764c-2.376,0-4.309,1.643-4.309,3.663,0,.071,0,.145.01.227s-.01.171-.01.246a3.446,3.446,0,0,0,.3,1.4c-.024.1-.045.194-.064.288a7.579,7.579,0,0,0-.146,1.481V229H27.8V218.5Z" transform="translate(-12.729 -192.225)" fill="#f49e2c"/>
      <g id="Grupo_1219650" data-name="Grupo 1219650" transform="translate(1.341 25.787)">
        <path id="SVGCleanerId_1_1_" d="M27.094,218.45a5.475,5.475,0,0,0-1.959-.371,4.394,4.394,0,0,0-1.963.422,2.669,2.669,0,0,0-.454.262,1.448,1.448,0,0,1-.853.269,1.55,1.55,0,0,1-.854-.256,4.77,4.77,0,0,0-2.633-.764c-2.376,0-4.309,1.643-4.309,3.663,0,.071,0,.145.01.227s-.01.171-.01.246a3.446,3.446,0,0,0,.3,1.4c-.024.1-.045.194-.064.288a7.579,7.579,0,0,0-.146,1.481V229H27.8V218.5Z" transform="translate(-14.07 -218.012)" fill="#f49e2c"/>
      </g>
      <path id="Trazado_1043194" data-name="Trazado 1043194" d="M20.048,223.835c.019-.094.04-.191.064-.288a3.446,3.446,0,0,1-.3-1.4c0-.075,0-.155.01-.246s-.01-.157-.01-.227a3.452,3.452,0,0,1,1.475-2.756,1.55,1.55,0,0,1-.275-.143,4.77,4.77,0,0,0-2.633-.764c-2.376,0-4.309,1.643-4.309,3.663,0,.071,0,.145.01.227s-.01.171-.01.246a3.446,3.446,0,0,0,.3,1.4c-.024.1-.045.194-.064.288a7.574,7.574,0,0,0-.146,1.481V229H19.9v-3.686A7.58,7.58,0,0,1,20.048,223.835Z" transform="translate(-12.729 -192.223)" fill="#e88815"/>
      <path id="Trazado_1043195" data-name="Trazado 1043195" d="M8.9,331.5a1.9,1.9,0,1,1,0-3.8h1.607v3.8H8.9Z" transform="translate(-6.335 -291.479)" fill="#dbae6e"/>
      <path id="Trazado_1043196" data-name="Trazado 1043196" d="M174.844,146.591l-.234-.267c-.009-1.133-.86-2.237-2.338-3.033a12.926,12.926,0,0,0-10.9,0c-1.478.8-2.329,1.9-2.338,3.033l-.232.264a4.815,4.815,0,0,0-1.422,3.427v4.116h18.884v-4.116A4.813,4.813,0,0,0,174.844,146.591Z" transform="translate(-142.406 -123.521)" fill="#353535"/>
      <path id="Trazado_1043197" data-name="Trazado 1043197" d="M166.194,146.59l.232-.264c.009-1.133.86-2.237,2.338-3.033a9.085,9.085,0,0,1,1.754-.705,13.289,13.289,0,0,0-3.7-.5,11.743,11.743,0,0,0-5.451,1.206c-1.478.8-2.329,1.9-2.338,3.033l-.232.264a4.815,4.815,0,0,0-1.422,3.427v4.116h7.393v-4.116A4.814,4.814,0,0,1,166.194,146.59Z" transform="translate(-142.406 -123.522)" fill="#302a21"/>
      <path id="Trazado_1043198" data-name="Trazado 1043198" d="M90.266,419.842a1.638,1.638,0,0,1-1.636-1.636v-2.871l.861.114a5.72,5.72,0,0,0,1.551,0l.861-.114v2.871A1.638,1.638,0,0,1,90.266,419.842Z" transform="translate(-80.196 -370.776)" fill="#fad393"/>
      <path id="Trazado_1043199" data-name="Trazado 1043199" d="M90.148,418.205V415.5a6.074,6.074,0,0,1-.659-.051l-.861-.114v2.871a1.634,1.634,0,0,0,2.4,1.448A1.637,1.637,0,0,1,90.148,418.205Z" transform="translate(-80.195 -370.776)" fill="#edb769"/>
      <path id="Trazado_1043200" data-name="Trazado 1043200" d="M52.557,274.816l-1.247-.02a1.694,1.694,0,0,1-.4-.05l-.479-.119-.3.389a5.092,5.092,0,0,1-4.027,1.808,5.658,5.658,0,0,1-2.19-.438l-.674-.286a.277.277,0,0,0-.385.255v6.6a5.991,5.991,0,1,0,11.982.091v-8.172Z" transform="translate(-38.773 -243.453)" fill="#fad393"/>
      <path id="Trazado_1043201" data-name="Trazado 1043201" d="M52.556,274.816l-1.247-.02a1.694,1.694,0,0,1-.4-.05l-.479-.119-.3.389a4.905,4.905,0,0,1-3.15,1.741h0c-.077.012-.155.022-.233.03l-.107.01-.174.014-.093.005c-.089,0-.179.007-.269.007a5.657,5.657,0,0,1-2.19-.438l-.674-.286a.277.277,0,0,0-.385.255v6.6a6.052,6.052,0,0,0,5.791,6.08,5.967,5.967,0,0,0,2.269-.367,6.1,6.1,0,0,1-3.935-5.712V281.06a2.738,2.738,0,0,1,1.55-2.464,4.509,4.509,0,0,0,1.6-1.266h0a.761.761,0,0,1,.784-.27h0a1.69,1.69,0,0,0,.4.05l1.247.02,2.277.055v-2.315Z" transform="translate(-38.772 -243.453)" fill="#edb769"/>
      <path id="Trazado_1043202" data-name="Trazado 1043202" d="M143.466,271.487a1.889,1.889,0,1,1,0-3.778h1.664v3.778Z" transform="translate(-128.107 -237.194)" fill="#93682a"/>
      <path id="Trazado_1043203" data-name="Trazado 1043203" d="M239.667,385.85a1.7,1.7,0,0,1-1.7-1.7v-3.781l.856.107a7.378,7.378,0,0,0,.921.059,7.482,7.482,0,0,0,.784-.042l.842-.089v3.746A1.7,1.7,0,0,1,239.667,385.85Z" transform="translate(-215.327 -339.137)" fill="#a07530"/>
      <path id="Trazado_1043204" data-name="Trazado 1043204" d="M239.667,384.15v-3.616a7.417,7.417,0,0,1-.845-.058l-.856-.107v3.781a1.7,1.7,0,0,0,2.552,1.471A1.7,1.7,0,0,1,239.667,384.15Z" transform="translate(-215.327 -339.137)" fill="#825211"/>
      <path id="Trazado_1043205" data-name="Trazado 1043205" d="M334.358,271.488V267.71h1.664a1.889,1.889,0,1,1,0,3.778Z" transform="translate(-302.55 -237.195)" fill="#93682a"/>
      <path id="Trazado_1043206" data-name="Trazado 1043206" d="M185.335,228.7a7.55,7.55,0,0,1-7.414-7.583v-8.557a2.9,2.9,0,0,1,.113-.8h0a.761.761,0,0,1,1.183-.4h0a10.718,10.718,0,0,0,6.192,1.694,10.892,10.892,0,0,0,6.193-1.695h0a.761.761,0,0,1,1.182.4h0a2.9,2.9,0,0,1,.113.8v8.653A7.5,7.5,0,0,1,185.335,228.7Z" transform="translate(-160.994 -186.07)" fill="#a07530"/>
      <path id="Trazado_1043207" data-name="Trazado 1043207" d="M192.784,211.515a.7.7,0,0,0-1.081-.461l-.1.058a10.892,10.892,0,0,1-6.193,1.695,10.718,10.718,0,0,1-6.192-1.694.761.761,0,0,0-1.183.4h0a2.9,2.9,0,0,0-.113.8v8.557a7.551,7.551,0,0,0,7.1,7.574,7.459,7.459,0,0,0,2.685-.355,7.8,7.8,0,0,1-4.753-7.189V218a2.409,2.409,0,0,1,2.425-2.4h.025a11.173,11.173,0,0,0,6.353-1.738h0a.782.782,0,0,1,1.135.233v-1.772a3.425,3.425,0,0,0-.085-.689Z" transform="translate(-160.994 -185.824)" fill="#825211"/>
      <path id="Trazado_1043208" data-name="Trazado 1043208" d="M47.4,153.07v-2.826a7.208,7.208,0,0,0-7.209-7.209H34.485a5.473,5.473,0,0,0-1.561-3.239l-.067-.076c-.245-2.623-3.864-4.639-8.442-4.639s-8.2,2.016-8.442,4.639l-.067.076a5.475,5.475,0,0,0-1.514,2.913,5.549,5.549,0,0,0-4.245.152,3.33,3.33,0,0,0-.547.318.844.844,0,0,1-.951,0,5.433,5.433,0,0,0-3-.874c-2.743,0-4.975,1.942-4.975,4.329,0,.073,0,.148.008.232s-.008.166-.008.241a4.09,4.09,0,0,0,.269,1.458q-.011.051-.021.1a8.264,8.264,0,0,0-.159,1.612v3.2A2.556,2.556,0,0,0,0,155.352a2.6,2.6,0,0,0,2.617,2.515H3.5a6.678,6.678,0,0,0,4.263,5.152v1.251H7.375a3.6,3.6,0,0,0-3.6,3.6v1.1a1.363,1.363,0,0,0,1.363,1.363H15a1.363,1.363,0,0,0,1.363-1.363v-1.1a3.6,3.6,0,0,0-3.6-3.6h-.393v-1.251a6.669,6.669,0,0,0,4.354-6.21.734.734,0,0,0-.628-.745.714.714,0,0,0-.8.709,5.23,5.23,0,1,1-10.459-.079v-5.878a6.39,6.39,0,0,0,2.487.5,5.843,5.843,0,0,0,4.627-2.1,2.452,2.452,0,0,0,.579.072l.287.01a2.552,2.552,0,0,0,2.538,2.846h.9v.188a8.169,8.169,0,0,0,5.712,7.78v1.99c0,.063,0,.126.008.188h-.588a4.08,4.08,0,0,0-4.08,4.08v2.607a1.429,1.429,0,0,0,1.429,1.429h4.63a.714.714,0,0,0,.714-.714h0a.714.714,0,0,0-.714-.714H18.741v-2.608a2.652,2.652,0,0,1,2.652-2.652h1.219a2.362,2.362,0,0,0,3.456,0h1.219a2.655,2.655,0,0,1,2.652,2.652l0,2.609H28.018a.714.714,0,0,0-.714.714h0a.714.714,0,0,0,.714.714h1.921a1.429,1.429,0,0,0,1.429-1.429v-2.608a4.08,4.08,0,0,0-4.08-4.08H26.7c0-.062.008-.125.008-.188v-1.946a8.167,8.167,0,0,0,5.862-7.824v-.188h.9a2.551,2.551,0,0,0,2.538-2.85l.166-.006a2.453,2.453,0,0,0,.579-.072,5.843,5.843,0,0,0,4.627,2.1,6.391,6.391,0,0,0,2.487-.5v5.873a5.23,5.23,0,1,1-10.459.1.714.714,0,1,0-1.428-.017,6.668,6.668,0,0,0,4.355,6.246v1.251h-.392a3.6,3.6,0,0,0-3.6,3.6v1.1a1.363,1.363,0,0,0,1.363,1.363h9.863a1.363,1.363,0,0,0,1.363-1.363v-1.1a3.6,3.6,0,0,0-3.6-3.6h-.393v-1.251a6.678,6.678,0,0,0,4.263-5.152h.885a2.6,2.6,0,0,0,2.617-2.54A2.566,2.566,0,0,0,47.4,153.07ZM9.2,163.371a6.491,6.491,0,0,0,1.75,0v.956a.875.875,0,1,1-1.75,0Zm.875,3.259a2.3,2.3,0,0,0,1.849-.932h.846a2.174,2.174,0,0,1,2.171,2.171V168.9H5.2v-1.035A2.174,2.174,0,0,1,7.375,165.7h.846A2.3,2.3,0,0,0,10.07,166.629Zm27.694-3.259a6.491,6.491,0,0,0,1.75,0v.956a.875.875,0,1,1-1.75,0Zm3.57,2.327a2.174,2.174,0,0,1,2.171,2.171V168.9H33.773v-1.035a2.174,2.174,0,0,1,2.171-2.171h.846a2.3,2.3,0,0,0,3.7,0ZM3.413,156.439H2.567a1.137,1.137,0,1,1,0-2.273h.846Zm10.04-8.551-.882-.029h-.024a1,1,0,0,1-.5-.133.714.714,0,0,0-.974.254,4.334,4.334,0,0,1-3.744,1.906,4.741,4.741,0,0,1-2.781-.863.713.713,0,0,0-1.128.671.722.722,0,0,0-.007.092v2.951H2.567a2.582,2.582,0,0,0-.375.028v-2.489a6.813,6.813,0,0,1,.131-1.333c.018-.088.038-.18.061-.273a.714.714,0,0,0-.042-.46,2.691,2.691,0,0,1-.239-1.1c0-.056,0-.119.008-.191a.717.717,0,0,0,0-.1c-.005-.07-.008-.127-.008-.178,0-1.6,1.591-2.9,3.547-2.9a4.01,4.01,0,0,1,2.215.639,2.279,2.279,0,0,0,2.57-.031,1.911,1.911,0,0,1,.324-.187l.052-.026a4.2,4.2,0,0,1,3.288,0,.709.709,0,0,0,.208.046v3.092A2.572,2.572,0,0,0,13.452,147.889Zm2.809,2.826h-.9a1.128,1.128,0,0,1,0-2.255h.9ZM25.28,162.1a.94.94,0,1,1-1.879,0v-1.682a8,8,0,0,0,1.879.019V162.1Zm5.862-9.77a6.727,6.727,0,0,1-13.453,0v-8.653a2.141,2.141,0,0,1,.083-.592,11.5,11.5,0,0,0,6.643,1.842,11.562,11.562,0,0,0,6.643-1.842,2.141,2.141,0,0,1,.084.592v8.653Zm.966-10.408a.714.714,0,0,0-.614-.361l-.546-.005h-.007a.714.714,0,0,0-.462.17,9.833,9.833,0,0,1-6.063,1.774,9.555,9.555,0,0,1-6.185-1.882.714.714,0,0,0-.476-.188l-.321,0a.713.713,0,0,0-.607.328,3.549,3.549,0,0,0-.564,1.924v3.354h-.526v-3.354a4.059,4.059,0,0,1,1.2-2.888l.032-.034.246-.28a.714.714,0,0,0,.177-.471c0-1.688,2.824-3.495,7.027-3.495s7.027,1.807,7.027,3.495a.714.714,0,0,0,.177.471l.246.28.032.034a4.059,4.059,0,0,1,1.2,2.888v3.354H32.57v-3.354A3.561,3.561,0,0,0,32.108,141.923Zm1.364,8.792h-.9V148.46h.9a1.128,1.128,0,0,1,0,2.255ZM45.16,149.18a.714.714,0,0,0-1-.156,4.74,4.74,0,0,1-2.781.863,4.334,4.334,0,0,1-3.744-1.906.714.714,0,0,0-.974-.254,1,1,0,0,1-.5.133h-.024l-.764.025a2.567,2.567,0,0,0-.851-.625v-2.8h5.668a5.787,5.787,0,0,1,5.781,5.781v2.494H45.3v-2.951a.725.725,0,0,0-.007-.092A.71.71,0,0,0,45.16,149.18Zm.983,7.259H45.3v-2.273h.846a1.137,1.137,0,0,1,0,2.273Z" transform="translate(0 -117.183)"/>
      <path id="Trazado_1043209" data-name="Trazado 1043209" d="M14.432,14.431h1.683L17.424,20.5a1.324,1.324,0,0,0,2.561.1l1.864-6.177h9.689l.8,1.564a1.324,1.324,0,0,0,2.3.1l1.045-1.663H46.381L47.69,20.5a1.307,1.307,0,0,0,1.241,1.044h.057a1.306,1.306,0,0,0,1.264-.941l1.864-6.177H52.5a4.426,4.426,0,0,0,0-8.851H14.432a4.426,4.426,0,0,0,0,8.851Zm0-7.424H52.5a3,3,0,0,1,0,6h-.917a.714.714,0,0,0-.683.508l-1.9,6.3-1.346-6.244a.714.714,0,0,0-.7-.563H35.291a.714.714,0,0,0-.6.334L33.529,15.18l-.92-1.789A.714.714,0,0,0,31.974,13H21.319a.714.714,0,0,0-.683.508l-1.9,6.3-1.346-6.244a.714.714,0,0,0-.7-.563h-2.26a3,3,0,0,1,0-6Z" transform="translate(-9.051)"/>
    </g>
  </g>
</svg>
