<svg xmlns="http://www.w3.org/2000/svg" xmlns:xlink="http://www.w3.org/1999/xlink" width="98" height="98" viewBox="0 0 98 98">
  <defs>
    <filter id="Trazado_982547" x="0" y="0" width="98" height="98" filterUnits="userSpaceOnUse">
      <feOffset dy="3" input="SourceAlpha"/>
      <feGaussianBlur stdDeviation="3" result="blur"/>
      <feFlood flood-opacity="0.161"/>
      <feComposite operator="in" in2="blur"/>
      <feComposite in="SourceGraphic"/>
    </filter>
  </defs>
  <g id="Grupo_1219738" data-name="Grupo 1219738" transform="translate(-835 -440)">
    <g id="Grupo_1203360" data-name="Grupo 1203360" transform="translate(557 -2982.045)">
      <g id="Grupo_1178491" data-name="Grupo 1178491" transform="translate(287 3428.045)">
        <g id="Grupo_1172010" data-name="Grupo 1172010" transform="translate(0)">
          <g id="Grupo_1171046" data-name="Grupo 1171046">
            <g id="Grupo_1148525" data-name="Grupo 1148525">
              <g transform="matrix(1, 0, 0, 1, -9, -6)" filter="url(#Trazado_982547)">
                <g id="Trazado_982547-2" data-name="Trazado 982547" transform="translate(9 6)" fill="#fdeffe">
                  <path d="M 40 78.5 C 34.80187606811523 78.5 29.76003265380859 77.48227691650391 25.01452255249023 75.47509765625 C 20.43014526367188 73.53606414794922 16.31264495849609 70.75986480712891 12.77638912200928 67.22360992431641 C 9.240133285522461 63.68735504150391 6.46393346786499 59.56985473632812 4.524899959564209 54.98547744750977 C 2.517722129821777 50.23996734619141 1.5 45.19812393188477 1.5 40 C 1.5 34.80187606811523 2.517722129821777 29.76003265380859 4.524899959564209 25.01452255249023 C 6.46393346786499 20.43014526367188 9.240133285522461 16.31264495849609 12.77638912200928 12.77638912200928 C 16.31264495849609 9.240133285522461 20.43014526367188 6.46393346786499 25.01452255249023 4.524899959564209 C 29.76003265380859 2.517722129821777 34.80187606811523 1.5 40 1.5 C 45.19812393188477 1.5 50.23996734619141 2.517722129821777 54.98547744750977 4.524899959564209 C 59.56985473632812 6.46393346786499 63.68735504150391 9.240133285522461 67.22360992431641 12.77638912200928 C 70.75986480712891 16.31264495849609 73.53606414794922 20.43014526367188 75.47509765625 25.01452255249023 C 77.48227691650391 29.76003265380859 78.5 34.80187606811523 78.5 40 C 78.5 45.19812393188477 77.48227691650391 50.23996734619141 75.47509765625 54.98547744750977 C 73.53606414794922 59.56985473632812 70.75986480712891 63.68735504150391 67.22360992431641 67.22360992431641 C 63.68735504150391 70.75986480712891 59.56985473632812 73.53606414794922 54.98547744750977 75.47509765625 C 50.23996734619141 77.48227691650391 45.19812393188477 78.5 40 78.5 Z" stroke="none"/>
                  <path d="M 40 3 C 35.00370788574219 3 30.15846633911133 3.977851867675781 25.59885406494141 5.906410217285156 C 21.19327926635742 7.769813537597656 17.23603820800781 10.43806457519531 13.83705139160156 13.83705139160156 C 10.43806457519531 17.23603820800781 7.769813537597656 21.19327926635742 5.906410217285156 25.59885406494141 C 3.977851867675781 30.15846633911133 3 35.00370788574219 3 40 C 3 44.99629211425781 3.977851867675781 49.84153366088867 5.906410217285156 54.40114593505859 C 7.769813537597656 58.80672073364258 10.43806457519531 62.76396179199219 13.83705139160156 66.16294860839844 C 17.23603820800781 69.56193542480469 21.19327926635742 72.23018646240234 25.59885406494141 74.09358978271484 C 30.15846633911133 76.02214813232422 35.00370788574219 77 40 77 C 44.99629211425781 77 49.84153366088867 76.02214813232422 54.40114593505859 74.09358978271484 C 58.80672073364258 72.23018646240234 62.76396179199219 69.56193542480469 66.16294860839844 66.16294860839844 C 69.56193542480469 62.76396179199219 72.23018646240234 58.80672073364258 74.09358978271484 54.40114593505859 C 76.02214813232422 49.84153366088867 77 44.99629211425781 77 40 C 77 35.00370788574219 76.02214813232422 30.15846633911133 74.09358978271484 25.59885406494141 C 72.23018646240234 21.19327926635742 69.56193542480469 17.23603820800781 66.16294860839844 13.83705139160156 C 62.76396179199219 10.43806457519531 58.80672073364258 7.769813537597656 54.40114593505859 5.906410217285156 C 49.84153366088867 3.977851867675781 44.99629211425781 3 40 3 M 40 0 C 62.09138488769531 0 80 17.90861511230469 80 40 C 80 62.09138488769531 62.09138488769531 80 40 80 C 17.90861511230469 80 0 62.09138488769531 0 40 C 0 17.90861511230469 17.90861511230469 0 40 0 Z" stroke="none" fill="#ee70f7"/>
                </g>
              </g>
            </g>
          </g>
        </g>
      </g>
    </g>
    <g id="red_1_" data-name="red (1)" transform="translate(857.031 459.031)">
      <g id="Grupo_1219736" data-name="Grupo 1219736" transform="translate(1.838 1.916)">
        <g id="Grupo_1219727" data-name="Grupo 1219727" transform="translate(7.134 7.328)">
          <circle id="Elipse_12642" data-name="Elipse 12642" cx="18" cy="18" r="18" transform="translate(-0.269 -0.008)" fill="#69d6f4"/>
        </g>
        <g id="Grupo_1219728" data-name="Grupo 1219728" transform="translate(30.158 3.273)">
          <path id="Trazado_1043366" data-name="Trazado 1043366" d="M55.014,6H41.091A3.089,3.089,0,0,0,38,9.091a3.41,3.41,0,0,0,.042.511l.235,1.4.972,5.814A3.087,3.087,0,0,0,42.3,19.4h2.4v2.061a1.286,1.286,0,0,0,2,1.072l2.463-1.642L51.4,19.4h2.4a3.087,3.087,0,0,0,3.049-2.589L58.063,9.6a3.41,3.41,0,0,0,.042-.511A3.089,3.089,0,0,0,55.014,6Z" transform="translate(-38 -6)" fill="#e6e9ed"/>
        </g>
        <g id="Grupo_1219729" data-name="Grupo 1219729" transform="translate(0 33.43)">
          <path id="Trazado_1043367" data-name="Trazado 1043367" d="M21.2,42.9a3.076,3.076,0,0,0-2.186-.9H5.091A3.089,3.089,0,0,0,2,45.091a3.41,3.41,0,0,0,.042.511l1.206,7.213A3.087,3.087,0,0,0,6.3,55.4H8.7l4.7,3.133a1.286,1.286,0,0,0,2-1.072V55.4h2.4a3.087,3.087,0,0,0,3.049-2.589l.436-2.614.771-4.6a3.41,3.41,0,0,0,.042-.511,3.076,3.076,0,0,0-.9-2.186Z" transform="translate(-2 -42)" fill="#e6e9ed"/>
        </g>
        <g id="Grupo_1219730" data-name="Grupo 1219730" transform="translate(33.508 6.623)">
          <path id="Trazado_1043368" data-name="Trazado 1043368" d="M55.4,16.7H42a6.7,6.7,0,1,1,13.4,0Z" transform="translate(-42 -10)" fill="#b4dd7f"/>
        </g>
        <g id="Grupo_1219731" data-name="Grupo 1219731" transform="translate(3.351 36.781)">
          <path id="Trazado_1043369" data-name="Trazado 1043369" d="M19.4,52.7H6a6.7,6.7,0,1,1,13.4,0Z" transform="translate(-6 -46)" fill="#fcd770"/>
        </g>
        <g id="Grupo_1219732" data-name="Grupo 1219732" transform="translate(36.445 0)">
          <ellipse id="Elipse_12643" data-name="Elipse 12643" cx="3.5" cy="3" rx="3.5" ry="3" transform="translate(0.42 0.319)" fill="#f0d0b4"/>
        </g>
        <g id="Grupo_1219733" data-name="Grupo 1219733" transform="translate(6.702 30.079)">
          <path id="Trazado_1043370" data-name="Trazado 1043370" d="M13.351,38a3.345,3.345,0,1,1-1.642.427A3.4,3.4,0,0,1,13.351,38Z" transform="translate(-10 -38)" fill="#f0d0b4"/>
        </g>
        <g id="Grupo_1219734" data-name="Grupo 1219734" transform="translate(39.193 39.387)">
          <circle id="Elipse_12644" data-name="Elipse 12644" cx="2" cy="2" r="2" transform="translate(-0.328 -0.067)" fill="#ef7385"/>
        </g>
        <g id="Grupo_1219735" data-name="Grupo 1219735" transform="translate(7.134 7.328)">
          <circle id="Elipse_12645" data-name="Elipse 12645" cx="2" cy="2" r="2" transform="translate(-0.269 -0.008)" fill="#ef7385"/>
        </g>
      </g>
      <g id="Grupo_1219737" data-name="Grupo 1219737" transform="translate(1 1)">
        <path id="Trazado_1043371" data-name="Trazado 1043371" d="M56.551,25.175a21.839,21.839,0,0,1-2.929,17.746l1.392.932a23.51,23.51,0,0,0,3.154-19.112Z" transform="translate(-9.54 -4.853)"/>
        <path id="Trazado_1043372" data-name="Trazado 1043372" d="M29.475,5.675a22.215,22.215,0,0,1,3.229.237l.245-1.658A23.924,23.924,0,0,0,29.475,4,23.349,23.349,0,0,0,16.443,7.951l.932,1.392a21.68,21.68,0,0,1,12.1-3.667Z" transform="translate(-3.506 -1.487)"/>
        <path id="Trazado_1043373" data-name="Trazado 1043373" d="M6.414,35.122A21.839,21.839,0,0,1,9.343,17.376l-1.392-.932A23.51,23.51,0,0,0,4.8,35.556Z" transform="translate(-1.487 -3.506)"/>
        <path id="Trazado_1043374" data-name="Trazado 1043374" d="M31.159,57.289a21.967,21.967,0,0,1-4.034-.372l-.308,1.646a23.608,23.608,0,0,0,4.343.4A23.342,23.342,0,0,0,44.19,55.014l-.932-1.392A21.675,21.675,0,0,1,31.159,57.289Z" transform="translate(-5.19 -9.54)"/>
        <path id="Trazado_1043375" data-name="Trazado 1043375" d="M50.513,48a2.513,2.513,0,1,0,2.513,2.513A2.516,2.516,0,0,0,50.513,48Zm0,3.351a.838.838,0,1,1,.838-.838A.839.839,0,0,1,50.513,51.351Z" transform="translate(-8.628 -8.628)"/>
        <path id="Trazado_1043376" data-name="Trazado 1043376" d="M12.513,15.026A2.513,2.513,0,1,0,10,12.513,2.516,2.516,0,0,0,12.513,15.026Zm0-3.351a.838.838,0,1,1-.838.838A.839.839,0,0,1,12.513,11.675Z" transform="translate(-2.461 -2.461)"/>
        <path id="Trazado_1043377" data-name="Trazado 1043377" d="M49.006,4.351H46.152a4.189,4.189,0,0,0-8.208,0H35.09a3.936,3.936,0,0,0-3.932,3.932,3.87,3.87,0,0,0,.054.646l.018.111A18.38,18.38,0,0,0,9.286,32.092a4.175,4.175,0,0,0-1.5,2.417H4.932A3.936,3.936,0,0,0,1,38.441a3.87,3.87,0,0,0,.054.646l1.2,7.214a3.919,3.919,0,0,0,3.879,3.287H8.286l4.491,2.994a2.124,2.124,0,0,0,3.3-1.767V49.587h1.567A3.919,3.919,0,0,0,21.525,46.3L21.8,44.63a18.258,18.258,0,0,0,5.165.769,18.385,18.385,0,0,0,17.2-24.983l1.479-.986H47.8a3.919,3.919,0,0,0,3.879-3.286l1.2-7.213a3.933,3.933,0,0,0-3.879-4.58ZM42.048,2.675a2.513,2.513,0,1,1-2.513,2.513A2.516,2.516,0,0,1,42.048,2.675ZM31.533,10.859l.88,5.284a3.919,3.919,0,0,0,.673,1.611H22.847c.98-4.609,2.607-7.539,4.122-7.539A16.762,16.762,0,0,1,31.533,10.859ZM43.68,27.807a16.627,16.627,0,0,1-1.77,6.7h-8.8a49.366,49.366,0,0,0,.558-6.7ZM31.4,34.508H22.529a47.182,47.182,0,0,1-.569-6.7H31.981A46.381,46.381,0,0,1,31.4,34.508ZM10.258,26.131a16.627,16.627,0,0,1,1.77-6.7h8.8a49.367,49.367,0,0,0-.558,6.7Zm11.7,0a46.38,46.38,0,0,1,.578-6.7h8.874a47.182,47.182,0,0,1,.569,6.7Zm1.857-15.609a19.511,19.511,0,0,0-2.686,7.232H12.991a16.785,16.785,0,0,1,10.823-7.232ZM10.248,27.807H20.285a49.38,49.38,0,0,0,.55,6.7H15.993a4.2,4.2,0,0,0-4.1-3.351,4.145,4.145,0,0,0-1.084.16A16.772,16.772,0,0,1,10.248,27.807ZM11.89,37.859A2.513,2.513,0,1,1,14.4,35.346a2.516,2.516,0,0,1-2.513,2.513Zm7.982,8.167a2.25,2.25,0,0,1-2.226,1.886H14.4v2.9a.463.463,0,0,1-.7.373L8.793,47.912H6.134a2.25,2.25,0,0,1-2.227-1.886l-1.2-7.214a2.3,2.3,0,0,1-.03-.371,2.259,2.259,0,0,1,2.257-2.257H7.786a4.171,4.171,0,0,0,1.275,2.231A7.548,7.548,0,0,0,4.351,45.4v.838H19.43V45.4a7.548,7.548,0,0,0-4.71-6.984,4.174,4.174,0,0,0,1.275-2.231h2.854a2.259,2.259,0,0,1,2.257,2.257,2.219,2.219,0,0,1-.031.371ZM11.89,39.535a5.873,5.873,0,0,1,5.8,5.026H6.086a5.873,5.873,0,0,1,5.8-5.026Zm10.191,3.429.646-3.876a3.9,3.9,0,0,0-.668-2.9h9.032c-.98,4.609-2.607,7.539-4.122,7.539A16.611,16.611,0,0,1,22.081,42.963Zm8.043.452a19.511,19.511,0,0,0,2.686-7.232h8.138A16.785,16.785,0,0,1,30.124,43.416ZM43.681,26.131H33.653a49.38,49.38,0,0,0-.55-6.7h4.756v1.227a2.123,2.123,0,0,0,3.3,1.767l1.581-1.054A16.559,16.559,0,0,1,43.681,26.131Zm7.55-17.476-1.2,7.214A2.25,2.25,0,0,1,47.8,17.754H45.146L40.232,21.03a.463.463,0,0,1-.7-.373v-2.9H36.292a2.25,2.25,0,0,1-2.227-1.886l-1.2-7.214a2.3,2.3,0,0,1-.03-.371A2.259,2.259,0,0,1,35.09,6.026h2.854a4.171,4.171,0,0,0,1.275,2.231,7.548,7.548,0,0,0-4.71,6.984v.838H49.587v-.838a7.548,7.548,0,0,0-4.71-6.984,4.176,4.176,0,0,0,1.275-2.231h2.854a2.259,2.259,0,0,1,2.257,2.257,2.229,2.229,0,0,1-.031.372Zm-9.184.722a5.873,5.873,0,0,1,5.8,5.026H36.243a5.873,5.873,0,0,1,5.8-5.026Z" transform="translate(-1 -1)"/>
      </g>
    </g>
  </g>
</svg>
