<svg xmlns="http://www.w3.org/2000/svg" xmlns:xlink="http://www.w3.org/1999/xlink" width="108" height="108" viewBox="0 0 108 108">
  <defs>
    <filter id="Trazado_904820" x="0" y="0" width="108" height="108" filterUnits="userSpaceOnUse">
      <feOffset dy="3" input="SourceAlpha"/>
      <feGaussianBlur stdDeviation="3" result="blur"/>
      <feFlood flood-opacity="0.161"/>
      <feComposite operator="in" in2="blur"/>
      <feComposite in="SourceGraphic"/>
    </filter>
  </defs>
  <g id="Grupo_1219634" data-name="Grupo 1219634" transform="translate(-620 -494)">
    <g id="Grupo_1203110" data-name="Grupo 1203110" transform="translate(629 500)">
      <g id="Grupo_1173585" data-name="Grupo 1173585" transform="translate(0 0)">
        <g id="Grupo_1173428" data-name="Grupo 1173428">
          <g id="Grupo_1171958" data-name="Grupo 1171958">
            <g id="Grupo_1167341" data-name="Grupo 1167341">
              <g id="Grupo_1166792" data-name="Grupo 1166792">
                <g transform="matrix(1, 0, 0, 1, -9, -6)" filter="url(#Trazado_904820)">
                  <g id="Trazado_904820-2" data-name="Trazado 904820" transform="translate(9 6)" fill="#fdeffe">
                    <path d="M 44.99999618530273 88.49999237060547 C 39.12687301635742 88.49999237060547 33.43022155761719 87.35006713867188 28.06829643249512 85.08216857910156 C 22.88852119445801 82.89130401611328 18.23629570007324 79.75457763671875 14.24084663391113 75.75914001464844 C 10.24540901184082 71.76369476318359 7.108683586120605 67.11146545410156 4.917821407318115 61.93169403076172 C 2.649921178817749 56.56976699829102 1.499996185302734 50.87311553955078 1.499996185302734 44.99999237060547 C 1.499996185302734 39.12686920166016 2.649921178817749 33.43021774291992 4.917821407318115 28.06829261779785 C 7.108683586120605 22.88851737976074 10.24540901184082 18.23630523681641 14.24084663391113 14.24085521697998 C 18.23629570007324 10.24540519714355 22.88852119445801 7.108692169189453 28.06829643249512 4.917829990386963 C 33.43022155761719 2.649929761886597 39.12687301635742 1.500004887580872 44.99999618530273 1.500004887580872 C 50.87311935424805 1.500004887580872 56.56977081298828 2.649929761886597 61.93169784545898 4.917829990386963 C 67.11147308349609 7.108692169189453 71.76369476318359 10.24540519714355 75.75914764404297 14.24085521697998 C 79.75458526611328 18.23630523681641 82.89131164550781 22.88851737976074 85.08216857910156 28.06829261779785 C 87.35007476806641 33.43021774291992 88.5 39.12686920166016 88.5 44.99999237060547 C 88.5 50.87311553955078 87.35007476806641 56.56976699829102 85.08216857910156 61.93169403076172 C 82.89131164550781 67.11146545410156 79.75458526611328 71.76369476318359 75.75914764404297 75.75914001464844 C 71.76369476318359 79.75457763671875 67.11147308349609 82.89130401611328 61.93169784545898 85.08216857910156 C 56.56977081298828 87.35006713867188 50.87311935424805 88.49999237060547 44.99999618530273 88.49999237060547 Z" stroke="none"/>
                    <path d="M 44.99999618530273 2.999992370605469 C 39.32870864868164 2.999992370605469 33.82865142822266 4.11004638671875 28.65262603759766 6.299331665039062 C 23.65165710449219 8.414566040039062 19.15968322753906 11.44333648681641 15.301513671875 15.30150604248047 C 11.44333648681641 19.15967559814453 8.414566040039062 23.65164947509766 6.299339294433594 28.65262222290039 C 4.110054016113281 33.82864761352539 2.999992370605469 39.32870483398438 2.999992370605469 44.99999237060547 C 2.999992370605469 50.67127990722656 4.110054016113281 56.17132186889648 6.299339294433594 61.34736633300781 C 8.414566040039062 66.34833526611328 11.44333648681641 70.84029388427734 15.301513671875 74.69846343994141 C 19.15968322753906 78.55663299560547 23.65165710449219 81.58540344238281 28.65262603759766 83.70063781738281 C 33.82865142822266 85.88992309570312 39.32870864868164 86.99997711181641 44.99999618530273 86.99997711181641 C 50.67128372192383 86.99997711181641 56.17134094238281 85.88992309570312 61.34736633300781 83.70063781738281 C 66.34834289550781 81.58540344238281 70.84030914306641 78.55663299560547 74.69847869873047 74.69846343994141 C 78.55665588378906 70.84029388427734 81.58542633056641 66.34833526611328 83.70065307617188 61.34736633300781 C 85.88993835449219 56.17132186889648 87 50.67127990722656 87 44.99999237060547 C 87 39.32870483398438 85.88993835449219 33.82864761352539 83.70065307617188 28.65262222290039 C 81.58542633056641 23.65164947509766 78.55665588378906 19.15967559814453 74.69847869873047 15.30150604248047 C 70.84030914306641 11.44333648681641 66.34834289550781 8.414566040039062 61.34736633300781 6.299331665039062 C 56.17134094238281 4.11004638671875 50.67128372192383 2.999992370605469 44.99999618530273 2.999992370605469 M 44.99999618530273 -7.62939453125e-06 C 69.85281372070312 -7.62939453125e-06 90 20.14717864990234 90 44.99999237060547 C 90 69.85279083251953 69.85281372070312 89.99997711181641 44.99999618530273 89.99997711181641 C 20.14717864990234 89.99997711181641 -7.62939453125e-06 69.85279083251953 -7.62939453125e-06 44.99999237060547 C -7.62939453125e-06 20.14717864990234 20.14717864990234 -7.62939453125e-06 44.99999618530273 -7.62939453125e-06 Z" stroke="none" fill="#823d87"/>
                  </g>
                </g>
              </g>
            </g>
          </g>
        </g>
      </g>
    </g>
    <g id="carga-en-la-nube" transform="translate(644 515)">
      <g id="Grupo_1219632" data-name="Grupo 1219632" transform="translate(1.939 1.939)">
        <g id="Grupo_1219621" data-name="Grupo 1219621" transform="translate(31.932 50.715)">
          <path id="Trazado_1043096" data-name="Trazado 1043096" d="M36,56H51.027v5.635H36Z" transform="translate(-36 -56)" fill="#aab2bd"/>
        </g>
        <g id="Grupo_1219622" data-name="Grupo 1219622" transform="translate(22.54 45.08)">
          <path id="Trazado_1043097" data-name="Trazado 1043097" d="M59.81,50v1.878a3.756,3.756,0,0,1-3.757,3.757h-26.3A3.756,3.756,0,0,1,26,51.878V50H59.81Z" transform="translate(-26 -50)" fill="#ccd1d9"/>
        </g>
        <g id="Grupo_1219623" data-name="Grupo 1219623" transform="translate(43.202 28.175)">
          <path id="Trazado_1043098" data-name="Trazado 1043098" d="M61.148,35.757V48.905H55.513V45.148L53.25,44.4a9.257,9.257,0,0,0-.77-1.888l1.061-2.123-2.658-2.658L48.761,38.79q-.366-.2-.761-.366V32h9.392a3.756,3.756,0,0,1,3.757,3.757Z" transform="translate(-48 -32)" fill="#69d6f4"/>
        </g>
        <g id="Grupo_1219624" data-name="Grupo 1219624" transform="translate(22.54 28.175)">
          <path id="Trazado_1043099" data-name="Trazado 1043099" d="M39.148,32v6.424q-.394.169-.761.366l-2.123-1.061-2.658,2.658,1.061,2.123A9.257,9.257,0,0,0,33.9,44.4l-2.263.751v3.757H26V35.757A3.756,3.756,0,0,1,29.757,32Z" transform="translate(-26 -32)" fill="#69d6f4"/>
        </g>
        <g id="Grupo_1219625" data-name="Grupo 1219625" transform="translate(0 41.323)">
          <path id="Trazado_1043100" data-name="Trazado 1043100" d="M20.783,47.878v3.757a1.884,1.884,0,0,1-1.878,1.878H3.878A1.884,1.884,0,0,1,2,51.635V47.878A1.884,1.884,0,0,1,3.878,46H18.905A1.884,1.884,0,0,1,20.783,47.878Z" transform="translate(-2 -46)" fill="#fcd770"/>
        </g>
        <g id="Grupo_1219626" data-name="Grupo 1219626" transform="translate(0 48.837)">
          <path id="Trazado_1043101" data-name="Trazado 1043101" d="M2,59.635V55.878A1.884,1.884,0,0,1,3.878,54H18.905a1.884,1.884,0,0,1,1.878,1.878v3.757a1.884,1.884,0,0,1-1.878,1.878H3.878A1.884,1.884,0,0,1,2,59.635Z" transform="translate(-2 -54)" fill="#fcd770"/>
        </g>
        <g id="Grupo_1219627" data-name="Grupo 1219627" transform="translate(0 33.81)">
          <path id="Trazado_1043102" data-name="Trazado 1043102" d="M2,43.635V39.878A1.884,1.884,0,0,1,3.878,38H18.905a1.884,1.884,0,0,1,1.878,1.878v3.757a1.884,1.884,0,0,1-1.878,1.878H3.878A1.884,1.884,0,0,1,2,43.635Z" transform="translate(-2 -38)" fill="#fcd770"/>
        </g>
        <g id="Grupo_1219628" data-name="Grupo 1219628" transform="translate(0 0)">
          <path id="Trazado_1043103" data-name="Trazado 1043103" d="M51.776,13.27a6.719,6.719,0,0,0-2.179.376A10.311,10.311,0,0,0,34.138,7.306a13.128,13.128,0,0,0-23.169,4.226,7.429,7.429,0,0,0-1.456-.141,7.513,7.513,0,1,0,0,15.027H51.776a6.574,6.574,0,0,0,0-13.148Z" transform="translate(-2 -2)" fill="#e6e9ed"/>
        </g>
        <g id="Grupo_1219629" data-name="Grupo 1219629" transform="translate(30.993 11.27)">
          <path id="Trazado_1043104" data-name="Trazado 1043104" d="M45.331,34.662H41.574l-.751,2.263a9.461,9.461,0,0,0-1.127.4V23.392H35l6.931-8.659a1.946,1.946,0,0,1,3.043,0l6.931,8.659h-4.7V37.329a9.462,9.462,0,0,0-1.127-.4Z" transform="translate(-35 -14)" fill="#ff826e"/>
        </g>
        <g id="Grupo_1219630" data-name="Grupo 1219630" transform="translate(28.175 31.932)">
          <path id="Trazado_1043105" data-name="Trazado 1043105" d="M54.54,45.392v3.757H48.586a5.635,5.635,0,1,0-10.631,0H32V45.392l2.263-.751a9.257,9.257,0,0,1,.77-1.888L33.972,40.63l2.658-2.658,2.123,1.061q.366-.2.761-.366a9.462,9.462,0,0,1,1.127-.4L41.392,36h3.757l.751,2.263a9.461,9.461,0,0,1,1.127.4q.394.169.761.366l2.123-1.061,2.658,2.658-1.061,2.123a9.257,9.257,0,0,1,.77,1.888Z" transform="translate(-32 -36)" fill="#ffc729"/>
        </g>
        <g id="Grupo_1219631" data-name="Grupo 1219631" transform="translate(33.81 37.567)">
          <path id="Trazado_1043106" data-name="Trazado 1043106" d="M48.951,49.513H43.635a1.878,1.878,0,1,0-1.878-1.878,1.884,1.884,0,0,0,1.878,1.878H38.319a5.635,5.635,0,1,1,10.631,0Z" transform="translate(-38 -42)" fill="#fcd770"/>
        </g>
      </g>
      <g id="Grupo_1219633" data-name="Grupo 1219633" transform="translate(1 1)">
        <path id="Trazado_1043107" data-name="Trazado 1043107" d="M54.533,29.175H46.08V27.3h5.635a7.513,7.513,0,0,0,0-15.027,7.381,7.381,0,0,0-1.536.162,11.241,11.241,0,0,0-15.863-6.4A13.946,13.946,0,0,0,23.54,1a14.144,14.144,0,0,0-13.286,9.431,8.452,8.452,0,1,0-.8,16.866h.939V34.81H3.818A2.821,2.821,0,0,0,1,37.628v3.757a2.8,2.8,0,0,0,.733,1.878A2.8,2.8,0,0,0,1,45.141V48.9a2.8,2.8,0,0,0,.733,1.878A2.8,2.8,0,0,0,1,52.654v3.757a2.821,2.821,0,0,0,2.818,2.818H18.844a2.821,2.821,0,0,0,2.818-2.818V52.654a2.8,2.8,0,0,0-.733-1.878,2.8,2.8,0,0,0,.733-1.878V45.141a2.8,2.8,0,0,0-.733-1.878,2.8,2.8,0,0,0,.733-1.878V37.628a2.821,2.821,0,0,0-2.818-2.818H12.27V27.3H36.688v1.878H28.236a4.7,4.7,0,0,0-4.7,4.7V48.9a4.7,4.7,0,0,0,4.7,4.7h4.7V57.35H29.175v1.878H53.593V57.35H49.837V53.593h4.7a4.7,4.7,0,0,0,4.7-4.7V33.871A4.7,4.7,0,0,0,54.533,29.175ZM19.783,45.141V48.9a.94.94,0,0,1-.939.939H3.818a.94.94,0,0,1-.939-.939V45.141a.94.94,0,0,1,.939-.939H18.844A.94.94,0,0,1,19.783,45.141Zm0,11.27a.94.94,0,0,1-.939.939H3.818a.94.94,0,0,1-.939-.939V52.654a.94.94,0,0,1,.939-.939H18.844a.94.94,0,0,1,.939.939Zm0-18.783v3.757a.94.94,0,0,1-.939.939H3.818a.94.94,0,0,1-.939-.939V37.628a.94.94,0,0,1,.939-.939H18.844A.94.94,0,0,1,19.783,37.628Zm34.749-6.574a2.821,2.821,0,0,1,2.818,2.818V46.08H53.593V42.585l-2.447-.816a10.261,10.261,0,0,0-.473-1.15l1.152-2.3L48.211,34.7,46.08,35.766V31.053ZM40.445,45.141a.939.939,0,1,1,.939.939A.94.94,0,0,1,40.445,45.141Zm.939-2.818a2.821,2.821,0,0,0-2.818,2.818,2.786,2.786,0,0,0,.173.939H36.793a4.7,4.7,0,1,1,9.183,0H44.029a2.786,2.786,0,0,0,.173-.939A2.821,2.821,0,0,0,41.384,42.323Zm0-3.757a6.583,6.583,0,0,0-6.574,6.574,6.51,6.51,0,0,0,.08.939H31.053V43.94l2.084-.694.137-.472a8.414,8.414,0,0,1,.7-1.694l.238-.432-.98-1.962,1.7-1.7,1.962.98.432-.238a8.307,8.307,0,0,1,1.694-.7l.472-.137.694-2.084h2.4l.694,2.084.472.137a8.414,8.414,0,0,1,1.694.7l.432.238,1.962-.98,1.7,1.7-.98,1.962.238.432a8.307,8.307,0,0,1,.7,1.694l.137.472,2.083.694v2.14H47.879a6.509,6.509,0,0,0,.08-.939,6.583,6.583,0,0,0-6.574-6.574ZM44.2,21.662V33.719l-.262-.787H38.83l-.263.787V21.662H34.885l5.705-7.132a1.046,1.046,0,0,1,1.585,0l5.707,7.133ZM9.453,25.418A6.573,6.573,0,1,1,10.725,12.4l.846.165.238-.829A12.255,12.255,0,0,1,23.54,2.878,12.1,12.1,0,0,1,33.325,7.81l.516.691.733-.454a9.363,9.363,0,0,1,14.049,5.761l.245,1.009.98-.345a5.633,5.633,0,1,1,1.868,10.946H46.08V23.54h5.71L43.643,13.355a2.894,2.894,0,0,0-4.518,0L30.978,23.54h5.71v1.878Zm18.783,5.635h8.453v4.713L34.557,34.7l-3.614,3.614,1.152,2.3a10.442,10.442,0,0,0-.473,1.15l-2.447.815V46.08H25.418V33.871A2.821,2.821,0,0,1,28.236,31.053Zm19.723,26.3H34.81V53.593H47.958Zm6.574-5.635h-26.3A2.821,2.821,0,0,1,25.418,48.9v-.939H57.35V48.9A2.821,2.821,0,0,1,54.533,51.715Z" transform="translate(-1 -1)"/>
        <path id="Trazado_1043108" data-name="Trazado 1043108" d="M9,41h1.878v1.878H9Z" transform="translate(-1.487 -3.433)"/>
        <path id="Trazado_1043109" data-name="Trazado 1043109" d="M13,41h1.878v1.878H13Z" transform="translate(-1.73 -3.433)"/>
        <path id="Trazado_1043110" data-name="Trazado 1043110" d="M5,41H6.878v1.878H5Z" transform="translate(-1.243 -3.433)"/>
        <path id="Trazado_1043111" data-name="Trazado 1043111" d="M9,49h1.878v1.878H9Z" transform="translate(-1.487 -3.92)"/>
        <path id="Trazado_1043112" data-name="Trazado 1043112" d="M17,49h1.878v1.878H17Z" transform="translate(-1.973 -3.92)"/>
        <path id="Trazado_1043113" data-name="Trazado 1043113" d="M13,49h1.878v1.878H13Z" transform="translate(-1.73 -3.92)"/>
        <path id="Trazado_1043114" data-name="Trazado 1043114" d="M9,57h1.878v1.878H9Z" transform="translate(-1.487 -4.407)"/>
        <path id="Trazado_1043115" data-name="Trazado 1043115" d="M13,57h1.878v1.878H13Z" transform="translate(-1.73 -4.407)"/>
        <path id="Trazado_1043116" data-name="Trazado 1043116" d="M5,57H6.878v1.878H5Z" transform="translate(-1.243 -4.407)"/>
        <path id="Trazado_1043117" data-name="Trazado 1043117" d="M14.22,13.266l1.842.374A8.458,8.458,0,0,1,27.725,7.582l.751-1.721A10.25,10.25,0,0,0,24.344,5,10.359,10.359,0,0,0,14.22,13.266Z" transform="translate(-1.804 -1.243)"/>
        <path id="Trazado_1043118" data-name="Trazado 1043118" d="M6.878,20H5a4.7,4.7,0,0,0,4.7,4.7h1.878V22.818H9.7A2.821,2.821,0,0,1,6.878,20Z" transform="translate(-1.243 -2.156)"/>
        <path id="Trazado_1043119" data-name="Trazado 1043119" d="M14,23h1.878v1.878H14Z" transform="translate(-1.791 -2.338)"/>
      </g>
    </g>
  </g>
</svg>
