<svg xmlns="http://www.w3.org/2000/svg" xmlns:xlink="http://www.w3.org/1999/xlink" width="98" height="98" viewBox="0 0 98 98">
  <defs>
    <filter id="Trazado_982547" x="0" y="0" width="98" height="98" filterUnits="userSpaceOnUse">
      <feOffset dy="3" input="SourceAlpha"/>
      <feGaussianBlur stdDeviation="3" result="blur"/>
      <feFlood flood-opacity="0.161"/>
      <feComposite operator="in" in2="blur"/>
      <feComposite in="SourceGraphic"/>
    </filter>
  </defs>
  <g id="Grupo_1219652" data-name="Grupo 1219652" transform="translate(-833 -808)">
    <g id="Grupo_1203187" data-name="Grupo 1203187" transform="translate(555 -2614.045)">
      <g id="Grupo_1178491" data-name="Grupo 1178491" transform="translate(287 3428.045)">
        <g id="Grupo_1172010" data-name="Grupo 1172010" transform="translate(0)">
          <g id="Grupo_1171046" data-name="Grupo 1171046">
            <g id="Grupo_1148525" data-name="Grupo 1148525">
              <g transform="matrix(1, 0, 0, 1, -9, -6)" filter="url(#Trazado_982547)">
                <g id="Trazado_982547-2" data-name="Trazado 982547" transform="translate(9 6)" fill="#fdeffe">
                  <path d="M 40 78.5 C 34.80187606811523 78.5 29.76003265380859 77.48227691650391 25.01452255249023 75.47509765625 C 20.43014526367188 73.53606414794922 16.31264495849609 70.75986480712891 12.77638912200928 67.22360992431641 C 9.240133285522461 63.68735504150391 6.46393346786499 59.56985473632812 4.524899959564209 54.98547744750977 C 2.517722129821777 50.23996734619141 1.5 45.19812393188477 1.5 40 C 1.5 34.80187606811523 2.517722129821777 29.76003265380859 4.524899959564209 25.01452255249023 C 6.46393346786499 20.43014526367188 9.240133285522461 16.31264495849609 12.77638912200928 12.77638912200928 C 16.31264495849609 9.240133285522461 20.43014526367188 6.46393346786499 25.01452255249023 4.524899959564209 C 29.76003265380859 2.517722129821777 34.80187606811523 1.5 40 1.5 C 45.19812393188477 1.5 50.23996734619141 2.517722129821777 54.98547744750977 4.524899959564209 C 59.56985473632812 6.46393346786499 63.68735504150391 9.240133285522461 67.22360992431641 12.77638912200928 C 70.75986480712891 16.31264495849609 73.53606414794922 20.43014526367188 75.47509765625 25.01452255249023 C 77.48227691650391 29.76003265380859 78.5 34.80187606811523 78.5 40 C 78.5 45.19812393188477 77.48227691650391 50.23996734619141 75.47509765625 54.98547744750977 C 73.53606414794922 59.56985473632812 70.75986480712891 63.68735504150391 67.22360992431641 67.22360992431641 C 63.68735504150391 70.75986480712891 59.56985473632812 73.53606414794922 54.98547744750977 75.47509765625 C 50.23996734619141 77.48227691650391 45.19812393188477 78.5 40 78.5 Z" stroke="none"/>
                  <path d="M 40 3 C 35.00370788574219 3 30.15846633911133 3.977851867675781 25.59885406494141 5.906410217285156 C 21.19327926635742 7.769813537597656 17.23603820800781 10.43806457519531 13.83705139160156 13.83705139160156 C 10.43806457519531 17.23603820800781 7.769813537597656 21.19327926635742 5.906410217285156 25.59885406494141 C 3.977851867675781 30.15846633911133 3 35.00370788574219 3 40 C 3 44.99629211425781 3.977851867675781 49.84153366088867 5.906410217285156 54.40114593505859 C 7.769813537597656 58.80672073364258 10.43806457519531 62.76396179199219 13.83705139160156 66.16294860839844 C 17.23603820800781 69.56193542480469 21.19327926635742 72.23018646240234 25.59885406494141 74.09358978271484 C 30.15846633911133 76.02214813232422 35.00370788574219 77 40 77 C 44.99629211425781 77 49.84153366088867 76.02214813232422 54.40114593505859 74.09358978271484 C 58.80672073364258 72.23018646240234 62.76396179199219 69.56193542480469 66.16294860839844 66.16294860839844 C 69.56193542480469 62.76396179199219 72.23018646240234 58.80672073364258 74.09358978271484 54.40114593505859 C 76.02214813232422 49.84153366088867 77 44.99629211425781 77 40 C 77 35.00370788574219 76.02214813232422 30.15846633911133 74.09358978271484 25.59885406494141 C 72.23018646240234 21.19327926635742 69.56193542480469 17.23603820800781 66.16294860839844 13.83705139160156 C 62.76396179199219 10.43806457519531 58.80672073364258 7.769813537597656 54.40114593505859 5.906410217285156 C 49.84153366088867 3.977851867675781 44.99629211425781 3 40 3 M 40 0 C 62.09138488769531 0 80 17.90861511230469 80 40 C 80 62.09138488769531 62.09138488769531 80 40 80 C 17.90861511230469 80 0 62.09138488769531 0 40 C 0 17.90861511230469 17.90861511230469 0 40 0 Z" stroke="none" fill="#ee70f7"/>
                </g>
              </g>
            </g>
          </g>
        </g>
      </g>
    </g>
    <g id="avatar_1_" data-name="avatar (1)" transform="translate(854.463 826.795)">
      <path id="Trazado_1043210" data-name="Trazado 1043210" d="M474.674,474.409a4.3,4.3,0,0,1-6.076,0l-6.614-6.614,6.076-6.076,6.613,6.613A4.3,4.3,0,0,1,474.674,474.409Zm0,0" transform="translate(-423.513 -423.579)" fill="#6e563d"/>
      <path id="Trazado_1043211" data-name="Trazado 1043211" d="M470.018,517.476l-6.062-6.062-1.971,1.971L468.6,520a4.3,4.3,0,0,0,7.273-2.317A4.3,4.3,0,0,1,470.018,517.476Zm0,0" transform="translate(-423.513 -469.17)" fill="#634c38"/>
      <path id="Trazado_1043212" data-name="Trazado 1043212" d="M427.681,427.416a21.452,21.452,0,0,1-2.151,1.882l4.033,4.033L433.6,429.3l-4.033-4.033A21.605,21.605,0,0,1,427.681,427.416Zm0,0" transform="translate(-390.071 -390.137)" fill="#ffcd2c"/>
      <path id="Trazado_1043213" data-name="Trazado 1043213" d="M46.253,15.685a21.381,21.381,0,1,0,0,30.238A21.382,21.382,0,0,0,46.253,15.685Zm0,0" transform="translate(-8.638 -8.644)" fill="#ffdf65"/>
      <path id="Trazado_1043214" data-name="Trazado 1043214" d="M268.169,15.693a21.329,21.329,0,0,0-16.52-6.216,21.381,21.381,0,0,1,0,42.67,21.381,21.381,0,0,0,16.52-36.454Zm0,0" transform="translate(-230.553 -8.652)" fill="#ffcd2c"/>
      <path id="Trazado_1043215" data-name="Trazado 1043215" d="M100.226,82.373A16.623,16.623,0,1,1,83.6,65.75a16.623,16.623,0,0,1,16.623,16.623Zm0,0" transform="translate(-61.139 -60.319)" fill="#e0e0e0"/>
      <path id="Trazado_1043216" data-name="Trazado 1043216" d="M252.662,65.75c-.472,0-.939.021-1.4.059a16.623,16.623,0,0,1,0,33.127c.462.039.928.059,1.4.059a16.623,16.623,0,0,0,0-33.246Zm0,0" transform="translate(-230.198 -60.319)" fill="#c4c4c4"/>
      <path id="Trazado_1043217" data-name="Trazado 1043217" d="M187.547,203.25a7.962,7.962,0,0,1-6.742,3.42,9.132,9.132,0,0,1-3.149-.455v3.835a7.213,7.213,0,0,0,14.426,0v-3.288a8.9,8.9,0,0,1-4.535-3.512Zm0,0" transform="translate(-162.672 -186.461)" fill="#ffc89f"/>
      <path id="Trazado_1043218" data-name="Trazado 1043218" d="M253.836,226.859v4.85a7.214,7.214,0,0,1-5.813,7.076,7.215,7.215,0,0,0,8.613-7.076v-3.288A9.113,9.113,0,0,1,253.836,226.859Zm0,0" transform="translate(-227.227 -208.119)" fill="#f7bc94"/>
      <path id="Trazado_1043219" data-name="Trazado 1043219" d="M150.055,248.14v-3.288a1.926,1.926,0,1,0,.011,3.685C150.059,248.4,150.055,248.273,150.055,248.14Zm0,0" transform="translate(-135.071 -224.55)" fill="#eaa37d"/>
      <path id="Trazado_1043220" data-name="Trazado 1043220" d="M352.176,248.14v-3.288a1.926,1.926,0,1,1-.011,3.685C352.172,248.4,352.176,248.273,352.176,248.14Zm0,0" transform="translate(-322.765 -224.55)" fill="#eaa37d"/>
      <path id="Trazado_1043221" data-name="Trazado 1043221" d="M147.087,130.538a7.962,7.962,0,0,1-6.742,3.42c-5.962.077-7.012-4.055-6.758-6.12,0,0,2.219,1.328,3.185.519s3.1-4.2,6.885-4.356c3.821-.159,4.56,1.663,4.56,1.663s2.21-.768,3.6.631c2.5,2.52,1.28,6.715-.191,7.756a8.9,8.9,0,0,1-4.535-3.512Zm0,0" transform="translate(-122.212 -113.748)" fill="#6e563d"/>
      <path id="Trazado_1043222" data-name="Trazado 1043222" d="M311.686,148.733a9.1,9.1,0,0,0,2.8,1.562c1.47-1.041,2.687-5.235.191-7.756-1.386-1.4-3.6-.631-3.6-.631,4.354,3.39.6,6.824.6,6.824Zm0,0" transform="translate(-285.077 -129.994)" fill="#634c38"/>
      <path id="Trazado_1043223" data-name="Trazado 1043223" d="M150.215,351.652a7.213,7.213,0,0,1-9.33.085,12.636,12.636,0,0,0-6.143,5.376,16.621,16.621,0,0,0,21.9.131,12.633,12.633,0,0,0-6.429-5.592Zm0,0" transform="translate(-123.302 -322.604)" fill="#ff3d43"/>
      <path id="Trazado_1043224" data-name="Trazado 1043224" d="M308.48,358.385a16.631,16.631,0,0,0,1.852-1.391,12.635,12.635,0,0,0-6.431-5.6,7.223,7.223,0,0,1-1.636,1.064A14.608,14.608,0,0,1,308.48,358.385Zm0,0" transform="translate(-276.988 -322.372)" fill="#d72e2e"/>
      <path id="Trazado_1043225" data-name="Trazado 1043225" d="M233.158,364.739a7.191,7.191,0,0,1-2.865-.592v0a3.022,3.022,0,1,0,6.043,0c0-.05,0-.1,0-.147A7.186,7.186,0,0,1,233.158,364.739Zm0,0" transform="translate(-210.961 -333.936)" fill="#ffc89f"/>
      <path id="Trazado_1043226" data-name="Trazado 1043226" d="M51.711,44.2,45.1,37.59a.778.778,0,0,0-1.1,0l-.472.471-3-3a21.92,21.92,0,0,0,3.941-9.98.778.778,0,0,0-1.543-.2A20.606,20.606,0,0,1,22.5,42.764,20.6,20.6,0,1,1,43.1,21.871a.778.778,0,1,0,1.556-.022A22.159,22.159,0,0,0,6.828,6.491,22.16,22.16,0,0,0,22.5,44.32a21.992,21.992,0,0,0,12.89-4.13l3.005,3-.471.472a.778.778,0,0,0,0,1.1l6.614,6.613A5.075,5.075,0,0,0,51.711,44.2ZM36.629,39.23q.8-.662,1.538-1.4t1.4-1.531l2.863,2.863-2.933,2.932ZM50.61,50.279a3.518,3.518,0,0,1-4.976,0l-6.064-6.064,4.976-4.976L50.611,45.3a3.523,3.523,0,0,1,0,4.976Zm0,0" transform="translate(0)"/>
      <path id="Trazado_1043227" data-name="Trazado 1043227" d="M207.579,271.525a1.216,1.216,0,1,0-1.216-1.216A1.217,1.217,0,0,0,207.579,271.525Zm0,0" transform="translate(-189.008 -246.865)"/>
      <path id="Trazado_1043228" data-name="Trazado 1043228" d="M295.368,271.525a1.216,1.216,0,1,0-1.216-1.216A1.217,1.217,0,0,0,295.368,271.525Zm0,0" transform="translate(-269.545 -246.865)"/>
      <path id="Trazado_1043229" data-name="Trazado 1043229" d="M239.31,307.125a2.375,2.375,0,0,0,2.276-1.671.778.778,0,0,0-1.485-.465.829.829,0,0,1-1.581,0,.778.778,0,1,0-1.485.465A2.373,2.373,0,0,0,239.31,307.125Zm0,0" transform="translate(-217.113 -279.295)"/>
      <path id="Trazado_1043230" data-name="Trazado 1043230" d="M63.789,84.967a15.775,15.775,0,0,1-3.7-5.768.778.778,0,1,0-1.461.536,17.412,17.412,0,1,0-1.063-6,17.6,17.6,0,0,0,.231,2.843.778.778,0,0,0,1.536-.253,15.846,15.846,0,1,1,31.479-2.591A15.8,15.8,0,0,1,86,85.092a13.434,13.434,0,0,0-5.243-4.622,7.959,7.959,0,0,0,1.831-3.943,2.7,2.7,0,0,0,.872-5.217,7.1,7.1,0,0,0,.828-2.781,6.009,6.009,0,0,0-1.635-4.85,4.183,4.183,0,0,0-3.808-.97c-.582-.685-1.948-1.678-4.933-1.554a7.3,7.3,0,0,0-2.637.615.778.778,0,1,0,.624,1.425,5.763,5.763,0,0,1,2.077-.486,5.671,5.671,0,0,1,3.141.575,1.775,1.775,0,0,1,.67.615.748.748,0,0,0,.973.431,3,3,0,0,1,2.787.443,4.544,4.544,0,0,1,1.19,3.62,4.992,4.992,0,0,1-1,2.7,8.013,8.013,0,0,1-3.7-3.03.785.785,0,0,0-1.333.017,7.2,7.2,0,0,1-6.08,3.035c-2.2.028-3.836-.541-4.868-1.692a4.542,4.542,0,0,1-1.093-2.412,2.94,2.94,0,0,0,2.9-.123,9.242,9.242,0,0,0,.811-.835c.332-.368.708-.784,1.154-1.208a.778.778,0,1,0-1.071-1.128c-.489.465-.9.924-1.237,1.294a8.691,8.691,0,0,1-.656.685c-.3.253-1.477-.109-2.285-.59a.785.785,0,0,0-1.172.573A6.235,6.235,0,0,0,64.6,70.457a5.918,5.918,0,0,0,1.1.958,2.7,2.7,0,0,0,1.107,5.11,7.967,7.967,0,0,0,1.928,4.055,13.489,13.489,0,0,0-4.944,4.386Zm21.03,1.164a15.831,15.831,0,0,1-19.02.53c-.289-.2-.568-.42-.841-.642a11.914,11.914,0,0,1,5.014-4.31,7.96,7.96,0,0,0,1.115.687,3.8,3.8,0,0,0,7.551-.179,8.078,8.078,0,0,0,.9-.6,11.863,11.863,0,0,1,5.281,4.51ZM72.941,83.064a7.95,7.95,0,0,0,3.88-.092,2.24,2.24,0,0,1-3.88.092Zm9.746-8.112V72.7a1.148,1.148,0,0,1,0,2.254ZM65.776,73.825a1.15,1.15,0,0,1,.929-1.127v2.254a1.15,1.15,0,0,1-.929-1.127Zm2.485-1.368a11.1,11.1,0,0,0,2.381.21,8.957,8.957,0,0,0,6.71-2.9,9.866,9.866,0,0,0,3.778,2.751v2.747a6.435,6.435,0,1,1-12.87,0Zm0,0" transform="translate(-52.499 -51.68)"/>
    </g>
  </g>
</svg>
