<svg xmlns="http://www.w3.org/2000/svg" xmlns:xlink="http://www.w3.org/1999/xlink" width="98" height="98" viewBox="0 0 98 98">
  <defs>
    <filter id="Trazado_982547" x="0" y="0" width="98" height="98" filterUnits="userSpaceOnUse">
      <feOffset dy="3" input="SourceAlpha"/>
      <feGaussianBlur stdDeviation="3" result="blur"/>
      <feFlood flood-opacity="0.161"/>
      <feComposite operator="in" in2="blur"/>
      <feComposite in="SourceGraphic"/>
    </filter>
  </defs>
  <g id="Grupo_1219689" data-name="Grupo 1219689" transform="translate(-616 -1632)">
    <g id="Grupo_1203204" data-name="Grupo 1203204" transform="translate(338 -1790.045)">
      <g id="Grupo_1178491" data-name="Grupo 1178491" transform="translate(287 3428.045)">
        <g id="Grupo_1172010" data-name="Grupo 1172010" transform="translate(0)">
          <g id="Grupo_1171046" data-name="Grupo 1171046">
            <g id="Grupo_1148525" data-name="Grupo 1148525">
              <g transform="matrix(1, 0, 0, 1, -9, -6)" filter="url(#Trazado_982547)">
                <g id="Trazado_982547-2" data-name="Trazado 982547" transform="translate(9 6)" fill="#fdeffe">
                  <path d="M 40 78.5 C 34.80187606811523 78.5 29.76003265380859 77.48227691650391 25.01452255249023 75.47509765625 C 20.43014526367188 73.53606414794922 16.31264495849609 70.75986480712891 12.77638912200928 67.22360992431641 C 9.240133285522461 63.68735504150391 6.46393346786499 59.56985473632812 4.524899959564209 54.98547744750977 C 2.517722129821777 50.23996734619141 1.5 45.19812393188477 1.5 40 C 1.5 34.80187606811523 2.517722129821777 29.76003265380859 4.524899959564209 25.01452255249023 C 6.46393346786499 20.43014526367188 9.240133285522461 16.31264495849609 12.77638912200928 12.77638912200928 C 16.31264495849609 9.240133285522461 20.43014526367188 6.46393346786499 25.01452255249023 4.524899959564209 C 29.76003265380859 2.517722129821777 34.80187606811523 1.5 40 1.5 C 45.19812393188477 1.5 50.23996734619141 2.517722129821777 54.98547744750977 4.524899959564209 C 59.56985473632812 6.46393346786499 63.68735504150391 9.240133285522461 67.22360992431641 12.77638912200928 C 70.75986480712891 16.31264495849609 73.53606414794922 20.43014526367188 75.47509765625 25.01452255249023 C 77.48227691650391 29.76003265380859 78.5 34.80187606811523 78.5 40 C 78.5 45.19812393188477 77.48227691650391 50.23996734619141 75.47509765625 54.98547744750977 C 73.53606414794922 59.56985473632812 70.75986480712891 63.68735504150391 67.22360992431641 67.22360992431641 C 63.68735504150391 70.75986480712891 59.56985473632812 73.53606414794922 54.98547744750977 75.47509765625 C 50.23996734619141 77.48227691650391 45.19812393188477 78.5 40 78.5 Z" stroke="none"/>
                  <path d="M 40 3 C 35.00370788574219 3 30.15846633911133 3.977851867675781 25.59885406494141 5.906410217285156 C 21.19327926635742 7.769813537597656 17.23603820800781 10.43806457519531 13.83705139160156 13.83705139160156 C 10.43806457519531 17.23603820800781 7.769813537597656 21.19327926635742 5.906410217285156 25.59885406494141 C 3.977851867675781 30.15846633911133 3 35.00370788574219 3 40 C 3 44.99629211425781 3.977851867675781 49.84153366088867 5.906410217285156 54.40114593505859 C 7.769813537597656 58.80672073364258 10.43806457519531 62.76396179199219 13.83705139160156 66.16294860839844 C 17.23603820800781 69.56193542480469 21.19327926635742 72.23018646240234 25.59885406494141 74.09358978271484 C 30.15846633911133 76.02214813232422 35.00370788574219 77 40 77 C 44.99629211425781 77 49.84153366088867 76.02214813232422 54.40114593505859 74.09358978271484 C 58.80672073364258 72.23018646240234 62.76396179199219 69.56193542480469 66.16294860839844 66.16294860839844 C 69.56193542480469 62.76396179199219 72.23018646240234 58.80672073364258 74.09358978271484 54.40114593505859 C 76.02214813232422 49.84153366088867 77 44.99629211425781 77 40 C 77 35.00370788574219 76.02214813232422 30.15846633911133 74.09358978271484 25.59885406494141 C 72.23018646240234 21.19327926635742 69.56193542480469 17.23603820800781 66.16294860839844 13.83705139160156 C 62.76396179199219 10.43806457519531 58.80672073364258 7.769813537597656 54.40114593505859 5.906410217285156 C 49.84153366088867 3.977851867675781 44.99629211425781 3 40 3 M 40 0 C 62.09138488769531 0 80 17.90861511230469 80 40 C 80 62.09138488769531 62.09138488769531 80 40 80 C 17.90861511230469 80 0 62.09138488769531 0 40 C 0 17.90861511230469 17.90861511230469 0 40 0 Z" stroke="none" fill="#ee70f7"/>
                </g>
              </g>
            </g>
          </g>
        </g>
      </g>
    </g>
    <g id="equilibrar_7_" data-name="equilibrar (7)" transform="translate(638.947 1652.7)">
      <g id="Grupo_1219687" data-name="Grupo 1219687" transform="translate(1.413 0.742)">
        <g id="Grupo_1219684" data-name="Grupo 1219684" transform="translate(12.648 7.821)">
          <path id="Trazado_1043285" data-name="Trazado 1043285" d="M236.938,86.653h2.71V120.84h-2.71Z" transform="translate(-226.83 -86.653)" fill="#f2f2f2"/>
          <path id="Trazado_1043286" data-name="Trazado 1043286" d="M255.295,86.651h1.791v34.188h-1.791Z" transform="translate(-243.373 -86.651)" fill="#e5e5e5"/>
          <path id="Trazado_1043287" data-name="Trazado 1043287" d="M223.659,389.962l-2.006.7-2.539-.7a1.141,1.141,0,0,1-1.137-1.137v-.4a1.141,1.141,0,0,1,1.137-1.137h2.55l2.343.249a1.141,1.141,0,0,1,1.137,1.137c0,.625-.86,1.291-1.485,1.291Z" transform="translate(-209.742 -357.575)" fill="#e5e5e5"/>
          <path id="Trazado_1043288" data-name="Trazado 1043288" d="M258.955,388.42v.4a1.141,1.141,0,0,1-1.137,1.137l-1.416.516-1.112-.516v-2.676h2.528A1.141,1.141,0,0,1,258.955,388.42Z" transform="translate(-243.369 -357.573)" fill="#d9d8db"/>
          <path id="Trazado_1043289" data-name="Trazado 1043289" d="M177.391,418.148l-9.22,1.073-9.306-1.073a2.393,2.393,0,0,0,2.393-2.393,2.1,2.1,0,0,1,2.1-2.1h4.326l.7.328.7-.328h.857l2.793.148a2.1,2.1,0,0,1,2.1,2.1,2.27,2.27,0,0,0,.9,1.544A2.309,2.309,0,0,0,177.391,418.148Z" transform="translate(-156.473 -381.342)" fill="#6f6571"/>
          <path id="Trazado_1043290" data-name="Trazado 1043290" d="M158.04,461.625l-.026,1.472a.187.187,0,0,1-.187.187l-3.095.294h-7.462l-.7-.454-.7.454H134.844a.187.187,0,0,1-.187-.187v-1.909a2.391,2.391,0,0,1,2.392-2.392h15.6l3,.144a2.392,2.392,0,0,1,2.392,2.392Z" transform="translate(-134.657 -422.283)" fill="#807782"/>
          <path id="Trazado_1043291" data-name="Trazado 1043291" d="M276.39,418.148l-1.005.439-2.287-.43-.453-.009a2.393,2.393,0,0,1-2.393-2.393,2.1,2.1,0,0,0-2.1-2.1H271.9a2.1,2.1,0,0,1,2.1,2.1,2.393,2.393,0,0,0,2.393,2.393Z" transform="translate(-254.962 -381.342)" fill="#5d5360"/>
          <path id="Trazado_1043292" data-name="Trazado 1043292" d="M319.725,461.481v1.909a.188.188,0,0,1-.187.187h-3.558v-2.1a2.392,2.392,0,0,0-2.392-2.392h3.745A2.392,2.392,0,0,1,319.725,461.481Z" transform="translate(-295.904 -422.283)" fill="#6f6571"/>
        </g>
        <circle id="Elipse_12638" data-name="Elipse 12638" cx="2.468" cy="2.468" r="2.468" transform="translate(6.66 3.683)" fill="#c3ddff"/>
        <path id="Trazado_1043293" data-name="Trazado 1043293" d="M196.2,13.133l.275-1.234a5.621,5.621,0,0,1,10.968,2.468l-.267,1.2Z" transform="translate(-177.474 -7.511)" fill="#dbe9ff"/>
        <circle id="Elipse_12639" data-name="Elipse 12639" cx="2.432" cy="2.432" r="2.432" transform="translate(22.056 3.19)" fill="#c3ddff"/>
        <circle id="Elipse_12640" data-name="Elipse 12640" cx="2.468" cy="2.468" r="2.468" transform="translate(37.757 10.338)" fill="#c3ddff"/>
        <path id="Trazado_1043294" data-name="Trazado 1043294" d="M94.923,38.374l-2.5-.208L57.641,30.726a.988.988,0,0,1-.76-1.173l.3-1.407a.988.988,0,0,1,1.173-.76l34.783,7.441,2.233.794a.988.988,0,0,1,.76,1.173l-.034.821A.988.988,0,0,1,94.923,38.374Z" transform="translate(-51.899 -25.402)" fill="#807782"/>
        <path id="Trazado_1043295" data-name="Trazado 1043295" d="M420.884,104.626l-.3,1.407a.987.987,0,0,1-1.173.759l-2.673-.572.715-3.339,2.673.572a.989.989,0,0,1,.76,1.173Z" transform="translate(-376.212 -93.456)" fill="#6f6571"/>
        <path id="Trazado_1043296" data-name="Trazado 1043296" d="M23.987,169.188a8.137,8.137,0,0,1-8.42,8.455c-4.078,0-7.038-2.523-8.563-5.968a8.892,8.892,0,0,1,14.788-8.75A10.65,10.65,0,0,1,23.987,169.188Z" transform="translate(-6.675 -145.275)" fill="#bbec6c"/>
        <path id="Trazado_1043297" data-name="Trazado 1043297" d="M27.45,192.468A8.892,8.892,0,0,1,10,194.87,8.9,8.9,0,0,0,19.2,196.9c.022-.008.076-.208.1-.216.088-.032.144.127.231.092a8.9,8.9,0,0,0,5.253-10.659,8.862,8.862,0,0,1,2.665,6.348Z" transform="translate(-9.669 -168.469)" fill="#a0e254"/>
        <path id="Trazado_1043298" data-name="Trazado 1043298" d="M340.6,236.613c0,4.91-3.051,8.133-7.962,8.133a9.323,9.323,0,0,1-7.912-4.075,8.892,8.892,0,0,1,13.356-11.087A10.408,10.408,0,0,1,340.6,236.613Z" transform="translate(-292.411 -205.96)" fill="#fe7f86"/>
        <path id="Trazado_1043299" data-name="Trazado 1043299" d="M350.446,253.59a8.892,8.892,0,0,1-16.8,4.058A8.892,8.892,0,0,0,347,246.561,8.874,8.874,0,0,1,350.446,253.59Z" transform="translate(-301.331 -222.937)" fill="#f76d7b"/>
        <g id="Grupo_1219685" data-name="Grupo 1219685" transform="translate(35.55 26.827)">
          <path id="Trazado_1043300" data-name="Trazado 1043300" d="M371.207,286.79a.3.3,0,0,1-.419,0l-.94-.705-2.677-2.677a2.6,2.6,0,0,1,3.673-3.673l.032.032a.3.3,0,0,0,.419,0l.032-.032a2.6,2.6,0,0,1,2.728-.6,7.345,7.345,0,0,1,.926.689,2.545,2.545,0,0,1-.356,3.607Z" transform="translate(-366.409 -278.975)" fill="#f2f2f2"/>
        </g>
        <g id="Grupo_1219686" data-name="Grupo 1219686" transform="translate(38.988 26.985)">
          <path id="Trazado_1043301" data-name="Trazado 1043301" d="M406.347,284.846l-3.7,3.7a.3.3,0,0,1-.42,0l-1.027-1.028,3.8-3.8a2.6,2.6,0,0,0,.4-3.15,2.6,2.6,0,0,1,.945,4.275Z" transform="translate(-401.196 -280.571)" fill="#e5e5e5"/>
        </g>
      </g>
      <g id="Grupo_1219688" data-name="Grupo 1219688" transform="translate(0.836 0)">
        <path id="Trazado_1043302" data-name="Trazado 1043302" d="M71.726,200.424a2.129,2.129,0,0,1-1.528-.4.741.741,0,1,0-.811,1.241,3.341,3.341,0,0,0,1.65.62v.624a.741.741,0,0,0,1.482,0v-.714a2.812,2.812,0,0,0,1.948-2.21,2.476,2.476,0,0,0-1.683-2.8c-.175-.062-.343-.118-.5-.172a3.1,3.1,0,0,1-1.263-.6.994.994,0,0,1-.231-.936.851.851,0,0,1,.6-.589,1.267,1.267,0,0,1,1.3.291.74.74,0,1,0,1.114-.976h0a2.878,2.878,0,0,0-1.276-.765v-.7a.741.741,0,0,0-1.482,0v.705a2.449,2.449,0,0,0-1.674,1.619,2.483,2.483,0,0,0,.536,2.32,4.019,4.019,0,0,0,1.912,1.034c.153.051.313.1.48.164A.988.988,0,0,1,73,199.337,1.289,1.289,0,0,1,71.726,200.424Z" transform="translate(-62.309 -172.661)"/>
        <path id="Trazado_1043303" data-name="Trazado 1043303" d="M46.612,23.15,42.8,16.541a3.24,3.24,0,0,0,.586-.3,3.187,3.187,0,0,0,1.2-1.418,1.711,1.711,0,0,0,1.925-1.35l.3-1.407a1.731,1.731,0,0,0-1.329-2.053L32.211,7.176a6.361,6.361,0,0,0-12.4-2.652L8.024,2A1.729,1.729,0,0,0,5.971,3.331l-.3,1.407A1.73,1.73,0,0,0,7,6.791l.333.071A3.218,3.218,0,0,0,9.188,9.8L5.327,16.5A9.618,9.618,0,0,0,.85,22.889a.741.741,0,0,0,1.455.283,8.149,8.149,0,1,1,.007,3.172.741.741,0,1,0-1.454.29A9.632,9.632,0,1,0,15.279,16.5L11.507,9.952a3.219,3.219,0,0,0,1.974-1.775l10.041,2.148v21.93a.741.741,0,0,0,1.482,0V10.643l1.933.414V37.532H25V35.714a.741.741,0,0,0-1.482,0v1.82a1.928,1.928,0,0,0-1.872,1.924v.235a1.918,1.918,0,0,0,.054.445h-.761A2.841,2.841,0,0,0,18.1,42.976a1.653,1.653,0,0,1-1.652,1.652,3.137,3.137,0,0,0-3.134,3.134v2.1a.741.741,0,0,0,.741.741H37.882a.741.741,0,0,0,.741-.741v-2.1a3.137,3.137,0,0,0-3.134-3.134,1.653,1.653,0,0,1-1.652-1.652A2.841,2.841,0,0,0,31,40.138h-.761a1.918,1.918,0,0,0,.054-.445v-.235a1.928,1.928,0,0,0-1.872-1.924V11.373l2.518.539a.741.741,0,1,0,.31-1.45L7.309,5.342a.247.247,0,0,1-.19-.293l.3-1.407a.247.247,0,0,1,.293-.19L45.17,11.464a.247.247,0,0,1,.19.293l-.3,1.407a.247.247,0,0,1-.293.19L34.63,11.186a.741.741,0,1,0-.31,1.45l4.108.879a3.212,3.212,0,0,0,2.051,3.027L36.664,23.15a9.631,9.631,0,1,0,10.36,16.232.741.741,0,1,0-.83-1.228,8.147,8.147,0,1,1,2.218-2.226.741.741,0,0,0,1.231.825,9.631,9.631,0,0,0-3.032-13.6ZM25.23,49.117H14.8V47.761a1.653,1.653,0,0,1,1.651-1.651H25.23v3.007Zm0-4.489H19.115a3.114,3.114,0,0,0,.472-1.652,1.357,1.357,0,0,1,1.355-1.355H25.23v3.007ZM35.489,46.11a1.653,1.653,0,0,1,1.651,1.651v1.355H26.712V46.11ZM31,41.621a1.357,1.357,0,0,1,1.355,1.355,3.114,3.114,0,0,0,.472,1.652H26.712V41.621Zm-2.19-2.162v.235a.451.451,0,0,1-.445.445H23.577a.451.451,0,0,1-.445-.445v-.235a.451.451,0,0,1,.445-.445h4.788A.451.451,0,0,1,28.81,39.459ZM9.563,15.139a9.584,9.584,0,0,0-1.945.354L9.563,12.12Zm3.425.351a9.573,9.573,0,0,0-1.942-.353V12.12ZM11.973,7.855a1.725,1.725,0,0,1-3.133-.67ZM24.44,5.513a1.69,1.69,0,0,1,3.142.672Zm6.315,1.351L29.072,6.5a3.174,3.174,0,0,0-6.121-1.309l-1.684-.36a4.879,4.879,0,0,1,9.487,2.03ZM40.9,21.792a9.575,9.575,0,0,0-1.94.352l1.94-3.361Zm.38-6.555a1.728,1.728,0,0,1-1.34-1.4l3.136.671a1.726,1.726,0,0,1-1.8.729Zm1.1,6.555V18.783l1.941,3.361A9.576,9.576,0,0,0,42.379,21.792Z" transform="translate(-0.836 0)"/>
        <path id="Trazado_1043304" data-name="Trazado 1043304" d="M364.325,272.214a3.338,3.338,0,0,0-4.438,4.973L363.8,281.1a.741.741,0,0,0,1.048,0l3.914-3.914a3.338,3.338,0,0,0-4.438-4.973Zm3.39,3.925-3.39,3.39-3.39-3.39a1.856,1.856,0,0,1,2.624-2.624l.241.241a.741.741,0,0,0,1.048,0l.241-.241a1.856,1.856,0,0,1,2.625,2.624Z" transform="translate(-323.523 -244.661)"/>
      </g>
    </g>
  </g>
</svg>
