<svg xmlns="http://www.w3.org/2000/svg" xmlns:xlink="http://www.w3.org/1999/xlink" width="118" height="118" viewBox="0 0 118 118">
  <defs>
    <filter id="Trazado_982547" x="0" y="0" width="118" height="118" filterUnits="userSpaceOnUse">
      <feOffset dy="3" input="SourceAlpha"/>
      <feGaussianBlur stdDeviation="3" result="blur"/>
      <feFlood flood-opacity="0.161"/>
      <feComposite operator="in" in2="blur"/>
      <feComposite in="SourceGraphic"/>
    </filter>
  </defs>
  <g id="Grupo_1219767" data-name="Grupo 1219767" transform="translate(-1161 -1457)">
    <g id="Grupo_1219595" data-name="Grupo 1219595" transform="translate(0.25 202.257)">
      <g id="Grupo_1202659" data-name="Grupo 1202659" transform="translate(1172.25 1263.243)">
        <g id="Grupo_1174813" data-name="Grupo 1174813" transform="translate(-2.5 -2.5)">
          <g id="Grupo_1201680" data-name="Grupo 1201680">
            <g id="Grupo_1201330" data-name="Grupo 1201330">
              <g id="Grupo_1172010" data-name="Grupo 1172010">
                <g id="Grupo_1171046" data-name="Grupo 1171046">
                  <g id="Grupo_1148525" data-name="Grupo 1148525">
                    <g transform="matrix(1, 0, 0, 1, -9, -6)" filter="url(#Trazado_982547)">
                      <g id="Trazado_982547-2" data-name="Trazado 982547" transform="translate(9 6)" fill="#fef4ec">
                        <path d="M 50 98.5 C 43.45188522338867 98.5 37.10042953491211 97.21787261962891 31.12207221984863 94.68923950195312 C 25.34691429138184 92.24655914306641 20.15997123718262 88.74931335449219 15.70532894134521 84.29468536376953 C 11.2506856918335 79.84004211425781 7.753442764282227 74.65309906005859 5.310757160186768 68.8779296875 C 2.782128572463989 62.89957046508789 1.5 56.54811477661133 1.5 50 C 1.5 43.45188522338867 2.782128572463989 37.10042953491211 5.310757160186768 31.12207221984863 C 7.753442764282227 25.34691429138184 11.2506856918335 20.15997123718262 15.70532894134521 15.70532894134521 C 20.15997123718262 11.2506856918335 25.34691429138184 7.753442764282227 31.12207221984863 5.310757160186768 C 37.10042953491211 2.782128572463989 43.45188522338867 1.5 50 1.5 C 56.54811477661133 1.5 62.89957046508789 2.782128572463989 68.8779296875 5.310757160186768 C 74.65309906005859 7.753442764282227 79.84004211425781 11.2506856918335 84.29468536376953 15.70532894134521 C 88.74931335449219 20.15997123718262 92.24655914306641 25.34691429138184 94.68923950195312 31.12207221984863 C 97.21787261962891 37.10042953491211 98.5 43.45188522338867 98.5 50 C 98.5 56.54811477661133 97.21787261962891 62.89957046508789 94.68923950195312 68.8779296875 C 92.24655914306641 74.65309906005859 88.74931335449219 79.84004211425781 84.29468536376953 84.29468536376953 C 79.84004211425781 88.74931335449219 74.65309906005859 92.24655914306641 68.8779296875 94.68923950195312 C 62.89957046508789 97.21787261962891 56.54811477661133 98.5 50 98.5 Z" stroke="none"/>
                        <path d="M 50 3 C 43.65372467041016 3 37.49886322021484 4.242263793945312 31.70639801025391 6.6922607421875 C 26.11003112792969 9.059326171875 21.08335113525391 12.44861602783203 16.76598358154297 16.76598358154297 C 12.44861602783203 21.08335113525391 9.059326171875 26.11003112792969 6.6922607421875 31.70639801025391 C 4.242263793945312 37.49886322021484 3 43.65372467041016 3 50 C 3 56.34627532958984 4.242263793945312 62.50113677978516 6.6922607421875 68.29360198974609 C 9.059326171875 73.88996887207031 12.44861602783203 78.91666412353516 16.76598358154297 83.23401641845703 C 21.08335113525391 87.55138397216797 26.11003112792969 90.940673828125 31.70639801025391 93.3077392578125 C 37.49886322021484 95.75773620605469 43.65372467041016 97 50 97 C 56.34627532958984 97 62.50113677978516 95.75773620605469 68.29360198974609 93.3077392578125 C 73.88996887207031 90.940673828125 78.91666412353516 87.55138397216797 83.23401641845703 83.23401641845703 C 87.55138397216797 78.91666412353516 90.940673828125 73.88996887207031 93.3077392578125 68.29360198974609 C 95.75773620605469 62.50113677978516 97 56.34627532958984 97 50 C 97 43.65372467041016 95.75773620605469 37.49886322021484 93.3077392578125 31.70639801025391 C 90.940673828125 26.11003112792969 87.55138397216797 21.08335113525391 83.23401641845703 16.76598358154297 C 78.91666412353516 12.44861602783203 73.88996887207031 9.059326171875 68.29360198974609 6.6922607421875 C 62.50113677978516 4.242263793945312 56.34627532958984 3 50 3 M 50 0 C 77.61424255371094 0 100 22.38577270507812 100 50 C 100 77.61424255371094 77.61424255371094 100 50 100 C 22.38577270507812 100 0 77.61424255371094 0 50 C 0 22.38577270507812 22.38577270507812 0 50 0 Z" stroke="none" fill="#fe9d52"/>
                      </g>
                    </g>
                  </g>
                </g>
              </g>
            </g>
          </g>
        </g>
      </g>
    </g>
    <g id="pruebas_1_" data-name="pruebas (1)" transform="translate(1189.99 1482.999)">
      <g id="Grupo_1219765" data-name="Grupo 1219765" transform="translate(0.877 0.869)">
        <g id="Grupo_1219760" data-name="Grupo 1219760" transform="translate(0 14.447)">
          <path id="Trazado_1043416" data-name="Trazado 1043416" d="M94.074,136.822v29.789l-24.406,1.926-24.406-1.926V136.822a4.575,4.575,0,0,1,4.576-4.576H89.5A4.575,4.575,0,0,1,94.074,136.822Z" transform="translate(-40.888 -132.246)" fill="#f9f6f9"/>
          <path id="Trazado_1043417" data-name="Trazado 1043417" d="M94.073,412.011v1.964L69.667,415.9l-24.406-1.926v-1.964Z" transform="translate(-40.887 -379.611)" fill="#dddaec"/>
          <path id="Trazado_1043418" data-name="Trazado 1043418" d="M46.778,167.292l-1.514-.678V136.826a4.574,4.574,0,0,1,4.574-4.576H52.15a4.575,4.575,0,0,0-4.576,4.576v29.789Z" transform="translate(-40.89 -132.25)" fill="#dddaec"/>
          <path id="Trazado_1043419" data-name="Trazado 1043419" d="M60.687,428.975H11.875a4.373,4.373,0,1,0,0,8.747H60.687a4.373,4.373,0,1,0,0-8.747Z" transform="translate(-7.501 -394.61)" fill="#f9f6f9"/>
          <path id="Trazado_1043420" data-name="Trazado 1043420" d="M64.355,435.716a4.369,4.369,0,0,1-3.675,2H11.869a4.374,4.374,0,1,1,0-8.747h1.408a4.374,4.374,0,0,0,3.675,6.745h47.4Z" transform="translate(-7.495 -394.606)" fill="#dddaec"/>
          <path id="Trazado_1043421" data-name="Trazado 1043421" d="M83.262,193.659V172.569a2.324,2.324,0,0,1,2.324-2.324h35.363a2.323,2.323,0,0,1,2.323,2.323v21.091a2.149,2.149,0,0,1-2.149,2.149H85.411A2.149,2.149,0,0,1,83.262,193.659Z" transform="translate(-74.487 -165.844)" fill="#9dc6fb"/>
          <path id="Trazado_1043422" data-name="Trazado 1043422" d="M88.79,195.81H85.41a2.148,2.148,0,0,1-2.148-2.148V172.571a2.323,2.323,0,0,1,2.323-2.323h3.379a2.323,2.323,0,0,0-2.323,2.323v21.091A2.149,2.149,0,0,0,88.79,195.81Z" transform="translate(-74.487 -165.847)" fill="#80b4fb"/>
          <path id="Trazado_1043423" data-name="Trazado 1043423" d="M192.49,432.825H182.209a3.851,3.851,0,0,1-3.851-3.851h17.984A3.851,3.851,0,0,1,192.49,432.825Z" transform="translate(-158.57 -394.609)" fill="#cacaca"/>
        </g>
        <g id="Grupo_1219762" data-name="Grupo 1219762" transform="translate(15.751)">
          <path id="Trazado_1043424" data-name="Trazado 1043424" d="M167.846,22.219l-1.384-.574a9.918,9.918,0,0,0,0-2.237l1.383-.573a2.769,2.769,0,1,0-2.119-5.116l-1.383.573a9.923,9.923,0,0,0-1.583-1.581l.573-1.384a2.769,2.769,0,1,0-5.116-2.119l-.573,1.384a9.911,9.911,0,0,0-2.237,0l-.573-1.383a2.769,2.769,0,1,0-5.116,2.119l.573,1.383a9.922,9.922,0,0,0-1.581,1.583l-1.384-.573a2.768,2.768,0,1,0-2.119,5.116l1.384.573a9.943,9.943,0,0,0,0,2.237l-1.383.573a2.768,2.768,0,1,0,2.119,5.115l1.383-.573.02.024,0,0a9.87,9.87,0,0,0,1.56,1.554l-.574,1.384a2.767,2.767,0,0,0,3.705,3.578h0a2.754,2.754,0,0,0,1.41-1.46l.574-1.384a9.945,9.945,0,0,0,2.237,0l.573,1.383a2.768,2.768,0,1,0,5.116-2.119l-.573-1.383a9.939,9.939,0,0,0,1.581-1.582l1.384.573a2.769,2.769,0,1,0,2.119-5.115Zm-11.318,2.958a4.65,4.65,0,1,1,4.65-4.65A4.65,4.65,0,0,1,156.528,25.178Z" transform="translate(-143.499 -7.499)" fill="#4a80aa"/>
          <g id="Grupo_1219761" data-name="Grupo 1219761" transform="translate(0 0)">
            <path id="Trazado_1043425" data-name="Trazado 1043425" d="M265.933,10.593a9.918,9.918,0,0,1,2.237,0l.573-1.384a2.758,2.758,0,0,1,1.41-1.46l-.088-.039a2.767,2.767,0,0,0-3.618,1.5l-.544,1.314Z" transform="translate(-251.728 -7.5)" fill="#407093"/>
            <path id="Trazado_1043426" data-name="Trazado 1043426" d="M146.008,71.721a2.768,2.768,0,0,1,1.5-3.617l1.383-.573a9.944,9.944,0,0,1,0-2.237l-1.384-.573a2.768,2.768,0,0,1-.085-5.078l-.091-.038a2.768,2.768,0,1,0-2.119,5.116l1.384.573a9.944,9.944,0,0,0,0,2.237l-1.383.573a2.768,2.768,0,1,0,2.119,5.116l.091-.038A2.759,2.759,0,0,1,146.008,71.721Z" transform="translate(-143.501 -53.384)" fill="#407093"/>
            <path id="Trazado_1043427" data-name="Trazado 1043427" d="M268.743,207.162l-.573-1.383a9.947,9.947,0,0,1-2.237,0l-.029.07.544,1.313a2.768,2.768,0,0,0,3.618,1.5l.088-.039A2.757,2.757,0,0,1,268.743,207.162Z" transform="translate(-251.728 -182.815)" fill="#407093"/>
            <path id="Trazado_1043428" data-name="Trazado 1043428" d="M193.216,180.371a2.768,2.768,0,0,1-3.705-3.578l.574-1.384a9.873,9.873,0,0,1-1.56-1.553l0,0a.217.217,0,0,0-.02-.024H190.8a9.9,9.9,0,0,0,1.583,1.581l-.574,1.384A2.769,2.769,0,0,0,193.216,180.371Z" transform="translate(-183.29 -154.564)" fill="#407093"/>
            <path id="Trazado_1043429" data-name="Trazado 1043429" d="M193.216,7.755a2.768,2.768,0,0,0-3.705,3.578l.574,1.384a9.871,9.871,0,0,0-1.56,1.554l0,0a.222.222,0,0,1-.02.024H190.8a9.9,9.9,0,0,1,1.583-1.581l-.574-1.384A2.769,2.769,0,0,1,193.216,7.755Z" transform="translate(-183.29 -7.504)" fill="#407093"/>
          </g>
        </g>
        <g id="Grupo_1219763" data-name="Grupo 1219763" transform="translate(32.831 28.613)">
          <path id="Trazado_1043430" data-name="Trazado 1043430" d="M296.259,266.232a1.977,1.977,0,0,1-1.562-.766l-3.306-4.264a1.977,1.977,0,0,1,3.125-2.423L296,260.694l2.9-5.128a1.977,1.977,0,0,1,3.443,1.944l-4.358,7.717a1.977,1.977,0,0,1-1.578,1C296.355,266.231,296.307,266.232,296.259,266.232Z" transform="translate(-290.976 -254.56)" fill="#a2e19f"/>
        </g>
        <g id="Grupo_1219764" data-name="Grupo 1219764" transform="translate(15.011 29.782)">
          <path id="Trazado_1043431" data-name="Trazado 1043431" d="M145.263,269.9l1.73-1.73a2.059,2.059,0,1,0-2.911-2.912l-1.73,1.73-1.73-1.73a2.059,2.059,0,1,0-2.912,2.912l1.73,1.73-1.73,1.73a2.059,2.059,0,1,0,2.912,2.911l1.73-1.73,1.73,1.73a2.059,2.059,0,0,0,2.911-2.911Z" transform="translate(-137.107 -264.659)" fill="#e28086"/>
        </g>
      </g>
      <g id="Grupo_1219766" data-name="Grupo 1219766" transform="translate(0.01 0.001)">
        <path id="Trazado_1043432" data-name="Trazado 1043432" d="M57.768,50.347a5.21,5.21,0,0,0-2.837-1.462V19.892a5.45,5.45,0,0,0-5.444-5.443H40.508a10.838,10.838,0,0,0,0-1.109l.8-.33a3.642,3.642,0,0,0,1.969-4.753c-.007-.017-.015-.035-.023-.052a.869.869,0,0,0-1.573.736A1.9,1.9,0,0,1,40.642,11.4l-1.383.572a.869.869,0,0,0-.531.9,9.126,9.126,0,0,1,0,2.043.869.869,0,0,0,.531.9l1.384.573a1.9,1.9,0,1,1-1.454,3.51L37.8,19.33a.868.868,0,0,0-1.012.261,9.132,9.132,0,0,1-1.444,1.445.869.869,0,0,0-.26,1.012l.573,1.383a1.9,1.9,0,0,1-3.511,1.454L31.577,23.5a.868.868,0,0,0-.9-.53,9.111,9.111,0,0,1-2.042,0,.869.869,0,0,0-.9.531l-.573,1.384a1.9,1.9,0,0,1-3.51-1.455l.573-1.384a.869.869,0,0,0-.262-1.012,9.063,9.063,0,0,1-1.443-1.442.869.869,0,0,0-1.011-.262l-1.385.572a1.9,1.9,0,0,1-1.453-3.511l1.383-.572a.869.869,0,0,0,.531-.9,9.128,9.128,0,0,1,0-2.043.868.868,0,0,0-.531-.9L18.67,11.4a1.9,1.9,0,1,1,1.454-3.51l1.384.573a.869.869,0,0,0,1.012-.261,9.091,9.091,0,0,1,1.444-1.445.869.869,0,0,0,.261-1.012l-.573-1.383a1.9,1.9,0,0,1,3.511-1.454L27.735,4.3a.867.867,0,0,0,.9.53,9.118,9.118,0,0,1,2.042,0,.87.87,0,0,0,.9-.531l.573-1.384a1.9,1.9,0,0,1,3.51,1.455l-.573,1.384a.869.869,0,0,0,.262,1.012A9.068,9.068,0,0,1,36.793,8.2a.868.868,0,0,0,1.011.262l1.387-.573a1.9,1.9,0,0,1,.483-.129.869.869,0,0,0-.227-1.722,3.63,3.63,0,0,0-.922.247l-.8.33a10.805,10.805,0,0,0-.79-.789l.331-.8a3.637,3.637,0,1,0-6.72-2.784l-.331.8a10.826,10.826,0,0,0-1.117,0l-.331-.8a3.637,3.637,0,1,0-6.72,2.784l.331.8a10.845,10.845,0,0,0-.79.791l-.8-.331a3.637,3.637,0,1,0-2.783,6.72l.8.331a10.926,10.926,0,0,0,0,1.109H9.827a5.45,5.45,0,0,0-5.444,5.443V48.886A5.242,5.242,0,0,0,5.251,59.3H54.062a5.242,5.242,0,0,0,3.706-8.95ZM19.4,21.786a3.612,3.612,0,0,0,1.39-.278l.8-.33a10.805,10.805,0,0,0,.79.789l-.331.8a3.637,3.637,0,1,0,6.72,2.784l.331-.8a10.859,10.859,0,0,0,1.117,0l.331.8a3.637,3.637,0,1,0,6.72-2.784l-.331-.8a10.888,10.888,0,0,0,.79-.79l.8.331a3.643,3.643,0,0,0,4.092-.92h4.723a1.456,1.456,0,0,1,1.455,1.455v21.09a1.281,1.281,0,0,1-1.28,1.28H11.8a1.281,1.281,0,0,1-1.28-1.28V22.042a1.456,1.456,0,0,1,1.455-1.455H16.7a3.625,3.625,0,0,0,2.7,1.2ZM54.062,57.56H5.251a3.5,3.5,0,0,1,0-7.01H11.2a.869.869,0,0,0,0-1.737H6.12V19.892a3.711,3.711,0,0,1,3.707-3.706h6.51a3.645,3.645,0,0,0-.508,2.664H11.975a3.2,3.2,0,0,0-3.192,3.192v21.09A3.02,3.02,0,0,0,11.8,46.149H47.513a3.02,3.02,0,0,0,3.017-3.017V22.042a3.2,3.2,0,0,0-3.192-3.192H43.484a3.646,3.646,0,0,0-.508-2.664h6.511a3.711,3.711,0,0,1,3.707,3.706v28.92H14.654a.869.869,0,1,0,0,1.737h5.224A4.727,4.727,0,0,0,24.516,54.4H34.8a4.727,4.727,0,0,0,4.638-3.852H54.062a3.505,3.505,0,0,1,0,7.01ZM37.651,50.55A2.988,2.988,0,0,1,34.8,52.664H24.516a2.988,2.988,0,0,1-2.854-2.114Z" transform="translate(-0.01 -0.001)"/>
        <path id="Trazado_1043433" data-name="Trazado 1043433" d="M213.864,72.353a5.518,5.518,0,1,0,5.518,5.518A5.525,5.525,0,0,0,213.864,72.353Zm0,1.737a3.78,3.78,0,0,1,3.741,4.332h-7.481a3.78,3.78,0,0,1,3.741-4.332Zm0,7.563a3.777,3.777,0,0,1-3.008-1.493h6.016A3.777,3.777,0,0,1,213.864,81.653Z" transform="translate(-184.218 -63.974)"/>
        <path id="Trazado_1043434" data-name="Trazado 1043434" d="M287.375,259.378a2.865,2.865,0,0,0,2.249,1.1q.1,0,.207-.008a2.839,2.839,0,0,0,2.271-1.439l4.358-7.717a2.846,2.846,0,1,0-4.956-2.8l-2.254,3.991-.684-.882a2.846,2.846,0,1,0-4.5,3.487Zm-2.157-6.147a1.109,1.109,0,0,1,1.1-.969,1.146,1.146,0,0,1,.141.009,1.1,1.1,0,0,1,.737.421l1.484,1.914a.869.869,0,0,0,1.443-.105l2.9-5.128a1.109,1.109,0,1,1,1.931,1.09l-4.358,7.717a1.106,1.106,0,0,1-.884.56,1.117,1.117,0,0,1-.957-.426l-3.306-4.264A1.1,1.1,0,0,1,285.218,253.231Z" transform="translate(-250.643 -218.458)"/>
        <path id="Trazado_1043435" data-name="Trazado 1043435" d="M130.478,262.162l1.116,1.116-1.116,1.116a2.927,2.927,0,1,0,4.14,4.14l1.116-1.116,1.116,1.116a2.927,2.927,0,0,0,4.14-4.14l-1.116-1.116,1.116-1.116a2.927,2.927,0,0,0-4.14-4.14l-1.116,1.116-1.116-1.116a2.927,2.927,0,0,0-4.14,4.14Zm1.228-2.911a1.19,1.19,0,0,1,1.683,0l1.73,1.73a.869.869,0,0,0,1.229,0l1.73-1.73a1.19,1.19,0,0,1,1.683,1.683l-1.73,1.73a.869.869,0,0,0,0,1.228l1.73,1.73a1.19,1.19,0,1,1-1.683,1.683l-1.73-1.73a.869.869,0,0,0-1.229,0l-1.73,1.73a1.19,1.19,0,0,1-1.683-1.683l1.73-1.73a.869.869,0,0,0,0-1.228l-1.73-1.73A1.191,1.191,0,0,1,131.706,259.251Z" transform="translate(-114.611 -227.382)"/>
      </g>
    </g>
  </g>
</svg>
