<svg xmlns="http://www.w3.org/2000/svg" xmlns:xlink="http://www.w3.org/1999/xlink" width="98" height="98" viewBox="0 0 98 98">
  <defs>
    <filter id="Trazado_982547" x="0" y="0" width="98" height="98" filterUnits="userSpaceOnUse">
      <feOffset dy="3" input="SourceAlpha"/>
      <feGaussianBlur stdDeviation="3" result="blur"/>
      <feFlood flood-opacity="0.161"/>
      <feComposite operator="in" in2="blur"/>
      <feComposite in="SourceGraphic"/>
    </filter>
  </defs>
  <g id="Grupo_1219693" data-name="Grupo 1219693" transform="translate(-1036 -1632)">
    <g id="Grupo_1203205" data-name="Grupo 1203205" transform="translate(758 -1790.045)">
      <g id="Grupo_1178491" data-name="Grupo 1178491" transform="translate(287 3428.045)">
        <g id="Grupo_1172010" data-name="Grupo 1172010" transform="translate(0)">
          <g id="Grupo_1171046" data-name="Grupo 1171046">
            <g id="Grupo_1148525" data-name="Grupo 1148525">
              <g transform="matrix(1, 0, 0, 1, -9, -6)" filter="url(#Trazado_982547)">
                <g id="Trazado_982547-2" data-name="Trazado 982547" transform="translate(9 6)" fill="#fdeffe">
                  <path d="M 40 78.5 C 34.80187606811523 78.5 29.76003265380859 77.48227691650391 25.01452255249023 75.47509765625 C 20.43014526367188 73.53606414794922 16.31264495849609 70.75986480712891 12.77638912200928 67.22360992431641 C 9.240133285522461 63.68735504150391 6.46393346786499 59.56985473632812 4.524899959564209 54.98547744750977 C 2.517722129821777 50.23996734619141 1.5 45.19812393188477 1.5 40 C 1.5 34.80187606811523 2.517722129821777 29.76003265380859 4.524899959564209 25.01452255249023 C 6.46393346786499 20.43014526367188 9.240133285522461 16.31264495849609 12.77638912200928 12.77638912200928 C 16.31264495849609 9.240133285522461 20.43014526367188 6.46393346786499 25.01452255249023 4.524899959564209 C 29.76003265380859 2.517722129821777 34.80187606811523 1.5 40 1.5 C 45.19812393188477 1.5 50.23996734619141 2.517722129821777 54.98547744750977 4.524899959564209 C 59.56985473632812 6.46393346786499 63.68735504150391 9.240133285522461 67.22360992431641 12.77638912200928 C 70.75986480712891 16.31264495849609 73.53606414794922 20.43014526367188 75.47509765625 25.01452255249023 C 77.48227691650391 29.76003265380859 78.5 34.80187606811523 78.5 40 C 78.5 45.19812393188477 77.48227691650391 50.23996734619141 75.47509765625 54.98547744750977 C 73.53606414794922 59.56985473632812 70.75986480712891 63.68735504150391 67.22360992431641 67.22360992431641 C 63.68735504150391 70.75986480712891 59.56985473632812 73.53606414794922 54.98547744750977 75.47509765625 C 50.23996734619141 77.48227691650391 45.19812393188477 78.5 40 78.5 Z" stroke="none"/>
                  <path d="M 40 3 C 35.00370788574219 3 30.15846633911133 3.977851867675781 25.59885406494141 5.906410217285156 C 21.19327926635742 7.769813537597656 17.23603820800781 10.43806457519531 13.83705139160156 13.83705139160156 C 10.43806457519531 17.23603820800781 7.769813537597656 21.19327926635742 5.906410217285156 25.59885406494141 C 3.977851867675781 30.15846633911133 3 35.00370788574219 3 40 C 3 44.99629211425781 3.977851867675781 49.84153366088867 5.906410217285156 54.40114593505859 C 7.769813537597656 58.80672073364258 10.43806457519531 62.76396179199219 13.83705139160156 66.16294860839844 C 17.23603820800781 69.56193542480469 21.19327926635742 72.23018646240234 25.59885406494141 74.09358978271484 C 30.15846633911133 76.02214813232422 35.00370788574219 77 40 77 C 44.99629211425781 77 49.84153366088867 76.02214813232422 54.40114593505859 74.09358978271484 C 58.80672073364258 72.23018646240234 62.76396179199219 69.56193542480469 66.16294860839844 66.16294860839844 C 69.56193542480469 62.76396179199219 72.23018646240234 58.80672073364258 74.09358978271484 54.40114593505859 C 76.02214813232422 49.84153366088867 77 44.99629211425781 77 40 C 77 35.00370788574219 76.02214813232422 30.15846633911133 74.09358978271484 25.59885406494141 C 72.23018646240234 21.19327926635742 69.56193542480469 17.23603820800781 66.16294860839844 13.83705139160156 C 62.76396179199219 10.43806457519531 58.80672073364258 7.769813537597656 54.40114593505859 5.906410217285156 C 49.84153366088867 3.977851867675781 44.99629211425781 3 40 3 M 40 0 C 62.09138488769531 0 80 17.90861511230469 80 40 C 80 62.09138488769531 62.09138488769531 80 40 80 C 17.90861511230469 80 0 62.09138488769531 0 40 C 0 17.90861511230469 17.90861511230469 0 40 0 Z" stroke="none" fill="#ee70f7"/>
                </g>
              </g>
            </g>
          </g>
        </g>
      </g>
    </g>
    <g id="servicio-de-calidad" transform="translate(1023.938 1641.131)">
      <g id="Grupo_1219692" data-name="Grupo 1219692" transform="translate(34.945 8.938)">
        <g id="Grupo_1219690" data-name="Grupo 1219690" transform="translate(16.684 0)">
          <path id="Trazado_1043305" data-name="Trazado 1043305" d="M204.4,182.885l6.743,2.735-5.311,11.409a.256.256,0,0,1-.453.021l-1.979-3.406-3.88.678a.256.256,0,0,1-.276-.36Z" transform="translate(-197.605 -163.463)" fill="#fe646f" fill-rule="evenodd"/>
          <path id="Trazado_1043306" data-name="Trazado 1043306" d="M210.428,203.9l.713.289L205.829,215.6a.256.256,0,0,1-.453.021l-.471-.81a.256.256,0,0,0,.453-.021Zm-7.031,8.313-3.88.678a.256.256,0,0,1-.276-.36l.245-.527,3.44-.6Z" transform="translate(-197.604 -182.035)" fill="#fd4755" fill-rule="evenodd"/>
          <path id="Trazado_1043307" data-name="Trazado 1043307" d="M310.119,182.885l-6.743,2.735,5.311,11.409a.256.256,0,0,0,.453.021l1.979-3.406,3.88.678a.256.256,0,0,0,.276-.36Z" transform="translate(-289.642 -163.463)" fill="#fe646f" fill-rule="evenodd"/>
          <path id="Trazado_1043308" data-name="Trazado 1043308" d="M304.09,203.9l-.713.289,5.311,11.409a.256.256,0,0,0,.453.021l.471-.81a.256.256,0,0,1-.453-.021Zm7.031,8.313,3.88.678a.256.256,0,0,0,.276-.36l-.245-.527-3.44-.6Z" transform="translate(-289.643 -182.035)" fill="#fd4755" fill-rule="evenodd"/>
          <path id="Trazado_1043309" data-name="Trazado 1043309" d="M200.725,16.582l1.732,1.3a2.757,2.757,0,0,0,1.563.569l2.16.12a2.84,2.84,0,0,1,2.639,2.215l.493,2.106a2.758,2.758,0,0,0,.832,1.44l1.578,1.481a2.84,2.84,0,0,1,.6,3.393l-.976,1.931a2.758,2.758,0,0,0-.289,1.638l.257,2.148a2.84,2.84,0,0,1-1.723,2.984l-1.989.852a2.758,2.758,0,0,0-1.274,1.069l-1.184,1.811a2.84,2.84,0,0,1-3.238,1.178l-2.071-.626a2.758,2.758,0,0,0-1.663,0l-2.071.626a2.84,2.84,0,0,1-3.238-1.178l-1.184-1.811a2.758,2.758,0,0,0-1.274-1.069l-1.989-.852a2.84,2.84,0,0,1-1.723-2.984l.257-2.148a2.758,2.758,0,0,0-.289-1.638l-.976-1.931a2.84,2.84,0,0,1,.6-3.393l1.578-1.481a2.758,2.758,0,0,0,.832-1.44l.493-2.106a2.84,2.84,0,0,1,2.639-2.215l2.16-.12a2.758,2.758,0,0,0,1.563-.569l1.732-1.3A2.84,2.84,0,0,1,200.725,16.582Z" transform="translate(-185.367 -15.999)" fill="#ffe177" fill-rule="evenodd"/>
          <path id="Trazado_1043310" data-name="Trazado 1043310" d="M269.811,16.582l1.732,1.3a2.757,2.757,0,0,0,1.563.569l2.16.12a2.84,2.84,0,0,1,2.64,2.215l.493,2.106a2.759,2.759,0,0,0,.832,1.441l1.578,1.481a2.84,2.84,0,0,1,.6,3.393l-.976,1.931a2.758,2.758,0,0,0-.289,1.638l.257,2.148a2.84,2.84,0,0,1-1.723,2.984l-1.989.852a2.758,2.758,0,0,0-1.274,1.069l-1.184,1.811a2.839,2.839,0,0,1-3.176,1.2,2.858,2.858,0,0,0,1.6-1.2l1.184-1.811a2.758,2.758,0,0,1,1.274-1.069L277.1,37.9a2.84,2.84,0,0,0,1.723-2.984l-.257-2.148a2.758,2.758,0,0,1,.289-1.638l.976-1.931a2.84,2.84,0,0,0-.6-3.393l-1.578-1.481a2.757,2.757,0,0,1-.832-1.441l-.493-2.106a2.84,2.84,0,0,0-2.64-2.215l-2.16-.12a2.757,2.757,0,0,1-1.563-.569l-1.732-1.3a2.925,2.925,0,0,0-.937-.47A2.839,2.839,0,0,1,269.811,16.582ZM267.3,42.175a2.753,2.753,0,0,0-1.618.013l-2.071.626-.061.018a2.879,2.879,0,0,0,1.633-.018l2.071-.626Z" transform="translate(-254.453 -16)" fill="#ffd064" fill-rule="evenodd"/>
          <circle id="Elipse_12641" data-name="Elipse 12641" cx="8.286" cy="8.286" r="8.286" transform="translate(1.914 13.473) rotate(-45)" fill="#eceff1"/>
          <path id="Trazado_1043311" data-name="Trazado 1043311" d="M239.62,60.553q.232,0,.46.013a8.286,8.286,0,0,0,0,16.546q-.229.013-.46.013a8.286,8.286,0,1,1,0-16.571Z" transform="translate(-225.984 -55.368)" fill="#d1d1d6" fill-rule="evenodd"/>
          <path id="Trazado_1043312" data-name="Trazado 1043312" d="M263.193,104.383l4.029-4.069a1.227,1.227,0,1,1,1.74,1.729c-1.634,1.649-3.256,3.309-4.9,4.95a1.229,1.229,0,0,1-1.738,0L259.6,104.27a1.229,1.229,0,0,1,1.738-1.738Z" transform="translate(-250.646 -90.181)" fill="#8ac9fe" fill-rule="evenodd"/>
        </g>
        <g id="Grupo_1219691" data-name="Grupo 1219691" transform="translate(0 34.387)">
          <path id="Trazado_1043313" data-name="Trazado 1043313" d="M70.114,318.534l9.76-5.655c1.832-1.061,3.694-1.814,5.708-1.161a68.629,68.629,0,0,0,9.649,2.965,2.711,2.711,0,0,1,1.875,3.248,2.625,2.625,0,0,1-3.248,1.876l1.307.209a6.085,6.085,0,0,0,4.183-.729l9.384-5.466c7.295-4.248,8.366,2.287,5.941,3.781l-17.03,10.486a6.245,6.245,0,0,1-5.057.713l-12.352-3.31-4.575,2.641a1.848,1.848,0,0,1-2.519-.675l-3.7-6.407a1.848,1.848,0,0,1,.673-2.518Z" transform="translate(-66.031 -311.474)" fill="#f6dccd" fill-rule="evenodd"/>
          <path id="Trazado_1043314" data-name="Trazado 1043314" d="M232.369,354.289a2.678,2.678,0,0,1-3.025,1.291c-2.023-.535-4.044-1.084-6.066-1.625a1.015,1.015,0,0,1,.525-1.961Z" transform="translate(-201.516 -347.247)" fill="#f1cbbc" fill-rule="evenodd"/>
          <path id="Trazado_1043315" data-name="Trazado 1043315" d="M70.114,318.533l9.761-5.655c1.832-1.061,3.694-1.814,5.708-1.161,1.2.389,2.809,1.018,4.617,1.622L71.292,324.255l-1.85-3.2A1.848,1.848,0,0,1,70.114,318.533Z" transform="translate(-66.032 -311.473)" fill="#f1cbbc" fill-rule="evenodd"/>
          <path id="Trazado_1043316" data-name="Trazado 1043316" d="M47.226,342.645l7.741,13.678a1.386,1.386,0,0,1-.522,1.883l-2.633,1.49a1.386,1.386,0,0,1-1.883-.522L42.188,345.5a1.386,1.386,0,0,1,.522-1.883l2.633-1.49A1.386,1.386,0,0,1,47.226,342.645Z" transform="translate(-42.01 -338.399)" fill="#d1d1d6" fill-rule="evenodd"/>
          <path id="Trazado_1043317" data-name="Trazado 1043317" d="M78.684,352.044l1.37,2.421,1.355,2.394a1.386,1.386,0,0,1-.518,1.881l.941-.532a1.386,1.386,0,0,0,.522-1.883l-1.359-2.4-2.73-4.823-2.733-4.829-.919-1.624a1.387,1.387,0,0,0-1.609-.64l1.591,2.811,2.73,4.823,1.359,2.4Z" transform="translate(-69.397 -338.4)" fill="#b1b1b5" fill-rule="evenodd"/>
        </g>
      </g>
      <path id="Trazado_1043318" data-name="Trazado 1043318" d="M39.3,50.141a.94.94,0,1,1-1.066-.794.939.939,0,0,1,1.066.794ZM83.1,48.66,66.07,59.145a5.329,5.329,0,0,1-4.328.606l-12.352-3.31a.929.929,0,0,0-.706.093L46.892,57.57l-4.546-8.033,6.911-4c1.544-.895,3.213-1.645,4.954-1.08.568.184,1.225.421,1.985.7a48.621,48.621,0,0,0,7.717,2.287,1.768,1.768,0,0,1,1.208,2.1,1.7,1.7,0,0,1-2.064,1.194c-1.455-.293-2.779-.668-4.163-1.062-.623-.177-1.268-.359-1.947-.541a.931.931,0,1,0-.482,1.8c.666.179,1.3.36,1.921.534,1.431.406,2.8.795,4.329,1.1l.019,0c.388.078.786.15,1.2.217a6.98,6.98,0,0,0,4.8-.844l9.385-5.465c2.649-1.543,4.679-1.716,5.428-.463A2.088,2.088,0,0,1,83.1,48.66ZM47.134,62.048a.449.449,0,0,0-.041-.342l-7.74-13.677a.45.45,0,0,0-.272-.211.476.476,0,0,0-.125-.018.441.441,0,0,0-.218.058l-2.632,1.49a.457.457,0,0,0-.171.615L43.677,63.64a.453.453,0,0,0,.613.17l2.634-1.49A.449.449,0,0,0,47.134,62.048ZM85.142,45.057c-.5-.839-2.563-3.335-7.963-.19L67.8,50.332a5.175,5.175,0,0,1-1.2.516,3.865,3.865,0,0,0,.323-.825,3.654,3.654,0,0,0-2.487-4.375,1.2,1.2,0,0,0-.122-.031A46.9,46.9,0,0,1,56.83,43.4c-.743-.269-1.446-.524-2.045-.717-2.44-.793-4.635.183-6.461,1.241l-6.894,3.994-.456-.805a2.315,2.315,0,0,0-3.151-.874l-2.633,1.491a2.313,2.313,0,0,0-.874,3.151l7.74,13.677a2.3,2.3,0,0,0,1.4,1.088,2.348,2.348,0,0,0,.624.085,2.3,2.3,0,0,0,1.134-.3L47.84,63.94a2.316,2.316,0,0,0,.874-3.151l-.906-1.6,1.472-.85L61.26,61.551a7.738,7.738,0,0,0,2,.269,7.161,7.161,0,0,0,3.789-1.088l17.03-10.487a3.933,3.933,0,0,0,1.066-5.188ZM61.16,22.155a.294.294,0,0,1,.086-.209.3.3,0,0,1,.421,0L63.519,23.8a.933.933,0,0,0,.659.273h0a.928.928,0,0,0,.658-.277l4.029-4.069a.3.3,0,0,1,.417,0,.3.3,0,0,1,0,.419q-.911.92-1.821,1.843c-1,1.02-2.044,2.074-3.074,3.1a.3.3,0,0,1-.421,0l-2.723-2.723a.3.3,0,0,1-.086-.211Zm3.02,4.882a2.157,2.157,0,0,0,1.528-.631c1.034-1.033,2.075-2.091,3.083-3.113q.908-.92,1.817-1.84a2.157,2.157,0,0,0-1.532-3.677h-.008a2.146,2.146,0,0,0-1.523.638l-3.371,3.4-1.189-1.19a2.16,2.16,0,0,0-3.055,3.055l2.724,2.723A2.157,2.157,0,0,0,64.18,27.037Zm1.086-11.985a7.355,7.355,0,1,0,7.354,7.355,7.363,7.363,0,0,0-7.354-7.355Zm0,16.571a9.217,9.217,0,1,0-9.216-9.216A9.226,9.226,0,0,0,65.266,31.624Zm-12.082-12.2a1.906,1.906,0,0,0-.4,2.295l.976,1.931a3.688,3.688,0,0,1,.382,2.168l-.256,2.148a1.906,1.906,0,0,0,1.165,2.018l1.988.851a3.7,3.7,0,0,1,1.688,1.416l1.183,1.81a1.906,1.906,0,0,0,2.189.8l2.071-.626a3.7,3.7,0,0,1,2.2,0l2.071.626a1.907,1.907,0,0,0,2.19-.8l1.184-1.81A3.693,3.693,0,0,1,73.5,30.836l1.989-.851a1.906,1.906,0,0,0,1.165-2.018L76.4,25.819a3.691,3.691,0,0,1,.382-2.168l.977-1.931a1.909,1.909,0,0,0-.405-2.295l-1.576-1.481a3.69,3.69,0,0,1-1.1-1.906l-.493-2.107a1.907,1.907,0,0,0-1.785-1.5l-2.16-.12a3.7,3.7,0,0,1-2.07-.753l-1.732-1.3a1.906,1.906,0,0,0-2.33,0l-1.732,1.3a3.7,3.7,0,0,1-2.069.753l-2.16.12a1.906,1.906,0,0,0-1.785,1.5l-.493,2.106a3.689,3.689,0,0,1-1.1,1.906ZM73.269,38.2a.929.929,0,0,0-.965.449l-1.329,2.288-1.924-4.131a3.778,3.778,0,0,0,3.136-1.725l1.182-1.809,2.507,5.383ZM59.558,40.938,58.229,38.65a.93.93,0,0,0-.965-.449l-2.607.455,2.507-5.383,1.183,1.809a3.776,3.776,0,0,0,3.134,1.726ZM52.093,24.491l-.976-1.932a3.778,3.778,0,0,1,.793-4.491l1.576-1.482a1.823,1.823,0,0,0,.563-.973l.493-2.106a3.781,3.781,0,0,1,3.495-2.933l2.16-.12a1.828,1.828,0,0,0,1.057-.385l1.732-1.3a3.778,3.778,0,0,1,4.562,0l1.731,1.3a1.832,1.832,0,0,0,1.057.384l2.16.12a3.779,3.779,0,0,1,3.494,2.933l.495,2.106a1.822,1.822,0,0,0,.562.973l1.577,1.482a3.78,3.78,0,0,1,.793,4.491l-.977,1.931a1.85,1.85,0,0,0-.2,1.108l.257,2.148A3.779,3.779,0,0,1,76.22,31.7l-1.277.547,3.166,6.8a1.188,1.188,0,0,1-1.281,1.671l-3.241-.567-1.653,2.844a1.182,1.182,0,0,1-1.025.591h-.055a1.183,1.183,0,0,1-1.022-.685L66.76,36.3l-.932-.282a1.832,1.832,0,0,0-1.124,0l-.932.282L60.7,42.9a1.182,1.182,0,0,1-1.022.685h-.055a1.181,1.181,0,0,1-1.025-.591l-1.653-2.844-3.241.567a1.187,1.187,0,0,1-1.28-1.67l3.165-6.8L54.312,31.7a3.778,3.778,0,0,1-2.281-3.95l.257-2.148a1.836,1.836,0,0,0-.2-1.107Z" fill-rule="evenodd"/>
    </g>
  </g>
</svg>
