<svg xmlns="http://www.w3.org/2000/svg" xmlns:xlink="http://www.w3.org/1999/xlink" width="113" height="113" viewBox="0 0 113 113">
  <defs>
    <filter id="Trazado_982547" x="0" y="0" width="113" height="113" filterUnits="userSpaceOnUse">
      <feOffset dy="3" input="SourceAlpha"/>
      <feGaussianBlur stdDeviation="3" result="blur"/>
      <feFlood flood-opacity="0.161"/>
      <feComposite operator="in" in2="blur"/>
      <feComposite in="SourceGraphic"/>
    </filter>
  </defs>
  <g id="Grupo_1219643" data-name="Grupo 1219643" transform="translate(-272 -1872)">
    <g id="Grupo_1178613" data-name="Grupo 1178613" transform="translate(0 -4039.161)">
      <g id="Grupo_1178434" data-name="Grupo 1178434" transform="translate(281 5917.161)">
        <g id="Grupo_1172010" data-name="Grupo 1172010" transform="translate(0)">
          <g id="Grupo_1171046" data-name="Grupo 1171046">
            <g id="Grupo_1148525" data-name="Grupo 1148525">
              <g transform="matrix(1, 0, 0, 1, -9, -6)" filter="url(#Trazado_982547)">
                <g id="Trazado_982547-2" data-name="Trazado 982547" transform="translate(9 6)" fill="#fef4ec">
                  <path d="M 47.5 93.5 C 41.28937149047852 93.5 35.26533508300781 92.28397369384766 29.59518623352051 89.88570404052734 C 24.11771965026855 87.56893157958984 19.19813346862793 84.25196075439453 14.97309303283691 80.02691650390625 C 10.74804019927979 75.80186462402344 7.431066513061523 70.88229370117188 5.114293098449707 65.40481567382812 C 2.716026782989502 59.73468017578125 1.5 53.71062850952148 1.5 47.5 C 1.5 41.28937149047852 2.716026782989502 35.26533508300781 5.114293098449707 29.59518623352051 C 7.431066513061523 24.11771965026855 10.74804019927979 19.19813346862793 14.97309303283691 14.97309303283691 C 19.19813346862793 10.74804019927979 24.11771965026855 7.431066513061523 29.59518623352051 5.114293098449707 C 35.26533508300781 2.716026782989502 41.28937149047852 1.5 47.5 1.5 C 53.71062850952148 1.5 59.73468017578125 2.716026782989502 65.40481567382812 5.114293098449707 C 70.88229370117188 7.431066513061523 75.80186462402344 10.74804019927979 80.02691650390625 14.97309303283691 C 84.25196075439453 19.19813346862793 87.56893157958984 24.11771965026855 89.88570404052734 29.59518623352051 C 92.28397369384766 35.26533508300781 93.5 41.28937149047852 93.5 47.5 C 93.5 53.71062850952148 92.28397369384766 59.73468017578125 89.88570404052734 65.40481567382812 C 87.56893157958984 70.88229370117188 84.25196075439453 75.80186462402344 80.02691650390625 80.02691650390625 C 75.80186462402344 84.25196075439453 70.88229370117188 87.56893157958984 65.40481567382812 89.88570404052734 C 59.73468017578125 92.28397369384766 53.71062850952148 93.5 47.5 93.5 Z" stroke="none"/>
                  <path d="M 47.5 3 C 41.49121475219727 3 35.66376876831055 4.176155090332031 30.17950439453125 6.495796203613281 C 24.88084411621094 8.736953735351562 20.12152099609375 11.94598388671875 16.03375244140625 16.03375244140625 C 11.94598388671875 20.12152099609375 8.736953735351562 24.88084411621094 6.495796203613281 30.17950439453125 C 4.176155090332031 35.66376876831055 3 41.49121475219727 3 47.5 C 3 53.50878524780273 4.176155090332031 59.33623123168945 6.495796203613281 64.82049560546875 C 8.736953735351562 70.11915588378906 11.94598388671875 74.87847900390625 16.03375244140625 78.96624755859375 C 20.12152099609375 83.05401611328125 24.88084411621094 86.26304626464844 30.17950439453125 88.50419616699219 C 35.66376876831055 90.82384490966797 41.49121475219727 92 47.5 92 C 53.50878524780273 92 59.33623123168945 90.82384490966797 64.82049560546875 88.50419616699219 C 70.11915588378906 86.26304626464844 74.87847900390625 83.05401611328125 78.96624755859375 78.96624755859375 C 83.05401611328125 74.87847900390625 86.26304626464844 70.11915588378906 88.50419616699219 64.82049560546875 C 90.82384490966797 59.33623123168945 92 53.50878524780273 92 47.5 C 92 41.49121475219727 90.82384490966797 35.66376876831055 88.50419616699219 30.17950439453125 C 86.26304626464844 24.88084411621094 83.05401611328125 20.12152099609375 78.96624755859375 16.03375244140625 C 74.87847900390625 11.94598388671875 70.11915588378906 8.736953735351562 64.82049560546875 6.495796203613281 C 59.33623123168945 4.176155090332031 53.50878524780273 3 47.5 3 M 47.5 0 C 73.7335205078125 0 95 21.2664794921875 95 47.5 C 95 73.7335205078125 73.7335205078125 95 47.5 95 C 21.2664794921875 95 0 73.7335205078125 0 47.5 C 0 21.2664794921875 21.2664794921875 0 47.5 0 Z" stroke="none" fill="#fe9d52"/>
                </g>
              </g>
            </g>
          </g>
        </g>
      </g>
    </g>
    <g id="conversacion_1_" data-name="conversacion (1)" transform="translate(299.13 1896.13)">
      <path id="Trazado_1043120" data-name="Trazado 1043120" d="M60.014,393.41c-.424,2.038-1.827,5.448-6.475,5.448s-6.051-3.409-6.475-5.448l3.333-.954a1.5,1.5,0,0,0,1.088-1.444V388.9h4.107v2.113a1.5,1.5,0,0,0,1.088,1.444Z" transform="translate(-41.665 -344.283)" fill="#eaac9d"/>
      <g id="Grupo_1219635" data-name="Grupo 1219635" transform="translate(1.431 34.88)">
        <path id="Trazado_1043121" data-name="Trazado 1043121" d="M16.677,306.847a2.578,2.578,0,0,1-2.244,2.814c-1.239,0-1.959-1.447-1.959-3s.72-2.627,1.959-2.627A2.578,2.578,0,0,1,16.677,306.847Z" transform="translate(-12.474 -304.033)" fill="#eaac9d"/>
        <path id="Trazado_1043122" data-name="Trazado 1043122" d="M157.89,306.847a2.578,2.578,0,0,0,2.244,2.814c1.239,0,1.959-1.447,1.959-3s-.72-2.627-1.959-2.627A2.578,2.578,0,0,0,157.89,306.847Z" transform="translate(-141.207 -304.033)" fill="#eaac9d"/>
      </g>
      <path id="Trazado_1043123" data-name="Trazado 1043123" d="M29.527,423.34v2.087a1.147,1.147,0,0,1-1.147,1.148H8.647A1.147,1.147,0,0,1,7.5,425.427V423.34a6.048,6.048,0,0,1,4.235-5.77l3.439-1.08a.3.3,0,0,1,.376.215,3.126,3.126,0,0,0,2.964,2.644,3.126,3.126,0,0,0,2.964-2.644.3.3,0,0,1,.376-.215l3.439,1.08A6.047,6.047,0,0,1,29.527,423.34Z" transform="translate(-6.64 -368.696)" fill="#61a2f9"/>
      <g id="Grupo_1219636" data-name="Grupo 1219636" transform="translate(14.618 47.78)">
        <path id="Trazado_1043124" data-name="Trazado 1043124" d="M131.452,417.569l-3.439-1.08a.3.3,0,0,0-.376.215,4.309,4.309,0,0,1-.22.679l.593.186a6.048,6.048,0,0,1,4.235,5.77v2.087a1.147,1.147,0,0,1-1.147,1.148h3.442a1.147,1.147,0,0,0,1.147-1.148v-2.087A6.048,6.048,0,0,0,131.452,417.569Z" transform="translate(-127.417 -416.475)" fill="#5490f9"/>
      </g>
      <path id="Trazado_1043125" data-name="Trazado 1043125" d="M43.794,247.016V242.35a6.85,6.85,0,0,1,13.7,0v4.64a6.85,6.85,0,0,1-13.7.026Z" transform="translate(-38.77 -208.482)" fill="#ffcbbe"/>
      <path id="Trazado_1043126" data-name="Trazado 1043126" d="M90.135,235.5a6.863,6.863,0,0,0-1.721.218,6.853,6.853,0,0,1,5.129,6.632v4.64a6.865,6.865,0,0,1-5.14,6.644,6.865,6.865,0,0,0,8.582-6.644v-4.64A6.85,6.85,0,0,0,90.135,235.5Z" transform="translate(-78.261 -208.482)" fill="#eaac9d"/>
      <path id="Trazado_1043127" data-name="Trazado 1043127" d="M40.728,210.662a4.844,4.844,0,0,1-1.865,2.949s-1.044-6.5-2.85-6.1a27.6,27.6,0,0,1-8.119,0c-1.807-.4-2.73,6.1-2.73,6.1a4.7,4.7,0,0,1-1.985-2.949c-1.113-4.177-.66-11.162,8.775-11.162S41.841,206.485,40.728,210.662Z" transform="translate(-20.14 -176.612)" fill="#8b5e5e"/>
      <g id="Grupo_1219637" data-name="Grupo 1219637" transform="translate(10.093 22.888)">
        <path id="Trazado_1043128" data-name="Trazado 1043128" d="M89.7,199.5a16.616,16.616,0,0,0-1.721.086c6.756.7,7.883,5.61,7.376,9.447a22.518,22.518,0,0,1,1.254,4.579,4.844,4.844,0,0,0,1.865-2.949C99.587,206.485,99.134,199.5,89.7,199.5Z" transform="translate(-87.979 -199.5)" fill="#785252"/>
      </g>
      <path id="Trazado_1043129" data-name="Trazado 1043129" d="M340.127,345.584a13.288,13.288,0,0,1-16.445,0c-2.791-2.946-1.312-7.88-1.312-7.88l9.535,1.741,9.535-1.741S342.918,342.639,340.127,345.584Z" transform="translate(-285.039 -298.961)" fill="#785252"/>
      <g id="Grupo_1219638" data-name="Grupo 1219638" transform="translate(36.422 34.243)">
        <path id="Trazado_1043130" data-name="Trazado 1043130" d="M321.677,301.293a2.578,2.578,0,0,1-2.244,2.814c-1.239,0-1.959-1.447-1.959-3s.72-2.627,1.959-2.627A2.578,2.578,0,0,1,321.677,301.293Z" transform="translate(-317.474 -298.479)" fill="#eaac9d"/>
        <path id="Trazado_1043131" data-name="Trazado 1043131" d="M462.89,301.293a2.578,2.578,0,0,0,2.244,2.814c1.239,0,1.959-1.447,1.959-3s-.72-2.627-1.959-2.627A2.578,2.578,0,0,0,462.89,301.293Z" transform="translate(-446.207 -298.479)" fill="#eaac9d"/>
      </g>
      <path id="Trazado_1043132" data-name="Trazado 1043132" d="M365.014,393.41c-.424,2.038-1.827,5.448-6.475,5.448s-6.051-3.409-6.475-5.448l3.333-.954a1.5,1.5,0,0,0,1.088-1.444V388.9h4.107v2.113a1.5,1.5,0,0,0,1.088,1.444Z" transform="translate(-311.674 -344.283)" fill="#eaac9d"/>
      <path id="Trazado_1043133" data-name="Trazado 1043133" d="M348.794,247.016V242.35a6.85,6.85,0,1,1,13.7,0v4.64a6.85,6.85,0,0,1-13.7.026Z" transform="translate(-308.778 -208.482)" fill="#ffcbbe"/>
      <path id="Trazado_1043134" data-name="Trazado 1043134" d="M395.135,235.5a6.863,6.863,0,0,0-1.721.218,6.854,6.854,0,0,1,5.129,6.633v4.636a6.867,6.867,0,0,1-5.14,6.646,6.865,6.865,0,0,0,8.582-6.646v-4.636A6.851,6.851,0,0,0,395.135,235.5Z" transform="translate(-348.27 -208.482)" fill="#eaac9d"/>
      <path id="Trazado_1043135" data-name="Trazado 1043135" d="M334.527,423.34v2.087a1.147,1.147,0,0,1-1.147,1.148H313.647a1.147,1.147,0,0,1-1.147-1.148V423.34a6.048,6.048,0,0,1,4.235-5.77l3.439-1.08a.3.3,0,0,1,.376.215,2.983,2.983,0,0,0,5.928,0,.3.3,0,0,1,.376-.215l3.439,1.08A6.047,6.047,0,0,1,334.527,423.34Z" transform="translate(-276.648 -368.696)" fill="#d80a61"/>
      <g id="Grupo_1219639" data-name="Grupo 1219639" transform="translate(49.609 47.78)">
        <path id="Trazado_1043136" data-name="Trazado 1043136" d="M436.452,417.569l-3.439-1.08a.3.3,0,0,0-.376.215,4.309,4.309,0,0,1-.22.679l.593.186a6.048,6.048,0,0,1,4.235,5.77v2.087a1.147,1.147,0,0,1-1.147,1.148h3.442a1.147,1.147,0,0,0,1.147-1.148v-2.087A6.048,6.048,0,0,0,436.452,417.569Z" transform="translate(-432.417 -416.475)" fill="#c10a54"/>
      </g>
      <path id="Trazado_1043137" data-name="Trazado 1043137" d="M355.038,220.508s-1.044-6.732-2.85-6.318a11.885,11.885,0,0,1-8.119,0c-1.807-.414-2.73,4.006-2.73,4.006s-4.76-10.945,6.85-10.945c7.687,0,8.732,4.635,8.777,8.2A7.748,7.748,0,0,1,355.038,220.508Z" transform="translate(-301.323 -183.473)" fill="#785252"/>
      <path id="Trazado_1043138" data-name="Trazado 1043138" d="M331.945,207.807c1.528-.766,2.074-8.007-1.965-8.288-4.36-.3-7.087,3.144-8.541,6.9a21.656,21.656,0,0,1-1.548,3.412.559.559,0,0,0,.188.78,4.93,4.93,0,0,0,3.052.783A20.984,20.984,0,0,0,331.945,207.807Z" transform="translate(-283.115 -176.612)" fill="#8b5e5e"/>
      <path id="Trazado_1043139" data-name="Trazado 1043139" d="M56.945,10.367v8.576a2.871,2.871,0,0,1-2.876,2.867H46.393a.881.881,0,0,0-.583.22L42.4,25.037a.518.518,0,0,1-.861-.387V22.164a.355.355,0,0,0-.356-.355h-4.3A2.871,2.871,0,0,1,34,18.943V10.367A2.871,2.871,0,0,1,36.876,7.5H54.069A2.871,2.871,0,0,1,56.945,10.367Z" transform="translate(-30.099 -6.64)" fill="#e7ecf6"/>
      <g id="Grupo_1219640" data-name="Grupo 1219640" transform="translate(20.528 0.86)">
        <path id="Trazado_1043140" data-name="Trazado 1043140" d="M182.372,7.5H178.93a2.871,2.871,0,0,1,2.876,2.867v8.576a2.871,2.871,0,0,1-2.876,2.867h3.442a2.871,2.871,0,0,0,2.876-2.867V10.367A2.871,2.871,0,0,0,182.372,7.5Z" transform="translate(-178.93 -7.5)" fill="#d8e2f1"/>
      </g>
      <path id="Trazado_1043141" data-name="Trazado 1043141" d="M278,10.367v8.576a2.871,2.871,0,0,0,2.876,2.867h7.676a.881.881,0,0,1,.583.22l3.413,3.008a.518.518,0,0,0,.861-.387V22.164a.355.355,0,0,1,.356-.355h4.3a2.871,2.871,0,0,0,2.876-2.867V10.367A2.871,2.871,0,0,0,298.069,7.5H280.876A2.871,2.871,0,0,0,278,10.367Z" transform="translate(-246.106 -6.64)" fill="#ffd064"/>
      <g id="Grupo_1219641" data-name="Grupo 1219641" transform="translate(48.521 0.86)">
        <path id="Trazado_1043142" data-name="Trazado 1043142" d="M426.372,7.5H422.93a2.871,2.871,0,0,1,2.876,2.867v8.576a2.871,2.871,0,0,1-2.876,2.867h3.442a2.871,2.871,0,0,0,2.876-2.867V10.367A2.871,2.871,0,0,0,426.372,7.5Z" transform="translate(-422.93 -7.5)" fill="#ffc250"/>
      </g>
      <g id="Grupo_1219642" data-name="Grupo 1219642" transform="translate(0 0)">
        <path id="Trazado_1043143" data-name="Trazado 1043143" d="M18.911,218.026l-3.439-1.08a1.159,1.159,0,0,0-.64-.014.637.637,0,0,1-.044-.23v-1.076a7.762,7.762,0,0,0,4.354-4.573,2.706,2.706,0,0,0,1.216.289c1.634,0,2.82-1.624,2.82-3.862a3.33,3.33,0,0,0-1.748-3.273c.347-1.32,1.224-5.681-1.24-8.887-1.693-2.2-4.511-3.32-8.376-3.32s-6.684,1.117-8.377,3.32c-2.486,3.235-1.57,7.648-1.23,8.924l0,.014A3.364,3.364,0,0,0,.571,207.48c0,2.238,1.186,3.862,2.82,3.862a2.709,2.709,0,0,0,1.208-.289,7.735,7.735,0,0,0,4.362,4.582V216.7a.64.64,0,0,1-.044.23,1.158,1.158,0,0,0-.64.014l-3.439,1.08A6.879,6.879,0,0,0,0,224.617V226.7a2.01,2.01,0,0,0,2.008,2.008H6.964a.86.86,0,1,0,0-1.721H2.008a.287.287,0,0,1-.287-.287v-2.087a5.166,5.166,0,0,1,3.632-4.949l2.891-.908a3.781,3.781,0,0,0,7.261,0l2.891.908a5.166,5.166,0,0,1,3.632,4.949V226.7a.287.287,0,0,1-.287.287H11.084a.86.86,0,1,0,0,1.721H21.741a2.01,2.01,0,0,0,2.008-2.008v-2.087a6.88,6.88,0,0,0-4.837-6.591Zm1.447-8.405a1.15,1.15,0,0,1-.811-.383c.024-.249.038-.5.038-.757V207.4a5.455,5.455,0,0,0,1.224-1.577c.595.329.648,1.321.648,1.658,0,1.03-.42,2.141-1.1,2.141ZM4.8,196.369c1.35-1.757,3.709-2.648,7.012-2.648s5.661.891,7.011,2.648c2.006,2.611,1.22,6.349.932,7.432h0a5.6,5.6,0,0,1-.524,1.314c-.4-1.7-1.123-4.054-2.244-4.815a1.643,1.643,0,0,0-1.3-.27,27.239,27.239,0,0,1-7.747,0,1.628,1.628,0,0,0-1.305.275c-.487.337-1.215,1.1-1.916,3.835-.095.37-.178.731-.248,1.062a4.99,4.99,0,0,1-.6-1.4c-.289-1.083-1.075-4.821.932-7.432ZM3.39,209.621c-.679,0-1.1-1.111-1.1-2.141,0-.317.049-1.247.576-1.613a5.5,5.5,0,0,0,1.3,1.549v1.091c0,.247.013.492.036.733a1.137,1.137,0,0,1-.809.381Zm2.494-1.114v-1.474a26.7,26.7,0,0,1,.548-2.642c.57-2.14,1.07-2.592,1.182-2.67a28.3,28.3,0,0,0,8.4,0c.11.071.626.505,1.245,2.669a26.9,26.9,0,0,1,.6,2.654v1.438a5.989,5.989,0,0,1-11.979.026Zm5.989,11.258a2.043,2.043,0,0,1-1.922-1.359,2.32,2.32,0,0,0,.729-1.7v-.589a7.729,7.729,0,0,0,2.386,0v.593a2.344,2.344,0,0,0,.728,1.7A2.042,2.042,0,0,1,11.874,219.765Z" transform="translate(0 -169.973)"/>
        <path id="Trazado_1043144" data-name="Trazado 1043144" d="M77.117,314.09v-.229a.86.86,0,0,0-1.721,0v.229a.86.86,0,0,0,1.721,0Z" transform="translate(-66.746 -277.091)"/>
        <path id="Trazado_1043145" data-name="Trazado 1043145" d="M118.256,314.95a.86.86,0,0,0,.86-.86v-.229a.86.86,0,1,0-1.721,0v.229A.86.86,0,0,0,118.256,314.95Z" transform="translate(-103.928 -277.091)"/>
        <path id="Trazado_1043146" data-name="Trazado 1043146" d="M87.76,351.677a.86.86,0,0,0-.868-1.486,2.5,2.5,0,0,1-1.094.289,1.941,1.941,0,0,1-.954-.26.86.86,0,0,0-.962,1.427,3.607,3.607,0,0,0,1.916.554A4.181,4.181,0,0,0,87.76,351.677Z" transform="translate(-73.926 -309.91)"/>
        <path id="Trazado_1043147" data-name="Trazado 1043147" d="M324.534,218.256a9.991,9.991,0,0,0,1.187-1.068c2.317-2.446,2.036-6.028,1.742-7.695a4.789,4.789,0,0,0,.714-2.65,3.305,3.305,0,0,0-1.814-3.3,7.826,7.826,0,0,0,.148-1.607,10.382,10.382,0,0,0-1.313-5.387,7.992,7.992,0,0,0-5.915-3.483,3.633,3.633,0,0,0-2.349-1.045c-4.095-.285-7.434,2.36-9.4,7.45a20.908,20.908,0,0,1-1.475,3.265,1.418,1.418,0,0,0,.174,1.736,4.091,4.091,0,0,0-.66,2.371,4.788,4.788,0,0,0,.714,2.65c-.337,1.9-.522,5.305,1.742,7.7a9.968,9.968,0,0,0,1.189,1.067A6.876,6.876,0,0,0,305,224.617V226.7a2.01,2.01,0,0,0,2.008,2.008h19.733a2.01,2.01,0,0,0,2.008-2.008v-2.087A6.876,6.876,0,0,0,324.534,218.256ZM324.472,216a8.2,8.2,0,0,1-2.028,1.561l-1.972-.619a1.159,1.159,0,0,0-.64-.014.637.637,0,0,1-.044-.23v-1.076a7.756,7.756,0,0,0,4.529-5.134,2.69,2.69,0,0,0,1.041.213,2.363,2.363,0,0,0,.528-.06A6.813,6.813,0,0,1,324.472,216Zm-17.18-9.161a2.139,2.139,0,0,1,.479-1.536,5.464,5.464,0,0,0,1.394.327s0,2.958,0,3a1.127,1.127,0,0,1-.777.349C307.712,208.984,307.292,207.872,307.292,206.843Zm3.593-1.364a21.986,21.986,0,0,0,8.3-3.5c.248-.057,1.434-.351,1.828-.442.121.086.639.567,1.252,2.79.344,1.249.552,2.458.6,2.745v1.406a5.989,5.989,0,0,1-11.979.026v-3.027Zm4.318,12.648a2.376,2.376,0,0,0,.478-1.426v-.589a7.726,7.726,0,0,0,2.386,0v.593a2.317,2.317,0,0,0,.729,1.7,2.039,2.039,0,0,1-3.844,0A2.349,2.349,0,0,0,315.2,218.128Zm11.254-11.285c0,1.03-.42,2.141-1.1,2.141a1.12,1.12,0,0,1-.777-.349c0-.051,0-1.307,0-1.307a8.921,8.921,0,0,0,1.266-2.118C326.406,205.561,326.457,206.515,326.457,206.843Zm-1.666-4.886a6.475,6.475,0,0,1-.635,2.823c-.055-.234-.116-.477-.182-.725-.756-2.832-1.5-3.608-2-3.944a1.612,1.612,0,0,0-1.291-.261l-.118.028a9.239,9.239,0,0,0,.109-4,7.193,7.193,0,0,0-.2-.777C324.2,196.268,324.758,199.32,324.79,201.957Zm-15.654-1.866c.969-2.505,3.254-6.663,7.678-6.354,1.019.071,1.719.772,2.079,2.083.558,2.031-.031,4.284-.447,4.581a21.024,21.024,0,0,1-8.553,3.5,3.834,3.834,0,0,1-2.218-.526A27.028,27.028,0,0,0,309.136,200.092Zm-1.273,10.553a2.359,2.359,0,0,0,.527.06,2.7,2.7,0,0,0,1.036-.207,7.729,7.729,0,0,0,4.534,5.137V216.7a.64.64,0,0,1-.044.23,1.158,1.158,0,0,0-.64.014l-1.972.619A8.2,8.2,0,0,1,309.276,216C307.8,214.442,307.716,212.142,307.863,210.645Zm19.164,16.06a.287.287,0,0,1-.287.287H307.008a.287.287,0,0,1-.287-.287v-2.087a5.166,5.166,0,0,1,3.632-4.949l2.891-.908a3.781,3.781,0,0,0,7.261,0l2.891.908a5.166,5.166,0,0,1,3.632,4.949Z" transform="translate(-270.009 -169.973)"/>
        <path id="Trazado_1043148" data-name="Trazado 1043148" d="M380.86,318.875a.86.86,0,0,0,.86-.86v-.229a.86.86,0,0,0-1.721,0v.229A.86.86,0,0,0,380.86,318.875Z" transform="translate(-336.404 -280.566)"/>
        <path id="Trazado_1043149" data-name="Trazado 1043149" d="M422.86,318.875a.86.86,0,0,0,.86-.86v-.229a.86.86,0,0,0-1.721,0v.229A.86.86,0,0,0,422.86,318.875Z" transform="translate(-373.586 -280.566)"/>
        <path id="Trazado_1043150" data-name="Trazado 1043150" d="M388.26,350.89a.86.86,0,0,0,.226,1.2,3.608,3.608,0,0,0,1.917.554,4.179,4.179,0,0,0,1.962-.524.86.86,0,0,0-.873-1.483,2.5,2.5,0,0,1-1.089.286,1.942,1.942,0,0,1-.954-.26A.861.861,0,0,0,388.26,350.89Z" transform="translate(-343.584 -310.301)"/>
        <path id="Trazado_1043151" data-name="Trazado 1043151" d="M47.429,0H30.237A3.736,3.736,0,0,0,26.5,3.727V12.3a3.736,3.736,0,0,0,3.737,3.727h3.8v1.981a1.361,1.361,0,0,0,.81,1.254,1.4,1.4,0,0,0,1.48-.222l3.413-3.008a.021.021,0,0,1,.014-.005H47.43A3.736,3.736,0,0,0,51.166,12.3V3.727A3.736,3.736,0,0,0,47.429,0Zm2.016,12.3a2.013,2.013,0,0,1-2.016,2.006H39.754a1.74,1.74,0,0,0-1.152.435l-2.845,2.507V15.524a1.217,1.217,0,0,0-1.216-1.215h-4.3A2.013,2.013,0,0,1,28.221,12.3V3.727a2.013,2.013,0,0,1,2.016-2.006H47.429a2.013,2.013,0,0,1,2.016,2.006Z" transform="translate(-23.46 0)"/>
        <path id="Trazado_1043152" data-name="Trazado 1043152" d="M77.277,33.332h6.646a.86.86,0,0,0,0-1.721H77.277a.86.86,0,0,0,0,1.721Z" transform="translate(-67.65 -27.984)"/>
        <path id="Trazado_1043153" data-name="Trazado 1043153" d="M88.75,61.611H77.277a.86.86,0,1,0,0,1.721H88.75a.86.86,0,1,0,0-1.721Z" transform="translate(-67.65 -54.543)"/>
        <path id="Trazado_1043154" data-name="Trazado 1043154" d="M88.75,91.611H77.277a.86.86,0,0,0,0,1.721H88.75a.86.86,0,0,0,0-1.721Z" transform="translate(-67.65 -81.101)"/>
        <path id="Trazado_1043155" data-name="Trazado 1043155" d="M281.926,16.035l3.413,3.008a1.421,1.421,0,0,0,1.48.222,1.362,1.362,0,0,0,.81-1.254V16.03h3.8a3.736,3.736,0,0,0,3.737-3.727V3.727A3.736,3.736,0,0,0,291.429,0h-1.968a.86.86,0,0,0,0,1.721h1.968a2.013,2.013,0,0,1,2.016,2.006V12.3a2.013,2.013,0,0,1-2.016,2.006h-4.3a1.217,1.217,0,0,0-1.216,1.215v1.727l-2.844-2.507a1.74,1.74,0,0,0-1.152-.435h-7.676a2.013,2.013,0,0,1-2.016-2.006V3.727a2.013,2.013,0,0,1,2.016-2.006h11.254a.86.86,0,1,0,0-1.721H274.237A3.736,3.736,0,0,0,270.5,3.727V12.3a3.736,3.736,0,0,0,3.737,3.727h7.676A.021.021,0,0,1,281.926,16.035Z" transform="translate(-239.467 0)"/>
        <path id="Trazado_1043156" data-name="Trazado 1043156" d="M321.443,33.332h6.646a.86.86,0,0,0,0-1.721h-6.646a.86.86,0,0,0,0,1.721Z" transform="translate(-283.804 -27.984)"/>
        <path id="Trazado_1043157" data-name="Trazado 1043157" d="M333.776,62.471a.86.86,0,0,0-.86-.86H321.443a.86.86,0,0,0,0,1.721h11.473A.86.86,0,0,0,333.776,62.471Z" transform="translate(-283.804 -54.543)"/>
        <path id="Trazado_1043158" data-name="Trazado 1043158" d="M321.443,91.611a.86.86,0,0,0,0,1.721h6.646a.86.86,0,0,0,0-1.721Z" transform="translate(-283.804 -81.101)"/>
      </g>
    </g>
  </g>
</svg>
