<svg xmlns="http://www.w3.org/2000/svg" xmlns:xlink="http://www.w3.org/1999/xlink" width="113" height="113" viewBox="0 0 113 113">
  <defs>
    <filter id="Trazado_982547" x="0" y="0" width="113" height="113" filterUnits="userSpaceOnUse">
      <feOffset dy="3" input="SourceAlpha"/>
      <feGaussianBlur stdDeviation="3" result="blur"/>
      <feFlood flood-opacity="0.161"/>
      <feComposite operator="in" in2="blur"/>
      <feComposite in="SourceGraphic"/>
    </filter>
  </defs>
  <g id="Grupo_1219644" data-name="Grupo 1219644" transform="translate(-586.56 -1871.93)">
    <g id="Grupo_1178613" data-name="Grupo 1178613" transform="translate(314.561 -4039.231)">
      <g id="Grupo_1178434" data-name="Grupo 1178434" transform="translate(281 5917.161)">
        <g id="Grupo_1172010" data-name="Grupo 1172010" transform="translate(0)">
          <g id="Grupo_1171046" data-name="Grupo 1171046">
            <g id="Grupo_1148525" data-name="Grupo 1148525">
              <g transform="matrix(1, 0, 0, 1, -9, -6)" filter="url(#Trazado_982547)">
                <g id="Trazado_982547-2" data-name="Trazado 982547" transform="translate(9 6)" fill="#fef4ec">
                  <path d="M 47.5 93.5 C 41.28937149047852 93.5 35.26533508300781 92.28397369384766 29.59518623352051 89.88570404052734 C 24.11771965026855 87.56893157958984 19.19813346862793 84.25196075439453 14.97309303283691 80.02691650390625 C 10.74804019927979 75.80186462402344 7.431066513061523 70.88229370117188 5.114293098449707 65.40481567382812 C 2.716026782989502 59.73468017578125 1.5 53.71062850952148 1.5 47.5 C 1.5 41.28937149047852 2.716026782989502 35.26533508300781 5.114293098449707 29.59518623352051 C 7.431066513061523 24.11771965026855 10.74804019927979 19.19813346862793 14.97309303283691 14.97309303283691 C 19.19813346862793 10.74804019927979 24.11771965026855 7.431066513061523 29.59518623352051 5.114293098449707 C 35.26533508300781 2.716026782989502 41.28937149047852 1.5 47.5 1.5 C 53.71062850952148 1.5 59.73468017578125 2.716026782989502 65.40481567382812 5.114293098449707 C 70.88229370117188 7.431066513061523 75.80186462402344 10.74804019927979 80.02691650390625 14.97309303283691 C 84.25196075439453 19.19813346862793 87.56893157958984 24.11771965026855 89.88570404052734 29.59518623352051 C 92.28397369384766 35.26533508300781 93.5 41.28937149047852 93.5 47.5 C 93.5 53.71062850952148 92.28397369384766 59.73468017578125 89.88570404052734 65.40481567382812 C 87.56893157958984 70.88229370117188 84.25196075439453 75.80186462402344 80.02691650390625 80.02691650390625 C 75.80186462402344 84.25196075439453 70.88229370117188 87.56893157958984 65.40481567382812 89.88570404052734 C 59.73468017578125 92.28397369384766 53.71062850952148 93.5 47.5 93.5 Z" stroke="none"/>
                  <path d="M 47.5 3 C 41.49121475219727 3 35.66376876831055 4.176155090332031 30.17950439453125 6.495796203613281 C 24.88084411621094 8.736953735351562 20.12152099609375 11.94598388671875 16.03375244140625 16.03375244140625 C 11.94598388671875 20.12152099609375 8.736953735351562 24.88084411621094 6.495796203613281 30.17950439453125 C 4.176155090332031 35.66376876831055 3 41.49121475219727 3 47.5 C 3 53.50878524780273 4.176155090332031 59.33623123168945 6.495796203613281 64.82049560546875 C 8.736953735351562 70.11915588378906 11.94598388671875 74.87847900390625 16.03375244140625 78.96624755859375 C 20.12152099609375 83.05401611328125 24.88084411621094 86.26304626464844 30.17950439453125 88.50419616699219 C 35.66376876831055 90.82384490966797 41.49121475219727 92 47.5 92 C 53.50878524780273 92 59.33623123168945 90.82384490966797 64.82049560546875 88.50419616699219 C 70.11915588378906 86.26304626464844 74.87847900390625 83.05401611328125 78.96624755859375 78.96624755859375 C 83.05401611328125 74.87847900390625 86.26304626464844 70.11915588378906 88.50419616699219 64.82049560546875 C 90.82384490966797 59.33623123168945 92 53.50878524780273 92 47.5 C 92 41.49121475219727 90.82384490966797 35.66376876831055 88.50419616699219 30.17950439453125 C 86.26304626464844 24.88084411621094 83.05401611328125 20.12152099609375 78.96624755859375 16.03375244140625 C 74.87847900390625 11.94598388671875 70.11915588378906 8.736953735351562 64.82049560546875 6.495796203613281 C 59.33623123168945 4.176155090332031 53.50878524780273 3 47.5 3 M 47.5 0 C 73.7335205078125 0 95 21.2664794921875 95 47.5 C 95 73.7335205078125 73.7335205078125 95 47.5 95 C 21.2664794921875 95 0 73.7335205078125 0 47.5 C 0 21.2664794921875 21.2664794921875 0 47.5 0 Z" stroke="none" fill="#fe9d52"/>
                </g>
              </g>
            </g>
          </g>
        </g>
      </g>
    </g>
    <g id="decision_3_" data-name="decision (3)" transform="translate(610.509 1892.84)">
      <circle id="Elipse_12634" data-name="Elipse 12634" cx="14.5" cy="14.5" r="14.5" transform="translate(18.104 18.18)" fill="#72a6e4"/>
      <circle id="Elipse_12635" data-name="Elipse 12635" cx="8" cy="8" r="8" transform="translate(43.104 2.18)" fill="#7bcc8f"/>
      <circle id="Elipse_12636" data-name="Elipse 12636" cx="8" cy="8" r="8" transform="translate(6.104 47.18)" fill="#d96d6d"/>
      <path id="Trazado_1043159" data-name="Trazado 1043159" d="M32.286,17A15.286,15.286,0,1,0,47.571,32.286,15.286,15.286,0,0,0,32.286,17Zm0,28.533A13.247,13.247,0,1,1,45.533,32.286,13.247,13.247,0,0,1,32.286,45.533Z" transform="translate(0.266 0.305)"/>
      <path id="Trazado_1043160" data-name="Trazado 1043160" d="M32.086,24A4.591,4.591,0,0,0,27.5,28.586h2.038a2.548,2.548,0,1,1,2.548,2.548,1.018,1.018,0,0,0-1.019,1.019v4.076H33.1V33.057A4.586,4.586,0,0,0,32.086,24Z" transform="translate(0.466 0.438)"/>
      <path id="Trazado_1043161" data-name="Trazado 1043161" d="M31,38h2.038v2.038H31Z" transform="translate(0.533 0.704)"/>
      <path id="Trazado_1043162" data-name="Trazado 1043162" d="M59.343,10.171a9.171,9.171,0,1,0-9.171,9.171,9.171,9.171,0,0,0,9.171-9.171Zm-16.3,0A7.133,7.133,0,1,1,50.171,17.3,7.133,7.133,0,0,1,43.038,10.171Z" transform="translate(0.723)"/>
      <path id="Trazado_1043163" data-name="Trazado 1043163" d="M53.945,8.122,52.315,6.9,49.1,11.18l-1.733-1.3-1.222,1.63L48.7,13.422a1.018,1.018,0,0,0,1.426-.2Z" transform="translate(0.821 0.112)"/>
      <path id="Trazado_1043164" data-name="Trazado 1043164" d="M14.171,45a9.171,9.171,0,1,0,9.171,9.171A9.171,9.171,0,0,0,14.171,45Zm0,16.3A7.133,7.133,0,1,1,21.3,54.171,7.133,7.133,0,0,1,14.171,61.3Z" transform="translate(0.038 0.838)"/>
      <path id="Trazado_1043165" data-name="Trazado 1043165" d="M16.407,50.293,14.071,52.63l-2.337-2.337-1.441,1.441,2.337,2.337-2.337,2.337,1.441,1.441,2.337-2.337,2.337,2.337,1.441-1.441-2.337-2.337,2.337-2.337Z" transform="translate(0.139 0.938)"/>
      <path id="Trazado_1043166" data-name="Trazado 1043166" d="M8.177,45.326A27.532,27.532,0,0,1,39.864,6.02l.541-1.964A29.565,29.565,0,0,0,6.372,46.273Z" transform="translate(0 0.038)"/>
      <path id="Trazado_1043167" data-name="Trazado 1043167" d="M56.533,19.482A27.532,27.532,0,0,1,24.3,58.631l-.581,1.955a29.566,29.566,0,0,0,34.623-42.05Z" transform="translate(0.394 0.334)"/>
    </g>
  </g>
</svg>
