<svg xmlns="http://www.w3.org/2000/svg" xmlns:xlink="http://www.w3.org/1999/xlink" width="113" height="113" viewBox="0 0 113 113">
  <defs>
    <filter id="Trazado_982547" x="0" y="0" width="113" height="113" filterUnits="userSpaceOnUse">
      <feOffset dy="3" input="SourceAlpha"/>
      <feGaussianBlur stdDeviation="3" result="blur"/>
      <feFlood flood-opacity="0.161"/>
      <feComposite operator="in" in2="blur"/>
      <feComposite in="SourceGraphic"/>
    </filter>
  </defs>
  <g id="Grupo_1219647" data-name="Grupo 1219647" transform="translate(-901.56 -1871.93)">
    <g id="Grupo_1178613" data-name="Grupo 1178613" transform="translate(629.561 -4039.231)">
      <g id="Grupo_1178434" data-name="Grupo 1178434" transform="translate(281 5917.161)">
        <g id="Grupo_1172010" data-name="Grupo 1172010" transform="translate(0)">
          <g id="Grupo_1171046" data-name="Grupo 1171046">
            <g id="Grupo_1148525" data-name="Grupo 1148525">
              <g transform="matrix(1, 0, 0, 1, -9, -6)" filter="url(#Trazado_982547)">
                <g id="Trazado_982547-2" data-name="Trazado 982547" transform="translate(9 6)" fill="#fef4ec">
                  <path d="M 47.5 93.5 C 41.28937149047852 93.5 35.26533508300781 92.28397369384766 29.59518623352051 89.88570404052734 C 24.11771965026855 87.56893157958984 19.19813346862793 84.25196075439453 14.97309303283691 80.02691650390625 C 10.74804019927979 75.80186462402344 7.431066513061523 70.88229370117188 5.114293098449707 65.40481567382812 C 2.716026782989502 59.73468017578125 1.5 53.71062850952148 1.5 47.5 C 1.5 41.28937149047852 2.716026782989502 35.26533508300781 5.114293098449707 29.59518623352051 C 7.431066513061523 24.11771965026855 10.74804019927979 19.19813346862793 14.97309303283691 14.97309303283691 C 19.19813346862793 10.74804019927979 24.11771965026855 7.431066513061523 29.59518623352051 5.114293098449707 C 35.26533508300781 2.716026782989502 41.28937149047852 1.5 47.5 1.5 C 53.71062850952148 1.5 59.73468017578125 2.716026782989502 65.40481567382812 5.114293098449707 C 70.88229370117188 7.431066513061523 75.80186462402344 10.74804019927979 80.02691650390625 14.97309303283691 C 84.25196075439453 19.19813346862793 87.56893157958984 24.11771965026855 89.88570404052734 29.59518623352051 C 92.28397369384766 35.26533508300781 93.5 41.28937149047852 93.5 47.5 C 93.5 53.71062850952148 92.28397369384766 59.73468017578125 89.88570404052734 65.40481567382812 C 87.56893157958984 70.88229370117188 84.25196075439453 75.80186462402344 80.02691650390625 80.02691650390625 C 75.80186462402344 84.25196075439453 70.88229370117188 87.56893157958984 65.40481567382812 89.88570404052734 C 59.73468017578125 92.28397369384766 53.71062850952148 93.5 47.5 93.5 Z" stroke="none"/>
                  <path d="M 47.5 3 C 41.49121475219727 3 35.66376876831055 4.176155090332031 30.17950439453125 6.495796203613281 C 24.88084411621094 8.736953735351562 20.12152099609375 11.94598388671875 16.03375244140625 16.03375244140625 C 11.94598388671875 20.12152099609375 8.736953735351562 24.88084411621094 6.495796203613281 30.17950439453125 C 4.176155090332031 35.66376876831055 3 41.49121475219727 3 47.5 C 3 53.50878524780273 4.176155090332031 59.33623123168945 6.495796203613281 64.82049560546875 C 8.736953735351562 70.11915588378906 11.94598388671875 74.87847900390625 16.03375244140625 78.96624755859375 C 20.12152099609375 83.05401611328125 24.88084411621094 86.26304626464844 30.17950439453125 88.50419616699219 C 35.66376876831055 90.82384490966797 41.49121475219727 92 47.5 92 C 53.50878524780273 92 59.33623123168945 90.82384490966797 64.82049560546875 88.50419616699219 C 70.11915588378906 86.26304626464844 74.87847900390625 83.05401611328125 78.96624755859375 78.96624755859375 C 83.05401611328125 74.87847900390625 86.26304626464844 70.11915588378906 88.50419616699219 64.82049560546875 C 90.82384490966797 59.33623123168945 92 53.50878524780273 92 47.5 C 92 41.49121475219727 90.82384490966797 35.66376876831055 88.50419616699219 30.17950439453125 C 86.26304626464844 24.88084411621094 83.05401611328125 20.12152099609375 78.96624755859375 16.03375244140625 C 74.87847900390625 11.94598388671875 70.11915588378906 8.736953735351562 64.82049560546875 6.495796203613281 C 59.33623123168945 4.176155090332031 53.50878524780273 3 47.5 3 M 47.5 0 C 73.7335205078125 0 95 21.2664794921875 95 47.5 C 95 73.7335205078125 73.7335205078125 95 47.5 95 C 21.2664794921875 95 0 73.7335205078125 0 47.5 C 0 21.2664794921875 21.2664794921875 0 47.5 0 Z" stroke="none" fill="#fe9d52"/>
                </g>
              </g>
            </g>
          </g>
        </g>
      </g>
    </g>
    <g id="grafico-de-barras" transform="translate(929.612 1897.406)">
      <g id="Grupo_1219645" data-name="Grupo 1219645" transform="translate(3.736 0.934)">
        <rect id="Rectángulo_421370" data-name="Rectángulo 421370" width="9.341" height="16.814" transform="translate(0 33.628)" fill="#ffaf46"/>
        <rect id="Rectángulo_421371" data-name="Rectángulo 421371" width="9.341" height="28.024" transform="translate(26.155 22.419)" fill="#ffaf46"/>
        <rect id="Rectángulo_421372" data-name="Rectángulo 421372" width="9.341" height="39.233" transform="translate(13.078 11.209)" fill="#ffaf46"/>
        <rect id="Rectángulo_421373" data-name="Rectángulo 421373" width="9.341" height="50.442" transform="translate(39.233)" fill="#ffaf46"/>
      </g>
      <g id="Grupo_1219646" data-name="Grupo 1219646">
        <rect id="Rectángulo_421374" data-name="Rectángulo 421374" width="56.047" height="1.868" transform="translate(0 54.179)" fill="#231f20"/>
        <path id="Trazado_1043168" data-name="Trazado 1043168" d="M35.875,325.883H26.534a.934.934,0,0,1-.934-.934V308.135a.934.934,0,0,1,.934-.934h9.341a.934.934,0,0,1,.934.934v16.814A.934.934,0,0,1,35.875,325.883Zm-8.407-1.868h7.473V309.069H27.468Z" transform="translate(-22.798 -273.573)" fill="#231f20"/>
        <path id="Trazado_1043169" data-name="Trazado 1043169" d="M274.809,234.693h-9.341a.934.934,0,0,1-.934-.934V205.735a.934.934,0,0,1,.934-.934h9.341a.934.934,0,0,1,.934.934v28.024A.934.934,0,0,1,274.809,234.693Zm-8.407-1.868h7.473V206.669H266.4Z" transform="translate(-235.576 -182.382)" fill="#231f20"/>
        <path id="Trazado_1043170" data-name="Trazado 1043170" d="M155.342,143.5H146a.934.934,0,0,1-.934-.934V103.335A.934.934,0,0,1,146,102.4h9.341a.934.934,0,0,1,.934.934v39.233A.934.934,0,0,1,155.342,143.5Zm-8.407-1.868h7.473V104.269h-7.473Z" transform="translate(-129.187 -91.191)" fill="#231f20"/>
        <path id="Trazado_1043171" data-name="Trazado 1043171" d="M394.276,52.311h-9.341a.934.934,0,0,1-.934-.934V.934A.934.934,0,0,1,384.935,0h9.341a.934.934,0,0,1,.934.934V51.376A.934.934,0,0,1,394.276,52.311Zm-8.407-1.868h7.473V1.868h-7.473Z" transform="translate(-341.966)" fill="#231f20"/>
      </g>
    </g>
  </g>
</svg>
