<svg xmlns="http://www.w3.org/2000/svg" xmlns:xlink="http://www.w3.org/1999/xlink" width="97.533" height="97.533" viewBox="0 0 97.533 97.533">
  <defs>
    <filter id="Trazado_982547" x="0" y="0" width="97.533" height="97.533" filterUnits="userSpaceOnUse">
      <feOffset dy="3" input="SourceAlpha"/>
      <feGaussianBlur stdDeviation="3" result="blur"/>
      <feFlood flood-opacity="0.161"/>
      <feComposite operator="in" in2="blur"/>
      <feComposite in="SourceGraphic"/>
    </filter>
  </defs>
  <g id="Grupo_1219772" data-name="Grupo 1219772" transform="translate(-190 -3520)">
    <g id="Grupo_1219606" data-name="Grupo 1219606" transform="translate(-0.967 -5684)">
      <g id="Grupo_1203355" data-name="Grupo 1203355" transform="translate(-0.5 2301.319)">
        <g id="Grupo_1202156" data-name="Grupo 1202156" transform="translate(-80.533 5497.679)">
          <g id="Grupo_1177900" data-name="Grupo 1177900" transform="translate(281 1411.003)">
            <g id="Grupo_1172010" data-name="Grupo 1172010" transform="translate(0)">
              <g id="Grupo_1171046" data-name="Grupo 1171046">
                <g id="Grupo_1148525" data-name="Grupo 1148525">
                  <g transform="matrix(1, 0, 0, 1, -9, -6)" filter="url(#Trazado_982547)">
                    <g id="Trazado_982547-2" data-name="Trazado 982547" transform="translate(9 6)" fill="#fdeffe">
                      <path d="M 39.7666015625 78.033203125 C 34.59997940063477 78.033203125 29.58870124816895 77.02164459228516 24.87196731567383 75.02663421630859 C 20.31538963317871 73.099365234375 16.22284507751465 70.34000396728516 12.70802402496338 66.82518005371094 C 9.193202018737793 63.31035614013672 6.433835029602051 59.21781158447266 4.506568431854248 54.66123580932617 C 2.511557102203369 49.94449996948242 1.500001549720764 44.93322372436523 1.500001549720764 39.7666015625 C 1.500001549720764 34.59997940063477 2.511557102203369 29.58870124816895 4.506568431854248 24.87196731567383 C 6.433835029602051 20.31538963317871 9.193202018737793 16.22284507751465 12.70802402496338 12.70802402496338 C 16.22284507751465 9.193202018737793 20.31538963317871 6.433835029602051 24.87196731567383 4.506568431854248 C 29.58870124816895 2.511557102203369 34.59997940063477 1.500001549720764 39.7666015625 1.500001549720764 C 44.93322372436523 1.500001549720764 49.94449996948242 2.511557102203369 54.66123580932617 4.506568431854248 C 59.21781158447266 6.433835029602051 63.31035614013672 9.193202018737793 66.82518005371094 12.70802402496338 C 70.34000396728516 16.22284507751465 73.099365234375 20.31538963317871 75.02663421630859 24.87196731567383 C 77.02164459228516 29.58870124816895 78.033203125 34.59997940063477 78.033203125 39.7666015625 C 78.033203125 44.93322372436523 77.02164459228516 49.94449996948242 75.02663421630859 54.66123580932617 C 73.099365234375 59.21781158447266 70.34000396728516 63.31035614013672 66.82518005371094 66.82518005371094 C 63.31035614013672 70.34000396728516 59.21781158447266 73.099365234375 54.66123580932617 75.02663421630859 C 49.94449996948242 77.02164459228516 44.93322372436523 78.033203125 39.7666015625 78.033203125 Z" stroke="none"/>
                      <path d="M 39.7666015625 3 C 34.80181503295898 3 29.98714065551758 3.971687316894531 25.45630264282227 5.888076782226562 C 21.07851409912109 7.739715576171875 17.146240234375 10.39113616943359 13.76869201660156 13.76869201660156 C 10.39113616943359 17.146240234375 7.739715576171875 21.07851409912109 5.888076782226562 25.45630264282227 C 3.971687316894531 29.98714065551758 3 34.80181503295898 3 39.7666015625 C 3 44.73138809204102 3.971687316894531 49.54606628417969 5.888076782226562 54.076904296875 C 7.739715576171875 58.45468902587891 10.39113616943359 62.386962890625 13.76869201660156 65.76451110839844 C 17.146240234375 69.14206695556641 21.07851409912109 71.79348754882812 25.45630264282227 73.64512634277344 C 29.98714065551758 75.56151580810547 34.80181503295898 76.533203125 39.7666015625 76.533203125 C 44.73138809204102 76.533203125 49.54606628417969 75.56151580810547 54.076904296875 73.64512634277344 C 58.45468902587891 71.79348754882812 62.386962890625 69.14206695556641 65.76451110839844 65.76451110839844 C 69.14206695556641 62.386962890625 71.79348754882812 58.45468902587891 73.64512634277344 54.076904296875 C 75.56151580810547 49.54606628417969 76.533203125 44.73138809204102 76.533203125 39.7666015625 C 76.533203125 34.80181503295898 75.56151580810547 29.98714065551758 73.64512634277344 25.45630264282227 C 71.79348754882812 21.07851409912109 69.14206695556641 17.146240234375 65.76451110839844 13.76869201660156 C 62.386962890625 10.39113616943359 58.45468902587891 7.739715576171875 54.076904296875 5.888076782226562 C 49.54606628417969 3.971687316894531 44.73138809204102 3 39.7666015625 3 M 39.7666015625 0 C 61.72908782958984 0 79.533203125 17.80411529541016 79.533203125 39.7666015625 C 79.533203125 61.72908782958984 61.72908782958984 79.533203125 39.7666015625 79.533203125 C 17.80411529541016 79.533203125 0 61.72908782958984 0 39.7666015625 C 0 17.80411529541016 17.80411529541016 0 39.7666015625 0 Z" stroke="none" fill="#ee70f7"/>
                    </g>
                  </g>
                </g>
              </g>
            </g>
          </g>
        </g>
      </g>
    </g>
    <g id="procedimiento" transform="translate(197.898 3510.378)">
      <path id="Trazado_1043436" data-name="Trazado 1043436" d="M336.054,422.358h15.688v4.593H336.054Z" transform="translate(-288.471 -349.91)" fill="#fe646f"/>
      <path id="Trazado_1043437" data-name="Trazado 1043437" d="M336.054,240.884h15.688v4.6H336.054Z" transform="translate(-288.471 -187.812)" fill="#8ac9fe"/>
      <path id="Trazado_1043438" data-name="Trazado 1043438" d="M336.054,331.621h15.688v4.6H336.054Z" transform="translate(-288.471 -268.861)" fill="#ffe177"/>
      <path id="Trazado_1043439" data-name="Trazado 1043439" d="M201.545,315.775a4.193,4.193,0,1,0,4.194,4.194A4.193,4.193,0,0,0,201.545,315.775Z" transform="translate(-164.58 -254.707)" fill="#6cf5c2"/>
      <path id="Trazado_1043440" data-name="Trazado 1043440" d="M56.328,129.146l-3.7-6.411a.851.851,0,0,1-.377-.414l-.69-1.627-1.248-.516-1.637.662a.854.854,0,0,1-.924-.188L46,118.906a.854.854,0,0,1-.188-.924l.662-1.637-.517-1.249-1.627-.69a.854.854,0,0,1-.521-.787v-2.466a.853.853,0,0,1,.227-.578,4.525,4.525,0,0,0-1.031-.12,4.279,4.279,0,0,0-3.794,2.188l-9.528,16.5a4.38,4.38,0,0,0,3.791,6.57H45.42a5.9,5.9,0,0,1,10.9-2.177l.008-.013A4.282,4.282,0,0,0,56.328,129.146Z" transform="translate(-14.292 -71.308)" fill="#ffe177"/>
      <path id="Trazado_1043441" data-name="Trazado 1043441" d="M28.718,55.717A2.387,2.387,0,0,0,31.066,53.4l.272-6.187a2.488,2.488,0,0,0-.7-1.841,2.652,2.652,0,0,0-3.837,0,2.487,2.487,0,0,0-.7,1.841l.272,6.186a2.382,2.382,0,0,0,2.351,2.315Zm-.686-9.16a.943.943,0,0,1,1.369,0,.8.8,0,0,1,.231.585l-.272,6.183a.645.645,0,1,1-1.287,0L27.8,47.141a.8.8,0,0,1,.231-.584ZM28.718,56.6a2.354,2.354,0,1,0,2.353,2.352A2.354,2.354,0,0,0,28.718,56.6Zm0,3a.646.646,0,1,1,.644-.647A.646.646,0,0,1,28.718,59.6ZM39.979,46.7a5.62,5.62,0,1,0-5.618-5.621A5.62,5.62,0,0,0,39.979,46.7Zm0-9.531a3.911,3.911,0,1,1-3.91,3.91,3.911,3.911,0,0,1,3.91-3.91Zm24.146,14.2h-7.59V41.077a.854.854,0,0,0-.854-.854H50.434v-.378a.854.854,0,0,0-.521-.786l-1.627-.69-.517-1.248.662-1.637a.854.854,0,0,0-.187-.924L46.5,32.813a.854.854,0,0,0-.924-.189l-1.641.662-1.248-.516L42,31.144a.854.854,0,0,0-.787-.522h-2.47a.854.854,0,0,0-.786.521l-.69,1.627-1.248.517-1.637-.662a.854.854,0,0,0-.924.188l-1.746,1.746a.854.854,0,0,0-.188.924l.662,1.637-.456,1.1a6.1,6.1,0,0,0-3.013-.784,6.025,6.025,0,0,0-5.273,3.042l-9.528,16.5a6.089,6.089,0,0,0,5.271,9.132h8.852v8.628a.854.854,0,0,0,.854.854H45.875v2.3a.854.854,0,0,0,.854.854h17.4a.854.854,0,0,0,.854-.854v-6.3a.854.854,0,0,0-.854-.854h-7.59V69.064h7.59a.854.854,0,0,0,.854-.854v-6.3a.854.854,0,0,0-.854-.854h-7.59V59.376h7.59a.854.854,0,0,0,.854-.854v-6.3a.854.854,0,0,0-.854-.854ZM32.659,39.8a.854.854,0,0,0,.456-.46l.784-1.895a.854.854,0,0,0,0-.647l-.581-1.437.947-.947L35.7,35a.854.854,0,0,0,.647,0l1.9-.784a.854.854,0,0,0,.459-.456l.605-1.428h1.338l.6,1.427a.854.854,0,0,0,.46.457L43.605,35a.854.854,0,0,0,.646,0l1.44-.581.944.946L46.055,36.8a.854.854,0,0,0,0,.647l.784,1.895a.854.854,0,0,0,.456.46l1.428.606v1.335l-1.428.605a.854.854,0,0,0-.456.46l-.784,1.895a.854.854,0,0,0,0,.647l.581,1.437-.944.946-1.44-.581a.854.854,0,0,0-.646,0l-1.895.784a.854.854,0,0,0-.46.457l-.6,1.427H39.31L38.7,48.4a.854.854,0,0,0-.46-.456l-1.895-.784a.854.854,0,0,0-.647,0l-1.437.581-.947-.947.581-1.437a.854.854,0,0,0,0-.647l-.784-1.895a.854.854,0,0,0-.456-.46l-1.428-.605V40.41ZM15.4,62.217a4.281,4.281,0,0,1,0-4.379l9.528-16.5a4.279,4.279,0,0,1,3.794-2.188,4.525,4.525,0,0,1,1.031.12.853.853,0,0,0-.227.578v2.466a.854.854,0,0,0,.521.786l1.627.69.517,1.249-.662,1.637a.854.854,0,0,0,.188.924l1.746,1.746a.854.854,0,0,0,.924.188l1.637-.662,1.248.516.69,1.627a.851.851,0,0,0,.377.414l3.7,6.411a4.281,4.281,0,0,1,0,4.38l-.008.013a5.9,5.9,0,0,0-10.9,2.177H19.187A4.278,4.278,0,0,1,15.4,62.217ZM41.16,65.262a4.193,4.193,0,1,1-4.194-4.194,4.193,4.193,0,0,1,4.194,4.194ZM63.272,77.041H47.583V72.448H63.271Zm0-9.685H47.583v-4.6H63.271Zm-8.445-6.3h-8.1a.854.854,0,0,0-.854.854v6.3a.854.854,0,0,0,.854.854h8.1v1.675h-8.1a.854.854,0,0,0-.854.854v2.3H29.747V66.116h1.381a5.9,5.9,0,1,0,11.627-2,6.237,6.237,0,0,0,.76-1.05,6.027,6.027,0,0,0,0-6.087l-3.146-5.45h.845A.854.854,0,0,0,42,51.012l.687-1.626,1.248-.516,1.641.662a.854.854,0,0,0,.924-.189L48.244,47.6a.854.854,0,0,0,.187-.923l-.662-1.637.517-1.249,1.627-.69a.854.854,0,0,0,.521-.786v-.381h4.393v9.433h-8.1a.854.854,0,0,0-.854.854v6.3a.854.854,0,0,0,.854.854h8.1Zm8.444-3.384H47.583v-4.6H63.271Zm-13.9-2.3a.854.854,0,0,1,.854-.854H60.63a.854.854,0,1,1,0,1.708H50.221A.854.854,0,0,1,49.367,55.371Zm0,9.685a.854.854,0,0,1,.854-.854H60.63a.854.854,0,1,1,0,1.708H50.221A.854.854,0,0,1,49.367,65.056Zm0,9.688a.854.854,0,0,1,.854-.854H60.63a.854.854,0,1,1,0,1.708H50.221A.854.854,0,0,1,49.367,74.744Zm-9.61-11.621a.854.854,0,0,1,0,1.208L36.691,67.4a.854.854,0,0,1-1.208,0l-1.308-1.311a.854.854,0,1,1,1.209-1.207l.7.7,2.461-2.461a.854.854,0,0,1,1.208,0Z"/>
      <path id="Trazado_1043442" data-name="Trazado 1043442" d="M184.784,57.106,185.568,59a.854.854,0,0,1,0,.647l-.581,1.437.947.947,1.437-.581a.854.854,0,0,1,.647,0l1.895.784a.854.854,0,0,1,.46.456l.605,1.428h1.338l.6-1.427a.854.854,0,0,1,.46-.457l1.895-.784a.854.854,0,0,1,.646,0l1.44.581.944-.946-.581-1.437a.854.854,0,0,1,0-.647l.784-1.895a.854.854,0,0,1,.456-.46l1.428-.605V54.7l-1.428-.606a.854.854,0,0,1-.456-.46l-.784-1.895a.854.854,0,0,1,0-.647l.581-1.437-.944-.946-1.44.581a.854.854,0,0,1-.646,0l-1.895-.784a.854.854,0,0,1-.46-.457l-.6-1.427H190.98l-.606,1.428a.854.854,0,0,1-.46.456l-1.895.784a.854.854,0,0,1-.647,0l-1.437-.58-.947.947.581,1.437a.854.854,0,0,1,0,.647l-.784,1.895a.854.854,0,0,1-.456.46L182.9,54.7V56.04l1.428.605A.854.854,0,0,1,184.784,57.106Zm6.865-7.353a5.62,5.62,0,1,1-5.618,5.619,5.62,5.62,0,0,1,5.618-5.619Z" transform="translate(-151.669 -14.294)" fill="#837683"/>
      <g id="Grupo_1219771" data-name="Grupo 1219771" transform="translate(27.8 46.262)">
        <path id="Trazado_1043443" data-name="Trazado 1043443" d="M153.95,289.951a.646.646,0,1,0,.644.644A.645.645,0,0,0,153.95,289.951Z" transform="translate(-153.032 -277.902)" fill="#fe646f"/>
        <path id="Trazado_1043444" data-name="Trazado 1043444" d="M151.688,184.851a.674.674,0,0,0,.642-.685l.272-6.183a.8.8,0,0,0-.231-.585.943.943,0,0,0-1.369,0,.8.8,0,0,0-.231.584l.272,6.186A.671.671,0,0,0,151.688,184.851Z" transform="translate(-150.77 -177.104)" fill="#fe646f"/>
      </g>
    </g>
  </g>
</svg>
