<svg xmlns="http://www.w3.org/2000/svg" xmlns:xlink="http://www.w3.org/1999/xlink" width="113" height="113" viewBox="0 0 113 113">
  <defs>
    <filter id="Trazado_982547" x="0" y="0" width="113" height="113" filterUnits="userSpaceOnUse">
      <feOffset dy="3" input="SourceAlpha"/>
      <feGaussianBlur stdDeviation="3" result="blur"/>
      <feFlood flood-opacity="0.161"/>
      <feComposite operator="in" in2="blur"/>
      <feComposite in="SourceGraphic"/>
    </filter>
  </defs>
  <g id="Grupo_1219648" data-name="Grupo 1219648" transform="translate(-1216 -1872)">
    <g id="Grupo_1178617" data-name="Grupo 1178617" transform="translate(944 -7104.92)">
      <g id="Grupo_1178613" data-name="Grupo 1178613" transform="translate(0 3065.759)">
        <g id="Grupo_1178434" data-name="Grupo 1178434" transform="translate(281 5917.161)">
          <g id="Grupo_1172010" data-name="Grupo 1172010" transform="translate(0)">
            <g id="Grupo_1171046" data-name="Grupo 1171046">
              <g id="Grupo_1148525" data-name="Grupo 1148525">
                <g transform="matrix(1, 0, 0, 1, -9, -6)" filter="url(#Trazado_982547)">
                  <g id="Trazado_982547-2" data-name="Trazado 982547" transform="translate(9 6)" fill="#fef4ec">
                    <path d="M 47.5 93.5 C 41.28937149047852 93.5 35.26533508300781 92.28397369384766 29.59518623352051 89.88570404052734 C 24.11771965026855 87.56893157958984 19.19813346862793 84.25196075439453 14.97309303283691 80.02691650390625 C 10.74804019927979 75.80186462402344 7.431066513061523 70.88229370117188 5.114293098449707 65.40481567382812 C 2.716026782989502 59.73468017578125 1.5 53.71062850952148 1.5 47.5 C 1.5 41.28937149047852 2.716026782989502 35.26533508300781 5.114293098449707 29.59518623352051 C 7.431066513061523 24.11771965026855 10.74804019927979 19.19813346862793 14.97309303283691 14.97309303283691 C 19.19813346862793 10.74804019927979 24.11771965026855 7.431066513061523 29.59518623352051 5.114293098449707 C 35.26533508300781 2.716026782989502 41.28937149047852 1.5 47.5 1.5 C 53.71062850952148 1.5 59.73468017578125 2.716026782989502 65.40481567382812 5.114293098449707 C 70.88229370117188 7.431066513061523 75.80186462402344 10.74804019927979 80.02691650390625 14.97309303283691 C 84.25196075439453 19.19813346862793 87.56893157958984 24.11771965026855 89.88570404052734 29.59518623352051 C 92.28397369384766 35.26533508300781 93.5 41.28937149047852 93.5 47.5 C 93.5 53.71062850952148 92.28397369384766 59.73468017578125 89.88570404052734 65.40481567382812 C 87.56893157958984 70.88229370117188 84.25196075439453 75.80186462402344 80.02691650390625 80.02691650390625 C 75.80186462402344 84.25196075439453 70.88229370117188 87.56893157958984 65.40481567382812 89.88570404052734 C 59.73468017578125 92.28397369384766 53.71062850952148 93.5 47.5 93.5 Z" stroke="none"/>
                    <path d="M 47.5 3 C 41.49121475219727 3 35.66376876831055 4.176155090332031 30.17950439453125 6.495796203613281 C 24.88084411621094 8.736953735351562 20.12152099609375 11.94598388671875 16.03375244140625 16.03375244140625 C 11.94598388671875 20.12152099609375 8.736953735351562 24.88084411621094 6.495796203613281 30.17950439453125 C 4.176155090332031 35.66376876831055 3 41.49121475219727 3 47.5 C 3 53.50878524780273 4.176155090332031 59.33623123168945 6.495796203613281 64.82049560546875 C 8.736953735351562 70.11915588378906 11.94598388671875 74.87847900390625 16.03375244140625 78.96624755859375 C 20.12152099609375 83.05401611328125 24.88084411621094 86.26304626464844 30.17950439453125 88.50419616699219 C 35.66376876831055 90.82384490966797 41.49121475219727 92 47.5 92 C 53.50878524780273 92 59.33623123168945 90.82384490966797 64.82049560546875 88.50419616699219 C 70.11915588378906 86.26304626464844 74.87847900390625 83.05401611328125 78.96624755859375 78.96624755859375 C 83.05401611328125 74.87847900390625 86.26304626464844 70.11915588378906 88.50419616699219 64.82049560546875 C 90.82384490966797 59.33623123168945 92 53.50878524780273 92 47.5 C 92 41.49121475219727 90.82384490966797 35.66376876831055 88.50419616699219 30.17950439453125 C 86.26304626464844 24.88084411621094 83.05401611328125 20.12152099609375 78.96624755859375 16.03375244140625 C 74.87847900390625 11.94598388671875 70.11915588378906 8.736953735351562 64.82049560546875 6.495796203613281 C 59.33623123168945 4.176155090332031 53.50878524780273 3 47.5 3 M 47.5 0 C 73.7335205078125 0 95 21.2664794921875 95 47.5 C 95 73.7335205078125 73.7335205078125 95 47.5 95 C 21.2664794921875 95 0 73.7335205078125 0 47.5 C 0 21.2664794921875 21.2664794921875 0 47.5 0 Z" stroke="none" fill="#fe9d52"/>
                  </g>
                </g>
              </g>
            </g>
          </g>
        </g>
      </g>
    </g>
    <g id="globos-de-texto" transform="translate(1237 1873.111)">
      <path id="Trazado_1043172" data-name="Trazado 1043172" d="M171.688,35.237v8.034a2.337,2.337,0,0,1-2.337,2.337h-2.483l-2.55,6.8-2.639-6.8H130.594a2.337,2.337,0,0,1-2.337-2.337V35.237a2.337,2.337,0,0,1,2.337-2.337h38.757A2.337,2.337,0,0,1,171.688,35.237Z" transform="translate(-107.296 -5.029)" fill="#9ccefd"/>
      <path id="Trazado_1043173" data-name="Trazado 1043173" d="M171.688,250.089v8.032a2.337,2.337,0,0,1-2.337,2.337h-2.483l-2.55,6.8-2.639-6.8H130.594a2.337,2.337,0,0,1-2.337-2.337v-8.032a2.337,2.337,0,0,1,2.337-2.337h38.757A2.337,2.337,0,0,1,171.688,250.089Z" transform="translate(-107.296 -184.767)" fill="#7fd196"/>
      <path id="Trazado_1043174" data-name="Trazado 1043174" d="M6,142.072v8.033a2.337,2.337,0,0,0,2.337,2.337H10.82l2.55,6.8,2.639-6.8H47.094a2.337,2.337,0,0,0,2.337-2.337v-8.033a2.337,2.337,0,0,0-2.337-2.337H8.337A2.337,2.337,0,0,0,6,142.072Z" transform="translate(-5.019 -94.403)" fill="#f281ad"/>
      <path id="Trazado_1043175" data-name="Trazado 1043175" d="M297.008,35.237V43.27a2.338,2.338,0,0,1-2.337,2.339h-2.483l-2.55,6.8L287,45.608H278.06A2.339,2.339,0,0,0,280.4,43.27V35.237A2.337,2.337,0,0,0,278.06,32.9h16.611A2.337,2.337,0,0,1,297.008,35.237Z" transform="translate(-232.616 -5.029)" fill="#72bafd"/>
      <path id="Trazado_1043176" data-name="Trazado 1043176" d="M297.008,250.087v8.032a2.338,2.338,0,0,1-2.337,2.339h-2.483l-2.55,6.8-2.638-6.8H278.06a2.339,2.339,0,0,0,2.337-2.339v-8.033a2.337,2.337,0,0,0-2.337-2.337h16.611A2.337,2.337,0,0,1,297.008,250.087Z" transform="translate(-232.616 -184.765)" fill="#6bc17f"/>
      <path id="Trazado_1043177" data-name="Trazado 1043177" d="M174.75,142.068V150.1a2.338,2.338,0,0,1-2.339,2.337H155.8a2.337,2.337,0,0,0,2.337-2.337v-8.034a2.337,2.337,0,0,0-2.337-2.337h14.155l.794,2.046.768-2.046h.894a2.338,2.338,0,0,1,2.339,2.337Z" transform="translate(-130.337 -94.4)" fill="#f76898"/>
      <path id="Trazado_1043178" data-name="Trazado 1043178" d="M164.334,26.912H147.5a.981.981,0,1,0,0,1.961h16.833a1.356,1.356,0,0,1,1.356,1.356v8.033a1.358,1.358,0,0,1-1.358,1.358h-2.481a.981.981,0,0,0-.918.636l-1.646,4.391-1.709-4.4a.981.981,0,0,0-.914-.626H125.578a1.356,1.356,0,0,1-1.356-1.356V30.23a1.356,1.356,0,0,1,1.356-1.356H139.67a.981.981,0,1,0,0-1.961H125.578a3.321,3.321,0,0,0-3.318,3.318v8.033a3.319,3.319,0,0,0,3.319,3.319h30.413l2.4,6.171a.981.981,0,0,0,1.832-.01l2.311-6.161h1.8a3.322,3.322,0,0,0,3.318-3.319V30.23a3.318,3.318,0,0,0-3.318-3.318Z" transform="translate(-102.279 -0.019)"/>
      <path id="Trazado_1043179" data-name="Trazado 1043179" d="M164.334,241.762H125.578a3.321,3.321,0,0,0-3.318,3.318v8.033a3.321,3.321,0,0,0,3.318,3.319h30.415l2.4,6.171a.981.981,0,0,0,1.832-.01l2.311-6.161h1.8a3.322,3.322,0,0,0,3.318-3.319V245.08A3.322,3.322,0,0,0,164.334,241.762Zm1.356,11.35a1.359,1.359,0,0,1-1.356,1.358h-2.483a.981.981,0,0,0-.918.636l-1.646,4.391-1.709-4.4a.982.982,0,0,0-.914-.624H125.578a1.359,1.359,0,0,1-1.356-1.358V245.08a1.356,1.356,0,0,1,1.356-1.356h38.756a1.356,1.356,0,0,1,1.356,1.356Z" transform="translate(-102.279 -179.756)"/>
      <path id="Trazado_1043180" data-name="Trazado 1043180" d="M42.074,133.742H3.319A3.323,3.323,0,0,0,0,137.06v8.034a3.323,3.323,0,0,0,3.319,3.318h1.8l2.311,6.161a.981.981,0,0,0,1.832.01l2.4-6.171H42.074a3.322,3.322,0,0,0,3.319-3.318v-8.034A3.323,3.323,0,0,0,42.074,133.742Zm1.358,11.352a1.359,1.359,0,0,1-1.358,1.356H10.989a.982.982,0,0,0-.915.626l-1.708,4.4-1.647-4.391a.981.981,0,0,0-.918-.636H3.319a1.359,1.359,0,0,1-1.358-1.357v-8.034A1.36,1.36,0,0,1,3.319,135.7H42.074a1.36,1.36,0,0,1,1.358,1.356Z" transform="translate(0 -89.39)"/>
      <circle id="Elipse_12637" data-name="Elipse 12637" cx="0.978" cy="0.978" r="0.978" transform="translate(40.329 26.889)"/>
    </g>
  </g>
</svg>
