<svg xmlns="http://www.w3.org/2000/svg" width="36.24" height="35.666" viewBox="0 0 36.24 35.666">
  <g id="Layer_x0020_1" transform="translate(-1 -14)">
    <g id="_339609184" transform="translate(1 14)">
      <g id="Grupo_1178336" data-name="Grupo 1178336" transform="translate(0 0)">
        <g id="Grupo_1178331" data-name="Grupo 1178331" transform="translate(0 18.521)">
          <path id="Trazado_1040067" data-name="Trazado 1040067" d="M19.109,895.849a.286.286,0,0,1-.17-.042l-17.6-6.1A.5.5,0,0,1,1,889.2a.546.546,0,0,1,.34-.489l9.671-3.295a.5.5,0,1,1,.319.956l-8.247,2.87,16.026,5.547,16.048-5.547-8.289-2.87a.517.517,0,0,1-.319-.638.483.483,0,0,1,.638-.319l9.714,3.316a.541.541,0,0,1,.34.51.557.557,0,0,1-.34.489l-17.6,6.121C19.237,895.807,19.173,895.849,19.109,895.849Z" transform="translate(-1 -885.378)" fill-rule="evenodd"/>
        </g>
        <g id="Grupo_1178332" data-name="Grupo 1178332" transform="translate(0 25.206)">
          <path id="Trazado_1040068" data-name="Trazado 1040068" d="M19.109,1210.316a.526.526,0,0,1-.17-.021l-17.6-6.079a.513.513,0,0,1-.34-.51.546.546,0,0,1,.34-.489l9.671-3.316a.543.543,0,0,1,.659.34.511.511,0,0,1-.34.638l-8.247,2.869,16.026,5.505,16.048-5.505-8.289-2.869a.517.517,0,0,1-.319-.638.511.511,0,0,1,.638-.34l9.714,3.358a.541.541,0,0,1,.34.51.588.588,0,0,1-.34.51l-17.6,6.058A.592.592,0,0,0,19.109,1210.316Z" transform="translate(-1 -1199.877)" fill-rule="evenodd"/>
        </g>
        <g id="Grupo_1178333" data-name="Grupo 1178333" transform="translate(8.545)">
          <path id="Trazado_1040069" data-name="Trazado 1040069" d="M414.1,33.193h-3.018a.478.478,0,0,1-.51-.446l-.4-2.7c-.128-.064-.276-.085-.383-.149l-2.211,1.637a.542.542,0,0,1-.68-.043l-2.168-2.168a.515.515,0,0,1-.043-.659l1.637-2.211c-.042-.128-.106-.276-.149-.383l-2.7-.383a.558.558,0,0,1-.468-.531v-3.1a.49.49,0,0,1,.425-.51l2.721-.383c.064-.149.085-.255.149-.4l-1.658-2.189a.5.5,0,0,1,.064-.68l2.147-2.147a.58.58,0,0,1,.68-.064l2.211,1.658c.128-.064.276-.106.383-.17l.425-2.742a.514.514,0,0,1,.531-.425h3.061a.487.487,0,0,1,.489.446l.383,2.721c.149.064.276.106.425.17l2.168-1.658a.544.544,0,0,1,.68.064l2.168,2.147a.546.546,0,0,1,.042.68l-1.637,2.189c.043.106.106.255.17.4l2.721.383a.521.521,0,0,1,.425.51v3.061a.49.49,0,0,1-.425.51l-2.721.383a1.759,1.759,0,0,0-.149.383l1.658,2.211a.547.547,0,0,1-.064.68l-2.147,2.147a.547.547,0,0,1-.68.064l-2.189-1.658a1.776,1.776,0,0,1-.4.17l-.383,2.721A.633.633,0,0,1,414.1,33.193Zm-2.593-1.02h2.168l.34-2.572a.453.453,0,0,1,.361-.4c.319-.128.616-.255.85-.361a.487.487,0,0,1,.531.064l2.1,1.552,1.53-1.53-1.573-2.083a.511.511,0,0,1-.021-.574,6.6,6.6,0,0,0,.34-.829.575.575,0,0,1,.425-.34l2.593-.361V22.566l-2.593-.361a.5.5,0,0,1-.425-.361,8.829,8.829,0,0,0-.34-.85.487.487,0,0,1,.064-.531l1.552-2.083-1.53-1.53-2.1,1.552a.448.448,0,0,1-.51.064c-.276-.128-.574-.234-.871-.361a.544.544,0,0,1-.34-.4l-.361-2.593h-2.147l-.383,2.593a.577.577,0,0,1-.361.4,6.753,6.753,0,0,0-.85.361.487.487,0,0,1-.531-.064l-2.083-1.552-1.552,1.53,1.573,2.083a.532.532,0,0,1,.064.531,3.8,3.8,0,0,0-.34.829.5.5,0,0,1-.4.383l-2.593.361v2.168l2.593.361a.432.432,0,0,1,.4.383,2.846,2.846,0,0,0,.34.786.56.56,0,0,1-.043.574l-1.552,2.083,1.53,1.53L409.44,28.9a.487.487,0,0,1,.531-.064,5.347,5.347,0,0,0,.829.319.5.5,0,0,1,.383.425Z" transform="translate(-403 -14)" fill-rule="evenodd"/>
        </g>
        <g id="Grupo_1178334" data-name="Grupo 1178334" transform="translate(14.177 5.675)">
          <path id="Trazado_1040070" data-name="Trazado 1040070" d="M671.932,288.864a3.932,3.932,0,1,1,3.932-3.953A3.941,3.941,0,0,1,671.932,288.864Zm0-6.844a2.9,2.9,0,1,0,2.891,2.891A2.841,2.841,0,0,0,671.932,282.02Z" transform="translate(-668 -281)" fill-rule="evenodd"/>
        </g>
        <g id="Grupo_1178335" data-name="Grupo 1178335" transform="translate(0 11.124)">
          <path id="Trazado_1040071" data-name="Trazado 1040071" d="M19.109,548.551a.286.286,0,0,1-.17-.042l-17.6-6.1a.469.469,0,0,1-.34-.489.552.552,0,0,1,.34-.51l11.584-4a.505.505,0,0,1,.659.319.511.511,0,0,1-.34.638l-10.16,3.55,16.026,5.569,16.048-5.548-10.2-3.528a.5.5,0,0,1-.319-.659.517.517,0,0,1,.638-.319L36.9,541.451a.493.493,0,0,1,.34.489.588.588,0,0,1-.34.51l-17.6,6.058A.316.316,0,0,1,19.109,548.551Z" transform="translate(-1 -537.378)" fill-rule="evenodd"/>
        </g>
      </g>
    </g>
  </g>
</svg>
